<?xml version="1.0" standalone="no"?>
<!DOCTYPE svg PUBLIC "-//W3C//DTD SVG 1.1//EN" "http://www.w3.org/Graphics/SVG/1.1/DTD/svg11.dtd" >
<svg xmlns="http://www.w3.org/2000/svg" xmlns:xlink="http://www.w3.org/1999/xlink" version="1.1">
<metadata>
Created by FontForge 20150318 at Mon Aug 31 20:52:57 2015
 By uniteet7
(c)2013 Dirt2.com SickCapital.com. 2013. All Rights Reserved
</metadata>
<defs>
<font id="AGlitchInTime" horiz-adv-x="1014" >
  <font-face 
    font-family="AGlitchInTime"
    font-weight="400"
    font-stretch="normal"
    units-per-em="2048"
    panose-1="2 0 5 0 0 0 0 0 0 0"
    ascent="1638"
    descent="-410"
    x-height="792"
    cap-height="1155"
    bbox="-1152.45 -1888 2636 3058"
    underline-thickness="150"
    underline-position="-142"
    unicode-range="U+0020-F002"
  />
<missing-glyph horiz-adv-x="1024" 
 />
    <glyph glyph-name=".notdef" horiz-adv-x="1024" 
 />
    <glyph glyph-name=".null" horiz-adv-x="0" 
 />
    <glyph glyph-name="nonmarkingreturn" horiz-adv-x="508" 
 />
    <glyph glyph-name="space" unicode=" " horiz-adv-x="508" 
 />
    <glyph glyph-name="space" unicode="&#xa0;" horiz-adv-x="508" 
 />
    <glyph glyph-name="exclam" unicode="!" horiz-adv-x="672" 
d="M740 1768h8q11 0 29 -26q8 -3 31 -4q18 -12 14 -35q-3 -12 -27 -62l-1 -4q-1 -6 -2 -37l-1 -4l-20 -54q-4 -24 -43 -90q-15 -52 -35 -85q-1 -6 -20 -48q-5 -26 -38 -58q-27 -52 -28 -58q-6 -27 -19 -42q-18 -31 -35 -75q-8 -12 -39 -78q-23 -28 -32 -71q-33 -48 -36 -63
q-15 -29 -27 -54q-13 -14 -30 -59l-36 -50q-1 -4 -29 -43q-10 -14 -31 -28q-3 -8 -3 -12q3 -10 2 -13q-2 -8 -20 -28q-2 -12 -21 -28q-43 -41 -61 -73l-49 -63q-4 -10 -11 -10q-10 0 -9 14q5 13 33 69q18 26 38 63q14 14 42 66q5 0 15 21q1 2 0 10q6 9 14 27q-3 6 -2 10
q2 12 21 38q5 23 45 90q6 23 24 55l1 2q0 4 1 12q7 11 19 45q8 10 20 47q15 24 42 94q12 15 18 45q16 26 19 37v2q1 3 1 30q1 6 32 66q12 23 25 74q8 20 34 73q2 4 4 12l1 3q1 15 1 17l2 8q1 8 15 37l2 11q1 4 1 9q19 38 20 44l3 15q1 6 4 45v2q7 34 37 69q28 60 62 83
q16 10 25 10zM273 645q0 -5 6 -5h6q3 0 4 4q-1 5 -7 5h-4q-1 0 -5 -4zM17 184q14 0 27 -22q3 -9 1 -17l-2 -10q-1 -4 -7 -11v-2v-2q-12 -23 -21 -36l-25 -31q-8 -17 -47 -47q-15 -19 -31 -19h-3q-4 0 -11 1l-36 -8h-12q-34 0 -27 34l20 40q28 39 52 48q10 6 22 29
q23 24 44 33q12 14 34 14zM15 135l-1 -3h2q3 0 4 3q0 2 -3 2q-2 -1 -2 -2z" />
    <glyph glyph-name="quotedbl" unicode="&#x22;" horiz-adv-x="469" 
d="M479 1388q21 0 28 -40q0 -5 -1 -9l-1 -7q-3 -15 -14 -44q-1 -11 -3 -19q-1 -8 -4 -17q0 -6 -3 -20q-9 -34 -50 -97q-4 0 -11 -15q-8 -11 -19 -21q-4 -7 -5 -12q0 -1 -1 -8q-1 -4 -10 -23q-1 -10 -3 -17q-17 -25 -20 -32q-13 -25 -28 -25q-18 10 -13 35l1 6q10 18 10 22
l2 8q1 17 -1 23q-1 2 -1 4l19 40q2 10 8 27q0 23 1 27q13 36 23 68q8 14 27 66q19 46 34 59q18 21 35 21zM259 1331h4q21 0 19 -43v-5q-1 -6 -10 -27l-1 -1q-1 -6 3 -26q0 -17 -2 -24q-1 -5 -9 -24l-1 -5l-5 -46l-8 -23l-1 -3q-1 -8 -2 -17q-1 -2 -8 -18l-2 -20
q-5 -11 -8 -20q2 -8 0 -15q-2 -10 -12 -25q0 -6 3 -20q-2 -7 -5 -12v-3q-8 -27 -13 -27h-2q-6 0 -9 20q0 2 -18 27q1 2 -1 5q3 11 5 18v1q1 5 -1 30q2 9 -8 41q-1 20 -13 28q-10 6 -5 30q-4 16 -2 24l1 5q4 23 14 41v23l1 3q11 41 39 74q36 34 57 34z" />
    <glyph glyph-name="numbersign" unicode="#" horiz-adv-x="611" 
d="M623 1095q29 0 29 -12q3 0 0 -13q-2 -12 -21 -39q-3 -7 -3 -9l-2 -19q-1 -6 -25 -58q-13 -53 -16 -53q-10 -13 -17 -27l-31 -49q-6 -6 -15 -43q-21 -31 -21 -32q-1 -5 8 -17v-6q-3 -17 -29 -35q-7 0 -18 -17q-4 -8 -26 -45l-18 -30q-3 -3 -3 -5q1 -10 10 -10q4 -1 7 -1
l21 8q0 2 45 4q17 6 46 12q19 8 29 9q15 9 45 14q20 0 19 -5l-1 -3q0 -3 -28 -17q-4 -6 -47 -24q-10 0 -36 -25q-13 -7 -26 -7q-18 -12 -26 -12t-22 -10q0 -3 -34 -7v0q-3 0 -7 1q-4 0 -26 -12q-27 -11 -28 -20q-13 -29 -73 -104q-4 -5 -9 -19q-13 -14 -13 -16q-1 -6 -2 -10
q-20 -25 -34 -38q-2 -1 -17 -22l-4 -1h-2q-1 0 -2 2q3 13 14 24q1 4 18 31q1 6 8 9q1 7 6 11v2q4 16 13 25q8 22 16 31q11 21 25 52q9 13 11 17l1 2q0 6 -5 6v0q-11 0 -28 -12q-17 0 -32 -15q-12 -7 -19 -7h-2q-7 2 -9 2h-2q-3 0 -30 -19q-19 -10 -27 -12l-2 1h-4
q-6 0 -20 -11q-17 -11 -19 -20q-5 -5 -16 -25q-14 -17 -23 -17q-11 7 -9 17q-4 5 -7 5h-1q-15 -4 -25 -8q-9 -7 -17 -7h-1q-12 0 -12 27q-2 0 1 19q4 23 28 54q17 17 26 17q8 4 23 15q4 2 9 2q11 -3 13 -3q9 0 27 20q25 47 27 59q1 4 13 28q1 6 9 25q-1 6 -5 6
q-13 -6 -36 -10q-17 -9 -30 -14q-12 -10 -32 -15q-3 -1 -25 -24q-7 -5 -41 -16q-19 -19 -33 -28q-27 -30 -35 -30h-4q-5 0 -11 1l-13 -2q-20 2 -16 23q4 18 32 49q1 2 16 26q12 15 31 23q24 17 45 27q35 40 52 40q14 0 29 15q11 10 18 10l10 -2q2 0 17 7h3q12 0 27 10
q8 3 27 5q23 7 24 11q3 2 11 22q11 9 11 13l1 3q-2 9 -2 10q1 3 12 21v5q11 35 21 52q12 26 17 44q11 17 12 25q1 13 4 29l9 30q2 25 3 29l1 3q7 37 56 66q17 8 25 8q15 0 19 -17v-2q-8 -30 -14 -42q-1 -9 -2 -16v-2q-4 -16 -21 -52l-1 -4q-1 -13 -2 -17q-2 -12 -17 -38
q0 -2 -13 -25q-2 -12 -21 -43q-14 -34 -25 -50q-9 -18 -21 -41q-2 -1 -2 -4q1 -4 3 -4q10 0 22 -1q24 2 39 3q36 -1 57 -3q4 0 18 6q12 0 18 12q2 7 23 43q7 21 23 49q5 11 13 36q19 27 25 56q9 40 15 45q10 11 12 17q2 15 1 22v10q10 25 28 40q22 27 37 27zM328 664
q-12 1 -14 1q-28 -4 -38 -12q-20 -3 -25 -7q-8 0 -21 -27q-12 -17 -24 -41q-18 -23 -24 -44v-1q-1 -6 4 -6q19 9 46 13q4 0 24 14q6 2 10 2h2q13 -3 16 -3q18 5 19 5q11 -1 14 -1q20 0 39 11q12 10 20 28q0 2 23 47q0 2 12 19v1q1 7 -18 7h-2h-8h-13q-27 -6 -42 -6z" />
    <glyph glyph-name="dollar" unicode="$" horiz-adv-x="749" 
d="M610 1165q14 0 13 -24l-1 -5q-6 -17 -10 -30q4 -25 4 -27v-2q-1 -2 -7 -16v-2q-1 -3 -3 -19l-8 -20q-2 -7 -3 -18l-6 -15q0 -4 4 -6q4 0 25 16q7 6 32 15q16 12 44 20q38 27 52 27q0 1 12 3h9q8 0 46 16q31 15 47 24q4 3 8 3h2q16 0 13 -30q0 -3 -1 -7q-11 -39 -45 -68
q-10 -5 -13 -5q-6 0 -18 1q-35 0 -78 -38q-27 -17 -42 -17q-30 -5 -44 -16q-16 -8 -42 -25q-16 -5 -25 -11q-17 -13 -31 -19q-6 0 -35 -72q-9 -12 -13 -23q-3 -11 17 -15q-1 -2 11 -3q8 0 33 5q17 -10 23 -10h9q12 0 12 -17q2 0 -9 -41q-6 -25 -53 -73q-18 -24 -45 -51
q-13 -25 -36 -42q-34 -35 -35 -37q-15 -23 -53 -55q-20 -23 -25 -23q-10 -13 -24 -26q-23 -20 -26 -28q-3 -15 -6 -25q-1 -5 -20 -34l-29 -58q-7 -7 -9 -16l-3 -13q-3 -7 -27 -45q-6 -9 -8 -16q-2 -19 -3 -22q-5 -16 -36 -52q-20 -28 -36 -28q-29 13 -24 33q3 10 21 37
l17 48q3 10 24 40l18 42q1 5 -1 7q-5 0 -23 -21q-6 -5 -28 -19q-22 -25 -29 -29q-24 -9 -38 -29q-11 -15 -43 -33q-52 -41 -58 -48q-30 -13 -45 -27q-31 -26 -50 -36q-23 -26 -40 -26q-5 -1 -40 -32q-26 -17 -59 -37q-28 -21 -33 -21l1 3q0 4 23 25q10 19 45 49q6 5 29 30
q25 20 38 38q10 10 28 23q5 9 35 29q8 8 27 32q27 21 32 26q13 22 46 41q34 26 58 49q26 13 31 17q26 30 45 37q8 7 25 28q16 11 34 19q8 6 12 18q27 27 45 35q8 6 16 25q2 4 29 44q8 25 14 30q3 5 5 16l1 1v5q9 20 20 36q5 11 18 43q18 27 22 42q4 13 -38 19q-47 0 -52 9
q-17 19 -10 47l2 4q6 27 52 70q2 7 41 38q8 12 23 20q22 7 33 21q8 13 43 27q22 15 25 26q7 17 8 23l3 8q0 2 -1 3q7 13 8 18l1 4q0 1 2 17q1 3 8 19v1q1 3 3 19v1q0 2 14 28v1q4 23 6 27l1 2q7 26 41 60q17 13 31 13zM388 769q-2 -6 4 -8q2 1 15 3l5 -1q12 5 18 26l1 5
q0 1 -2 3h-3q-10 -7 -29 -17q-8 -7 -9 -11zM451 651q0 1 -1 1q-12 0 -19 -19q-1 -5 -28 -54q-11 -22 -13 -31v-5h1q6 0 37 33q17 16 33 41q10 12 26 28q2 3 2 4q2 4 -5 8q-5 0 -33 -6zM200 338q-1 -3 6 -6q5 2 7 6q0 5 -2 5h-1q-10 -3 -10 -5z" />
    <glyph glyph-name="percent" unicode="%" horiz-adv-x="745" 
d="M681 1174h4q18 0 14 -53q-15 -41 -29 -58q-16 -20 -25 -51q-14 -30 -26 -41l-21 -41q-15 -30 -30 -52q-21 -40 -30 -52q-15 -13 -33 -53q-17 -28 -44 -64q-17 -24 -35 -59q-59 -69 -64 -90q-3 -12 -50 -83q-37 -46 -43 -69q-4 -5 -17 -30q-19 -19 -21 -27q-2 -1 -17 -22
q-20 -18 -21 -20q-5 -20 -32 -38h-6q-2 0 -18 11h-1l-4 -2v-4q-4 -7 -5 -10q13 -18 12 -19q-13 -22 -26 -34q-2 -2 -23 -11q-3 -4 -4 -5q1 -18 -1 -23q-1 -6 -15 -18l-3 -8q-1 -11 -1 -12q-5 -6 -18 -12q-5 -7 -11 -22q-3 0 -13 -27q-8 -13 -33 -40q-2 -6 -38 -38
q-37 -43 -59 -77l-8 -5h-1q-7 0 -5 6q2 8 22 34q24 53 28 53q1 1 21 22q10 17 23 47l45 57q7 6 15 21q10 5 26 26q6 4 6 5l2 6q1 2 -7 7q-2 6 1 14q0 4 32 41q3 10 23 26q3 5 9 9v2q-3 4 -1 11q10 21 16 21q1 3 2 3q5 17 5 23q4 7 34 47q23 26 28 42q12 15 34 51
q14 17 41 59q5 5 19 42q19 37 33 56q20 20 76 108q27 35 29 39q5 20 28 53q11 17 21 38l29 45q9 7 29 56q15 21 20 39q34 74 47 87q20 39 45 55q14 8 20 8zM326 1157l24 -8q16 0 30 -16q16 -10 10 -26q3 -9 12 -37q2 -27 13 -52q-2 -6 -2 -7t-6 -20q-1 -2 5 -28q1 -17 1 -20
l-7 -20q-3 -19 -6 -26l-10 -20q0 -7 -2 -12l-1 -6q-4 -13 -34 -43q-10 -18 -47 -48q-14 -22 -52 -46l-33 -29q-42 -17 -60 -17q-21 -9 -30 -9q-7 0 -26 8q-21 0 -35 14q-19 12 -16 23q-2 13 1 24l1 2q0 4 11 25v19q10 35 21 47q12 9 24 38q15 18 30 43q0 1 42 50
q11 19 66 66q17 11 20 17v2q0 2 -6 16q-2 11 2 25v1q17 52 54 69zM161 802q-5 -20 7 -26q2 0 16 1q12 -2 17 -2h1q9 0 36 19q22 7 33 21q17 18 23 39q7 20 9 24q1 8 3 22q11 21 12 24q3 11 -9 38q-2 34 -9 34t-24 -24q-31 -30 -53 -62q-29 -34 -33 -52q-6 -17 -25 -50z
M533 636h2q29 0 36 -29q26 -32 20 -54q1 -5 -3 -16v-4q-13 -29 -24 -59q-1 -2 -27 -62l-1 -5l-5 -26q-1 -8 -19 -35q-11 -40 -55 -102q-13 -22 -43 -49q-2 -7 -50 -54q-10 -8 -27 -15q-2 -2 -2 -3l-1 -6q0 -2 -10 -9q-7 -21 -44 -33q-12 0 -18 7h-2h-2q-15 0 -14 10
q1 1 -3 3l-4 -1q-20 3 -18 10q-2 4 -2 8l2 3q2 8 12 11l2 1q5 -3 8 -3q6 0 9 4q-2 7 -9 7l-5 -1l-1 4q4 15 11 23v0q0 1 -3 6l1 1q0 2 1 3q0 12 3 26l16 33q1 6 2 9l4 14q7 11 13 27q-1 7 3 18l2 7q1 6 15 23q0 4 2 6q-1 3 0 7q12 19 27 55q3 7 22 39q7 19 34 50
q13 17 20 42l30 37q14 25 48 54q11 8 47 18zM352 261v-2q-6 -25 -7 -27l-4 -19q-2 -5 2 -5q7 0 37 42q37 60 38 65v1q3 12 4 17l26 57q4 17 26 58q8 16 8 19l2 4q9 48 2 48h-4q-8 0 -20 -41q-15 -22 -27 -48q-28 -42 -34 -59q-7 -9 -19 -40q-3 0 -18 -47q-9 -13 -12 -23z
M185 355v-1q3 -4 3 -5v0q-15 -10 -16 -13l-1 -7q-2 -6 4 -6t9 11q8 5 9 10l-3 5l3 5q-4 3 -3 4q-5 -1 -5 -3zM280 180v-1q-2 -5 3 -5q1 0 3 2q0 5 -4 5q-1 -1 -2 -1z" />
    <glyph glyph-name="ampersand" unicode="&#x26;" horiz-adv-x="753" 
d="M870 1117q12 -4 4 -20q-1 -3 -15 -32q-66 -98 -70 -105q-4 -16 6 -16h3q5 0 36 17q9 2 41 16q21 0 37 10q13 0 59 23l5 1h1q3 0 25 -7h1l28 6q12 0 9 -20q-25 -45 -39 -59q-32 -33 -58 -45q-47 -19 -51 -19h-27q-9 0 -68 -24q-11 -3 -47 -12q-12 0 -44 -27q-4 0 -28 -39
q-8 -20 -9 -23l-29 -39l-8 -21q-2 -6 -30 -43q-1 -1 -25 -39q-12 -31 -15 -40l-7 -12q-30 -53 -55 -92q-1 0 -24 -45l-4 -9q-10 -16 -14 -24q-8 -18 -11 -24l-43 -72q0 -2 -1 -3q-10 -16 -12 -21l-2 -4q-6 -18 3 -18h3q22 10 28 10q28 -10 19 -27v-2l-20 -27l-5 -8
q-56 -59 -70 -59q-19 -4 -23 -13q-5 -6 -26 -18q-8 -9 -11 -14q-3 -11 -5 -14q-1 -3 -13 -21q-6 -17 -10 -25q-9 -16 -31 -42q-3 0 -17 -21l-1 -1q-1 -2 -4 -15q-50 -74 -61 -86q-5 -9 -39 -46l-57 -76q-1 -3 -36 -43q-28 -41 -54 -67q-22 -21 -37 -51q-48 -61 -63 -68
l-6 -5v1q3 5 16 33l51 78q37 69 42 69q45 64 51 75l10 19q3 8 28 41q2 4 3 4q1 2 6 14q14 22 18 27q16 14 21 15l4 5q-6 10 -5 14l7 14q14 16 20 16q4 -12 8 -12h4l4 4l1 2q5 9 -4 11q-3 5 1 14q3 2 3 3q-7 4 -4 8q4 7 6 12q-1 1 1 6q9 10 17 24q1 4 5 13q4 0 15 20
q1 1 1 11v1l22 15l2 2q3 13 -13 13q-7 -2 -9 -7q-5 -9 -6 -12q-21 -15 -29 -15h-4q-10 4 -12 4q-7 0 -21 -5h-4q-37 4 -35 10q-12 2 -14 15q-5 39 -3 46l2 8q3 6 31 43q13 26 39 55q22 37 48 65q11 21 97 115q31 45 53 65l1 2q9 16 -25 19q-23 11 -25 16h-12l-11 -3
q-2 0 -10 10l-23 10q-38 21 -45 40q-18 25 -12 37l2 5q27 52 41 64q38 38 77 70q12 8 39 17q43 35 60 35q14 0 59 28q27 9 32 12q30 21 33 21l28 9q17 8 38 17q3 2 26 10q22 15 55 23q21 6 36 35q12 17 44 76l45 59q53 49 88 49h2zM325 655q-7 -16 16 -25q-1 -2 14 -3l10 1
q3 0 13 -12q8 0 33 -9h3l6 1q2 0 16 -10q4 0 5 -1q13 4 23 5q12 -2 17 -2q13 0 34 35q9 11 16 24q3 4 14 31q22 31 36 58l2 3q2 10 -4 10q-31 -14 -49 -15q-25 -16 -35 -16q-6 0 -50 -20q-18 0 -79 -31q-32 -8 -41 -24zM368 710v-1q0 -1 1 -5h3q1 0 5 4l2 3q-1 0 -3 3h-3
q-1 0 -5 -4zM194 201q-8 -14 6 -39q7 -2 13 -4q33 19 37 19q14 8 27 34l8 20q53 94 68 107q11 19 12 19l2 7q8 14 26 46q12 27 7 27h-5q-23 -18 -48 -53q-4 -8 -89 -103q-39 -45 -47 -61q-14 -11 -17 -19zM357 161q-1 -4 3 -4q4 1 8 6l2 1q0 2 -1 4h-2q-6 0 -10 -7zM233 99
l-3 -6q-1 -4 3 -4q2 0 7 7q3 6 -2 6h-3q-2 -1 -2 -3zM233 45v-2q-2 -3 2 -4q2 1 3 1l2 3q0 1 -2 2h-5zM171 -25l-1 -2q-1 -8 3 -8q9 4 13 11l1 3q-3 6 -7 6h-1q-3 -1 -8 -10z" />
    <glyph glyph-name="quotesingle" unicode="'" horiz-adv-x="469" 
d="M400 1372l4 -1q19 -4 8 -48l-1 -5q-3 -6 -16 -25v-1q-3 -6 -3 -27q-5 -17 -7 -24q-3 -5 -16 -23l-2 -5l-14 -45l-13 -22l-1 -3q-3 -8 -6 -17q-1 -2 -12 -17l-5 -19q-8 -11 -12 -19q-1 -9 -4 -15q-4 -10 -17 -23q-1 -6 -1 -21q-4 -7 -8 -11q0 -3 -1 -4q-13 -25 -18 -24h-2
q-5 2 -4 23q1 2 -10 31v5q5 11 9 18v1q2 4 6 30q4 9 2 44q3 20 -7 31q-7 9 2 32q1 17 4 25l2 5q10 22 22 39l6 23l1 3q20 39 54 67q40 27 60 22z" />
    <glyph glyph-name="parenleft" unicode="(" horiz-adv-x="865" 
d="M477 1469q5 -9 23 -9l14 1q-1 -3 14 -5h10q5 0 28 8q9 0 24 2q7 -9 20 -9q10 0 20 2q13 -3 17 -3l32 6q12 -17 32 -17q17 4 19 4q13 -18 38 -18q9 0 23 4q12 -1 20 -1l47 5q20 -5 21 -5t21 1l10 -1q3 0 60 10q6 -4 27 -6q7 -9 7 -10q-42 -35 -113 -49q-53 -11 -62 -11
l-39 15h-4q-9 0 -47 -10q-68 0 -92 11q-10 1 -17 1q-4 0 -13 -1q-13 2 -26 2q-14 -6 -16 -15q-1 -10 -1 -11q-3 -11 -25 -46q-1 -5 -1 -14q-7 -16 -24 -34q-44 -82 -50 -113q-23 -50 -63 -123q-18 -19 -21 -33q-1 -6 -2 -22q-15 -44 -52 -126q-4 -23 -30 -65
q-11 -32 -52 -96q-6 -7 -23 -51q-21 -33 -37 -89q-16 -42 -41 -76q-33 -78 -37 -98q-26 -42 -29 -55q-1 -7 -1 -26q-2 -10 -33 -68q-15 -34 -19 -48l-2 -17q-18 -55 -36 -89q-3 -16 -23 -56q-7 -33 -28 -56q0 -3 -6 -16q-3 -24 -4 -30q-1 -4 -32 -49q-2 -5 -3 -10v-3
q3 -8 12 -8q33 11 112 27q14 9 147 30q21 5 44 5q18 -1 19 -1q65 17 140 17q25 6 80 13l23 -3q47 9 61 9h6l-1 -1q-24 -16 -56 -29q-5 3 -34 4q1 3 -11 3q-4 0 -18 -3l-2 1q-23 0 -58 -26l-25 -10q-10 5 -18 5h-1q-18 0 -41 -14q-10 2 -14 2h-7q-6 0 -17 -5q-18 8 -24 8h-12
q-19 0 -60 -34q-10 5 -22 5q-10 0 -41 -12q-35 0 -77 -43h-10q-1 0 -1 1q-38 0 -107 -64q-68 -22 -86 -22q-30 0 -63 14q-10 12 -8 21q1 6 28 54q2 12 34 59q3 13 36 65q4 19 25 54q1 6 1 15q3 12 22 61l1 1q1 5 0 12q14 41 37 89q2 12 17 55q6 32 42 83q2 5 3 10l5 21
q1 7 2 19l49 102q7 35 50 106q3 0 24 73q26 33 45 71q16 14 41 75q5 27 25 57q7 14 27 87q1 8 41 78q2 9 4 11q-5 14 -4 17q8 37 54 133l34 99l4 42q3 19 29 35q0 2 8 21q-1 9 0 16l1 5l4 8q-3 39 -1 46q4 20 32 45h2q2 0 2 -1z" />
    <glyph glyph-name="parenright" unicode=")" horiz-adv-x="758" 
d="M834 1469h1q11 -11 30 -11l-1 -9q-13 -24 -14 -30l-1 -4q4 -8 7 -19q-10 -15 -30 -23q-2 0 -8 -10q-1 -8 22 -9q6 -10 5 -15l-1 -5q-15 -18 -20 -45q-8 -11 -8 -15l-2 -9l1 -31q-9 -30 -36 -30q-7 -3 -8 -9q-1 -5 14 -16q6 -13 4 -22l-6 -9v-7l-3 -11q-2 -12 -2 -15
q-3 0 -15 -15q2 -35 -1 -48l-2 -13q-2 -7 3 -36v-3l-17 -42q4 -37 3 -44q-2 -8 -16 -48q-3 -33 -5 -43q-13 -50 -22 -76l-10 -50q-2 -13 -1 -38q-18 -33 -20 -43l-3 -13q-1 -6 0 -13q-3 -15 -47 -84q-21 -79 -39 -105q-1 -4 -38 -60q-19 -40 -38 -76q-3 -16 -60 -128l-8 -25
q-1 -35 -3 -45q0 -2 -8 -25v-1q-2 -11 -1 -23l-12 -33q-4 -29 -5 -32q-5 -27 -81 -77q-21 -11 -97 -17q-3 -2 -38 -6q-19 1 -34 1q-35 -5 -46 -5h-18q-8 0 -90 -20q-8 0 -32 -3q-7 0 -68 2q-6 0 -37 -3q-27 1 -46 1l-3 -1q-3 1 -6 1v2q34 27 68 27q17 7 30 16l8 -1h5
q13 0 50 14q21 0 69 39l56 23q62 39 69 45q49 17 77 48l3 1l16 -1q20 0 48 51q8 15 35 91q24 23 27 41q14 26 19 48q37 56 40 71q2 20 4 29l33 79q1 11 2 17q29 60 44 104v2q3 12 4 30q8 12 21 67q0 10 2 22l12 30l1 22q1 2 39 98l1 6q5 23 6 49q11 27 22 62q6 4 26 29
q1 0 1 1l1 1q-30 26 -28 38q-1 3 -1 4q4 22 29 59v2q2 7 -4 9l3 6l-2 61q4 4 5 7q2 27 -2 52q10 16 11 17q-1 13 -9 32l2 8q5 13 6 15l1 7q-4 26 7 82q-6 11 -13 11q-38 -14 -52 -14q-10 3 -14 3q-10 -3 -14 -3q-1 0 -9 1q-9 -4 -13 -4h-2q-8 7 -15 7q-21 0 -32 -14
q-13 -8 -25 -8h-6q-25 2 -28 2q-6 0 -39 -7q-22 1 -28 1q-5 0 -41 -9h-6q-21 0 -37 25q9 5 45 15q2 0 3 -1q1 0 8 1l23 -1q24 11 33 12l8 -2h1q5 0 30 8q1 0 9 -1q43 5 60 18q30 11 43 11q10 -4 16 -4l31 9l2 -1q14 7 78 9q1 2 13 4q8 -5 19 -7q16 0 43 19q1 0 22 -7h9
q21 0 38 8zM788 1337q-1 -5 -2 -7v-4h2l8 1l2 10h-10zM708 1241l-1 -5q5 -7 4 -12q-3 -3 -3 -4q12 -10 20 -10q23 0 28 9l-1 2v2q1 1 19 8q7 6 7 7q3 15 -18 20q-4 0 -10 7h-2q-32 -6 -34 -15q-1 0 -9 -9zM700 1141q-10 -10 -11 -17l2 -1h4q12 0 18 12v1q0 2 -5 5h-8z
M669 1092q5 -4 9 -4q6 0 14 17q-3 8 -6 9q-12 0 -17 -22z" />
    <glyph glyph-name="asterisk" unicode="*" horiz-adv-x="670" 
d="M619 1435q20 0 23 -21q0 -1 -1 -3q-4 -14 -6 -22l-3 -9q-4 -16 -51 -65q-15 -23 -29 -39q-43 -42 -46 -50q-1 -7 19 -7q11 -5 15 -5h8q12 0 41 12q6 0 7 1q36 -4 27 -36l-1 -2q-9 -33 -41 -58q-26 -13 -41 -15h-6q-16 8 -19 8h-5q-19 0 -37 -19q0 -2 -2 -4v-1
q-3 -19 -3 -22q-8 -20 -35 -55q-22 -18 -33 -18q-10 0 -27 24q-6 13 -2 34q-6 6 -7 6q-35 -25 -37 -32q-14 -23 -47 -39q-27 -25 -31 -28q-29 -14 -43 -33q-18 -20 -36 -20h-1q-23 3 -17 20q-1 0 1 9l10 24q2 8 13 8q8 -4 9 -4q5 2 6 7q-5 6 -7 8q-2 6 -1 9q12 15 18 15
q17 21 27 21q14 8 32 29q19 9 25 16q14 10 15 15q2 5 -5 11h-2q-6 0 -20 -5q-5 0 -26 -4l-15 8v0q-9 0 -33 -13q-11 -4 -14 -4h-2q-16 4 -19 4q-21 -7 -28 -7h-1q-4 0 -5 5l1 3q2 5 17 13q27 26 46 26q2 0 11 -4h3q5 0 17 20q12 5 17 13q20 13 27 13v2q4 14 15 14l7 -2
q5 0 22 9q7 0 32 12q7 7 9 11q-4 15 -2 22q1 4 5 14q-1 6 0 9q0 1 1 1l1 6l4 13v4q8 19 15 31q28 32 44 32q15 0 21 -36q13 -19 12 -33t7 -14t27 25q8 6 36 50q41 44 48 59q27 33 46 33zM299 1172l-3 -3v-2h2l4 1v3zM259 1139l-3 -11q-1 -5 4 -7q10 3 10 5l1 2q-2 3 0 14
q-2 2 -6 3q-5 -1 -6 -6z" />
    <glyph glyph-name="plus" unicode="+" 
d="M670 1038q12 0 14 -36v-11q-4 -6 -5 -10l-2 -4q-4 -16 -6 -17v-1q0 -3 -8 -16q-2 -3 -5 -22q-2 -4 -13 -21q-1 0 -2 -4q-3 -10 -5 -14q-15 -24 -17 -29q-1 -3 -2 -5q-6 -12 -13 -19l-1 -2q0 -1 -1 -2q-2 -4 -12 -23l-7 -17q-13 -24 -19 -24l-3 -2v-2q1 -1 -3 -14
q1 0 0 -3q-2 -3 -3 -4q-1 -11 7 -11q14 1 25 1q2 0 10 -4q8 1 15 2q5 0 5 -1q1 1 2 1l5 -1q16 4 18 4q34 0 31 -6h5t12 3h5q2 0 8 -2q11 4 16 4q6 -2 8 -2h2q2 0 20 3l14 -3q9 1 10 1q6 -2 9 -2v0q13 4 17 4q9 -1 14 -6q1 -1 5 -1q18 6 27 6q9 -3 9 -7h1q1 0 10 4h2
q26 0 18 -22l-2 -4q-11 -25 -38 -42q-3 -1 -5 -1h-16q-6 0 -22 -4q-4 0 -11 1q-6 -1 -14 -1h-1q-4 0 -6 1q-8 -2 -30 -3q-22 1 -31 3q-4 -1 -6 -1q-3 0 -4 1l-18 -2l-3 1q-10 -2 -15 -2q-7 3 -10 3q-2 0 -13 -3q-10 6 -11 6h-5q-13 -4 -38 -6q-6 1 -13 1q-5 5 -10 5
q-9 -7 -16 -7h-2q-15 2 -17 3l-25 -6q-5 0 -18 -19q-2 0 -15 -24q-2 -2 -36 -56q-6 -12 -23 -33l-6 -14q-6 -17 -41 -60q-8 -19 -43 -65q-10 -10 -29 -40q-10 -16 -36 -39q-10 -8 -14 -8q-16 0 -14 18q2 2 19 27q2 7 21 43q6 13 21 37q17 30 33 55q1 3 14 23q14 34 36 71
q8 19 16 25q1 2 6 9q2 15 4 18q2 6 11 19v1q-4 8 -14 8v0q-4 0 -9 -1q-8 4 -9 4h-2q-13 -6 -20 -6q-1 -1 -8 -1q-5 0 -11 9h-1q-2 0 -12 -7q-2 -1 -3 -1q-11 3 -12 7l12 10v0q0 7 -2 7q-2 -1 -4 -1q-2 3 -5 3h-1q-8 -2 -10 -5q-2 -9 -1 -13l-1 -2q-1 -3 -12 -5q-8 0 -20 6
q-6 -5 -9 -5q-4 0 -6 12q-9 0 -6 6q-9 5 -8 9v1q2 4 20 11q6 4 10 4h2q6 0 13 1q10 0 8 -8l-4 -6q-2 -6 1 -8q13 8 14 12q2 3 8 5h1q1 0 2 -1q5 3 14 6q3 2 5 2q5 -1 7 -1q7 4 18 14q23 19 26 27q7 6 18 6l18 12q1 0 2 1q2 -1 4 -4l16 4l6 -4h3q5 2 12 12q17 9 25 9
q11 0 12 -14h2q1 0 5 5q-1 3 0 5q1 0 3 4v4q7 11 9 16q5 18 6 20q8 10 10 17l2 3q2 6 5 18q5 10 7 15q4 17 5 21l2 2q10 18 11 20q2 4 4 12l10 21q2 1 7 18q6 13 37 48q9 23 41 41q3 1 6 1zM553 757h-1q-1 -2 0 -2q5 0 6 2t-3 3q-2 -1 -2 -3zM412 726l-2 -2q0 -3 3 -3
q1 0 2 3l2 2q0 1 -1 1h-2zM538 714v-2q-1 -1 0 -3h4q1 0 4 4q1 3 -1 4h-1q-3 0 -6 -3zM477 692q-3 -2 -7 -10v-1q-1 -1 0 -1h3q7 7 9 7h1v2q-1 0 -6 4v-1zM595 684q2 -2 4 -2q3 1 5 5l-2 1q-5 0 -7 -4zM447 680l4 -1q0 1 5 3v1l-1 3h-1q-5 -3 -7 -6zM401 669l-2 -4
q2 -4 7 -8q1 0 19 20q0 6 -2 7h-2q-2 0 -9 -5q-7 -2 -11 -10zM444 678q0 -2 -6 -7q-1 -2 2 -5h3q2 0 2 1q1 3 -1 9l1 2h-1zM389 669q0 -1 1 -1v1h-1zM211 666v0q2 0 -1 -10h3q5 1 6 1h1q8 -2 5 -10q-2 -4 -12 -8h-3l-4 1q-5 -2 -13 -4l-6 1h-2q-3 0 -10 -1q-3 0 -2 11
q-2 1 -2 6q8 10 15 10v0l10 -2l6 3q2 -1 5 -1q0 1 4 3zM154 655q8 -4 6 -7l-6 -12q-4 -4 -12 -4q-6 -3 -14 -3q-2 0 -2 1h-4h-4q-5 -1 -6 -1q-4 0 -12 4q-10 -3 -18 -3q-3 4 -5 4h-1q-3 0 -19 -11q-13 -1 -23 -3q-3 0 -7 1q-2 0 -17 -3h-1q-17 5 -14 12l1 2q1 3 8 5
q5 -1 8 -1t19 6h4q5 -1 10 -1h2q12 2 34 3q20 10 25 10h4q6 -3 18 -3q-1 -1 0 -1q10 1 19 4q6 1 7 1zM479 649v-1l-2 -4l-3 -5q-1 -3 3 -4q5 0 8 7q0 1 7 7h-1q-4 1 -5 5q-5 -2 -7 -5zM437 644v-2h1q1 0 2 2v0h-3zM360 518q-2 -4 1 -5q4 0 6 5q1 3 -2 3h-1q-1 0 -4 -3z" />
    <glyph glyph-name="comma" unicode="," horiz-adv-x="469" 
d="M211 314l7 -1q34 -5 20 -53l-1 -6q-4 -6 -25 -28v-1q-4 -6 -3 -30q-5 -19 -9 -26q-2 -6 -22 -25l-3 -5l-19 -51l-20 -24l-2 -3q-5 -9 -9 -19q-1 -2 -16 -18l-10 -22q-11 -11 -18 -21q0 -9 -3 -17q-6 -11 -26 -25q-3 -7 -1 -23q-5 -8 -12 -13v-3q-21 -28 -29 -27h-3
q-10 2 -10 25q1 2 -21 35q0 2 -1 5q8 12 13 20v1q3 5 6 34q5 9 -2 48q4 23 -15 35q-14 9 0 35q-2 19 3 27l3 6q14 24 34 42l6 26l3 3q29 44 83 74q67 30 102 25z" />
    <glyph glyph-name="hyphen" unicode="-" horiz-adv-x="1318" 
d="M647 635q36 -6 62 -11l25 3q14 -2 19 -2q9 0 24 3q11 -1 21 -1h2q2 0 30 2h1q8 0 31 -11h6q32 7 48 7h2q4 0 34 -8q33 0 62 4q1 0 28 -1q40 3 48 3l20 -2q15 2 26 2q33 -10 27 -30q-8 -22 -67 -69q-9 -5 -49 -7q-1 -3 -15 -3h-30q-87 -8 -137 -15h-1q-11 0 -25 1
q-39 -3 -67 -3q-51 9 -113 11l-54 9l-41 -5q-31 4 -40 10q-3 11 -11 11q-5 0 -30 -9h-8q-17 7 -20 7l-12 -1q-34 0 -42 9q-10 -1 -16 -1q-8 0 -11 6v1l3 3l-3 2h-13q-14 -9 -16 -9l-14 1l-3 -1q-9 4 -10 4l-12 -1l-4 4q-2 0 -15 -3q-3 4 -5 4q-7 0 -33 -4h-9q-2 0 -17 5
q-28 -8 -32 -8q-30 7 -38 10q-10 10 -17 11q-2 0 -23 -13q-26 -7 -52 -7h-2q-39 3 -42 17l2 6q14 13 37 19q45 -1 69 -5q6 0 11 -7q11 8 13 8q29 6 36 6l59 -4q10 0 24 4q2 -1 4 -1q2 4 24 15q7 9 19 9h2q11 -5 14 -5h9q5 0 17 11q7 4 11 4h8q4 0 27 -8q91 4 92 9q19 8 35 8
q26 -5 67 -8q8 0 43 13zM342 591l-4 -4l-2 -10l-1 -2q1 -6 0 -10h3q2 0 9 9q4 12 -5 17zM282 583q6 -8 3 -17l-3 -5q4 -2 4 -3q6 2 6 4q7 25 -1 25h-1q-7 -3 -8 -4zM379 572q0 -2 -3 -4l-1 -5q-2 -1 2 -3h3l4 2q-3 9 -3 10h-2zM561 559l-1 -4q-2 -3 9 -5q7 0 16 8l1 6
q-3 6 -11 6q-12 -4 -14 -11z" />
    <glyph glyph-name="hyphen" unicode="&#xad;" horiz-adv-x="1318" 
d="M647 635q36 -6 62 -11l25 3q14 -2 19 -2q9 0 24 3q11 -1 21 -1h2q2 0 30 2h1q8 0 31 -11h6q32 7 48 7h2q4 0 34 -8q33 0 62 4q1 0 28 -1q40 3 48 3l20 -2q15 2 26 2q33 -10 27 -30q-8 -22 -67 -69q-9 -5 -49 -7q-1 -3 -15 -3h-30q-87 -8 -137 -15h-1q-11 0 -25 1
q-39 -3 -67 -3q-51 9 -113 11l-54 9l-41 -5q-31 4 -40 10q-3 11 -11 11q-5 0 -30 -9h-8q-17 7 -20 7l-12 -1q-34 0 -42 9q-10 -1 -16 -1q-8 0 -11 6v1l3 3l-3 2h-13q-14 -9 -16 -9l-14 1l-3 -1q-9 4 -10 4l-12 -1l-4 4q-2 0 -15 -3q-3 4 -5 4q-7 0 -33 -4h-9q-2 0 -17 5
q-28 -8 -32 -8q-30 7 -38 10q-10 10 -17 11q-2 0 -23 -13q-26 -7 -52 -7h-2q-39 3 -42 17l2 6q14 13 37 19q45 -1 69 -5q6 0 11 -7q11 8 13 8q29 6 36 6l59 -4q10 0 24 4q2 -1 4 -1q2 4 24 15q7 9 19 9h2q11 -5 14 -5h9q5 0 17 11q7 4 11 4h8q4 0 27 -8q91 4 92 9q19 8 35 8
q26 -5 67 -8q8 0 43 13zM342 591l-4 -4l-2 -10l-1 -2q1 -6 0 -10h3q2 0 9 9q4 12 -5 17zM282 583q6 -8 3 -17l-3 -5q4 -2 4 -3q6 2 6 4q7 25 -1 25h-1q-7 -3 -8 -4zM379 572q0 -2 -3 -4l-1 -5q-2 -1 2 -3h3l4 2q-3 9 -3 10h-2zM561 559l-1 -4q-2 -3 9 -5q7 0 16 8l1 6
q-3 6 -11 6q-12 -4 -14 -11z" />
    <glyph glyph-name="period" unicode="." horiz-adv-x="506" 
d="M237 264q25 -5 18 -26q-2 -9 -43 -35q-4 -17 1 -24l-6 -11l-1 -5l-1 -13q-18 -34 -42 -55q-9 -38 -85 -91q-15 0 -59 -18q-40 18 -21 88q-3 0 -2 6q8 9 10 12q1 17 3 26q14 33 45 59q6 27 66 54q68 27 92 27q3 -1 9 -1z" />
    <glyph glyph-name="slash" unicode="/" horiz-adv-x="804" 
d="M1358 2208q16 -76 -7 -133q-7 -15 -9 -18q-26 -37 -39 -36q-19 1 -48 -30l-66 -84q-46 -49 -66 -83q-35 -50 -50 -74q-35 -47 -51 -77q-56 -74 -81 -123q-20 -29 -40 -68q-12 -16 -29 -49q-26 -42 -53 -89q-43 -84 -61 -111q-63 -111 -71 -132q-10 -24 -64 -122
q-81 -165 -99 -189q-27 -52 -44 -83q-50 -115 -52 -115q-31 -68 -76 -159q-33 -80 -45 -93q-37 -75 -49 -94q-34 -73 -46 -94q-58 -119 -89 -180q-15 -27 -41 -79q-33 -68 -57 -117l-1 -3q-3 -8 -18 -28q-15 -27 -20 -37q-39 -89 -51 -102q-11 -13 -23 -42q-43 -72 -51 -92
l-9 -23q-25 -38 -33 -55q1 -3 -1 -7t-5 -8q-7 -9 -21 -31q-18 -34 -30 -48q-30 -57 -42 -56h-1q-3 4 -1 15l19 30q27 55 38 72q14 13 29 42l5 18q10 23 18 36q41 84 55 103q21 48 40 85l4 9l10 32q28 61 37 84l40 100l3 9q1 0 2 2h-1l5 11q113 277 117 277q30 78 36 97
l29 63q36 72 60 132q1 1 8 24q1 1 20 41q3 9 14 37q4 12 18 42q2 2 5 12q2 8 17 42q4 7 19 47l39 83q62 115 82 163q35 54 46 83q34 62 45 89q11 29 48 77q2 7 12 41v2q3 6 15 22q13 29 43 77q45 90 90 161q35 68 72 123q44 83 48 83q19 35 31 51q16 29 33 50q35 55 67 103
q69 93 91 135q59 64 80 91q76 100 119 98q19 -1 32 -30zM654 1127q-8 1 -19 -24q-11 -13 -13 -18l7 -2q12 -1 29 31q5 13 -4 13z" />
    <glyph glyph-name="zero" unicode="0" horiz-adv-x="655" 
d="M521 1087h2q28 0 37 -34q6 -7 11 -7h6q21 5 28 5h5q15 0 16 -20l-1 -3q-4 -14 -37 -56q0 -2 -2 -4q-3 -10 7 -82q5 -13 -6 -52q0 -9 -10 -63q-5 -17 -18 -55q-17 -56 -17 -66q-10 -26 -12 -29l-1 -6q-6 -20 -41 -83q-2 -8 -41 -77q-34 -59 -35 -63q-13 -25 -116 -136
q-4 -12 -60 -60q-16 -22 -156 -159q-63 -51 -100 -72q-62 -34 -92 -34h-7q-33 0 -33 42l8 28q16 49 38 84q20 38 61 114q8 11 20 22q6 11 8 16l2 11q10 25 37 71q18 22 48 75q26 36 49 75q1 4 38 53l37 59q20 18 30 48q35 39 52 75q18 21 47 69q18 23 43 59q50 52 52 60l1 3
q-2 8 -10 8q-2 0 -8 -1q-32 0 -20 61q-2 0 3 11q20 66 80 95q31 18 57 18zM130 322q-2 -9 -2 -11q-4 -4 -9 -16q-9 -5 -21 -30q-2 -5 -40 -67q-41 -85 -64 -114q-1 -1 0 -1l-3 -8v-1q-3 -11 5 -11h6q20 14 35 35q73 67 97 99q72 64 86 87q52 56 62 70q13 20 18 30l3 11
q8 14 19 26q40 67 70 130l4 20q2 6 11 22q3 11 5 17l1 5q2 6 11 26l4 27q2 2 12 27q3 9 21 106q-1 5 -7 5q-11 0 -24 -26q-14 -17 -38 -64q-7 0 -72 -108q-5 -19 -23 -34q-34 -43 -77 -109l-40 -61q-20 -28 -26 -50q-22 -27 -24 -32zM185 303q7 -2 6 -5l-2 -5q0 -3 -9 -5
q-5 3 -5 5l2 5q3 5 8 5zM521 1087h2q28 0 37 -34q6 -7 11 -7h6q21 5 28 5h5q15 0 16 -20l-1 -3q-4 -14 -37 -56q0 -2 -2 -4q-3 -10 7 -82q5 -13 -6 -52q0 -9 -10 -63q-5 -17 -18 -55q-17 -56 -17 -66q-10 -26 -12 -29l-1 -6q-6 -20 -41 -83q-2 -8 -41 -77q-34 -59 -35 -63
q-13 -25 -116 -136q-4 -12 -60 -60q-16 -22 -156 -159q-63 -51 -100 -72q-62 -34 -92 -34h-7q-33 0 -33 42l8 28q16 49 38 84q20 38 61 114q8 11 20 22q6 11 8 16l2 11q10 25 37 71q18 22 48 75q26 36 49 75q1 4 38 53l37 59q20 18 30 48q35 39 52 75q18 21 47 69
q18 23 43 59q50 52 52 60l1 3q-2 8 -10 8q-2 0 -8 -1q-32 0 -20 61q-2 0 3 11q20 66 80 95q31 18 57 18zM130 322q-2 -9 -2 -11q-4 -4 -9 -16q-9 -5 -21 -30q-2 -5 -40 -67q-41 -85 -64 -114q-1 -1 0 -1l-3 -8v-1q-3 -11 5 -11h6q20 14 35 35q73 67 97 99q72 64 86 87
q52 56 62 70q13 20 18 30l3 11q8 14 19 26q40 67 70 130l4 20q2 6 11 22q3 11 5 17l1 5q2 6 11 26l4 27q2 2 12 27q3 9 21 106q-1 5 -7 5q-11 0 -24 -26q-14 -17 -38 -64q-7 0 -72 -108q-5 -19 -23 -34q-34 -43 -77 -109l-40 -61q-20 -28 -26 -50q-22 -27 -24 -32zM185 303
q7 -2 6 -5l-2 -5q0 -3 -9 -5q-5 3 -5 5l2 5q3 5 8 5z" />
    <glyph glyph-name="one" unicode="1" horiz-adv-x="722" 
d="M686 965h5q18 -6 8 -40q-20 -52 -70 -149q-3 -10 -25 -55q-2 -5 -9 -24q-30 -57 -59 -124q-16 -30 -23 -30l-8 -8l-1 -2q2 -11 -3 -25q-42 -73 -48 -89q-15 -22 -36 -68q-20 -30 -65 -107q-19 -25 -47 -78q-6 -7 -15 -25q-1 -8 3 -13h2q19 0 28 -7q6 0 24 6q5 0 15 -3
q8 1 14 1h9q5 0 11 -4q2 0 65 -5l124 -2q27 4 30 4q18 0 13 -29v-1l-197 -41q-73 -14 -79 -14q-18 3 -23 3q-61 0 -143 -11l-55 -8q-6 0 -33 11l-178 26q-3 38 7 66q7 10 82 36l133 -1q10 0 48 -10h3q15 0 38 49q23 34 56 85q23 45 59 106q4 3 23 44q35 59 82 152l2 10
q9 24 41 84q7 22 28 62q6 18 0 18q-9 -5 -29 -22q-49 -27 -66 -44q-2 -8 -34 -15q-9 0 -24 -21q-42 -26 -54 -28q-7 -6 -18 -8h-1q-3 0 -8 1q-11 -3 -15 -7q-12 -10 -16 -10q-11 10 -10 17l5 10q-8 11 -11 11q-6 -5 -8 -5v3q2 5 16 10q12 13 31 13q0 2 3 2h1q2 0 6 -4
q10 15 21 21q4 8 55 23q24 25 47 37q22 28 49 46q44 43 61 47q7 9 38 30q28 25 61 63q43 40 64 40zM198 584q-1 -4 0 -4l-3 -6l-1 -4q-3 -10 1 -11l14 11l1 5q0 3 -6 7q0 2 -2 4q-3 -1 -4 -2zM101 561q16 -1 20 -1q2 0 13 1q5 0 7 -17l-3 -11q-3 -6 -15 -6h-17q-19 0 -20 15
v5q1 7 15 14zM132 63q0 -3 3 -8h4q2 0 3 4l3 4q0 7 -5 7q-6 -1 -8 -7z" />
    <glyph glyph-name="two" unicode="2" horiz-adv-x="1057" 
d="M888 1060q34 0 17 -60q-16 -56 -21 -68q-11 -26 -19 -44q-7 -21 -20 -51q-44 -92 -74 -142q-121 -205 -180 -267q-51 -72 -97 -126l-89 -112q-49 -63 -117 -134l-14 -17l-1 -4q-5 -12 0 -20q56 0 102 13h6q10 0 14 -22q4 -8 12 -8q23 0 73 -2q41 16 59 16q12 -5 19 -5h3
q25 8 29 8q67 -9 61 -22q6 0 3 -28h1q6 3 19 23q27 23 52 23h2l-1 -4l4 4h8q4 0 52 4h1q21 -9 35 -29l-1 -2q-7 -13 -9 -13l-3 -10l-1 -1q-15 -26 -20 -37q-20 -28 -61 -28q-1 -3 -17 -3q-54 5 -48 18q-4 0 -18 8h-1q-13 -8 -33 -14h-2q-3 0 -4 1q-18 -8 -46 -11q-1 0 0 1
q-2 -1 -4 -1q-6 0 -17 1q-14 -9 -108 -28h-5q-13 9 -18 9q-22 -13 -92 -22q-4 0 -68 -13l-10 8l-31 -15h-4q-2 0 -10 3h-4l-23 -6l-12 3l-35 -8h-29q-32 0 -29 33q-1 12 7 30q15 42 95 144l173 199l60 78q31 37 164 208q106 171 119 200l31 69q26 71 16 71l-3 7
q-57 -19 -84 -40q-34 -23 -107 -116q-70 -71 -100 -71h-3q-17 11 -6 39l4 8q16 42 100 144q31 43 97 101q21 16 111 79q21 18 77 34q3 6 73 17zM866 12h1q13 0 21 -19h10q2 0 19 7q83 -11 76 -27q20 -13 9 -40q-7 -16 -51 -38q-2 -1 -7 -1h-1q-5 0 -30 11h-15q-9 12 -13 12
h-4q-1 0 -26 -13h-15q-13 0 -19 -4q-19 4 -9 31q8 9 11 14q12 37 11 43q21 24 32 24z" />
    <glyph glyph-name="three" unicode="3" horiz-adv-x="619" 
d="M703 1093q60 0 43 -46q-8 -23 -41 -73q-52 -60 -79 -80q-10 0 -29 -36q-48 -51 -92 -90q-36 -28 -47 -42q-14 -12 -45 -28q-84 -61 -98 -74q-4 -5 -4 -8l-3 -5q-7 -21 57 -38q91 -16 79 -49l-2 -7q-14 -41 -151 -127q-3 0 -70 -43q-37 -20 -111 -70q-22 -12 -74 -57
q-7 0 -52 -41q-32 -30 -43 -62l-2 -6q-11 -33 18 -49q35 -25 28 -44l-3 -5q-15 -47 -91 -78q-11 -5 -24 -5q-21 0 -58 23q-29 41 -21 65q2 29 9 47q15 44 88 125q47 50 84 78q29 19 99 73q28 17 88 57q71 40 75 48v1q6 15 -24 19q-63 33 -51 68q5 22 10 36q12 32 109 118
q20 16 117 84q32 28 77 62q27 32 48 52l56 61q3 22 -26 22q-2 0 -16 -16q-40 -13 -53 -21q-15 -12 -46 -23q-11 0 -92 -38q-70 -30 -135 -30l-43 17q138 35 252 114q52 41 160 90q79 31 125 31h4z" />
    <glyph glyph-name="four" unicode="4" horiz-adv-x="625" 
d="M768 1275v0q22 -5 15 -38q-5 -23 -8 -37l-4 -21q-2 -9 -5 -18q0 -6 -2 -16q-16 -73 -48 -131q-11 -31 -26 -48q-64 -76 -98 -106q-35 -42 -71 -70q-20 -21 -60 -87q-19 -35 -63 -99q-9 -14 -15 -26q1 -13 9 -13q4 0 9 3q73 -12 118 -9q9 -2 37 -2q10 -8 10 -17
q-10 -43 -36 -70q-34 -34 -55 -35l-16 -1q-59 -15 -76 -28q-86 -51 -124 -93q-34 -31 -67 -77q-60 -72 -77 -110q-16 -19 -33 -55q-14 -21 -30 -57q-26 -46 -65 -87q-55 -49 -83 -51h-7q-15 -1 -13 30q6 26 56 102q22 40 53 83q12 21 44 64q10 18 43 64q52 88 114 179
q0 2 14 27q3 16 -13 16l-21 -1q-15 -2 -39 -4q-28 2 -40 2q-9 -1 -13 -2h-18l-6 -1q-18 -1 -53 -3l-26 8q-5 10 -3 19q5 24 35 56q40 41 74 43q36 17 47 18q6 4 27 30q11 8 54 38q65 52 74 52q12 1 40 29q34 23 63 47q9 0 26 21q32 22 49 45q44 68 51 100q19 45 67 134
q6 10 26 53q32 57 41 72q43 70 96 73q14 5 22 5zM245 581l-1 -7q-4 -12 7 -12q1 -1 7 -1q37 3 45 17q25 38 28 50q0 6 -5 6q-6 -2 -54 -36q-3 -4 -21 -8q-5 -4 -6 -9z" />
    <glyph glyph-name="five" unicode="5" horiz-adv-x="654" 
d="M474 1102q24 -2 30 -2q3 0 20 2q24 -4 31 -4q9 0 19 2q9 -2 22 -2q18 2 22 2q46 -4 62 -8q11 -12 7 -25q-9 -31 -66 -70q-21 -9 -24 -22q-8 -7 -19 -7q-17 7 -18 7h-9q-15 0 -31 -13q-9 -1 -15 -6h-3q-6 11 -22 20q-38 -1 -44 -1q-19 -9 -26 -32q-9 -22 -19 -33
q-60 -74 -67 -94q1 -16 9 -16h5l7 1q4 -3 14 -3q31 23 97 45q3 0 44 15q107 23 133 23q39 -6 26 -49q-6 -18 -37 -73q-6 -22 -30 -40q-48 -65 -81 -100q-59 -67 -154 -165q-38 -42 -137 -131q0 -2 -29 -29q-24 -26 -69 -62q-29 -37 -42 -37q-3 0 -12 3q-3 0 -18 -27
q-11 -9 -22 -9q-6 -21 -46 -43q-74 -64 -136 -92q-51 -43 -80 -60h-3q-10 2 -12 2q-5 -5 -18 -24q-6 -5 -41 -22q-3 -10 -27 -28q-26 0 -31 -15q-14 -20 -23 -20q-2 0 -14 10h-8l-1 -1l4 -9l-1 -5q-13 -20 -15 -20q-9 -6 -14 -6h-1q-5 0 -4 3q-4 0 -11 -17q-3 -6 -16 -12
q-3 0 -5 14v1q26 29 34 32q8 19 16 19l4 5v4q3 8 17 17q3 12 42 26q1 5 30 11l4 3v2q-5 12 -4 18q5 18 31 33q11 6 14 6h4q3 8 11 14q6 21 24 28q6 4 17 23l26 17h2q3 0 8 -7q4 0 17 2v1l1 10q7 16 32 34t63 48q22 4 38 18q8 11 56 49q4 5 57 48q112 100 123 118
q93 87 118 118q67 64 82 86q85 93 90 107q17 21 20 28q0 13 -9 13h-6q-15 0 -127 -37q-30 -17 -94 -33q-28 -5 -43 -6q-30 0 -52 29q-1 14 2 23q7 25 57 106q50 65 60 83q11 22 20 48q3 17 7 30q15 49 85 92q14 11 72 18zM-27 150l-1 -3l4 -1l1 2l1 2q1 3 -1 3h-2
q-2 -1 -2 -3z" />
    <glyph glyph-name="six" unicode="6" horiz-adv-x="551" 
d="M1086 1308h5q17 -7 12 -28l-3 -9q-7 -28 -52 -65q-27 -13 -69 -51q-54 -61 -180 -186q-101 -92 -129 -125q-33 -35 -74 -85q-46 -47 -124 -129q-63 -60 -186 -200q-33 -28 -46 -54q-5 -41 1 -49q17 -12 26 -78q2 -23 -5 -62q1 -6 -3 -21q-10 -26 -10 -28v-4
q-9 -23 -20 -23q-7 -4 -8 -10q-3 -10 -2 -29q-12 -23 -35 -55q-9 -19 -64 -77q-11 -5 -24 -22q-9 -7 -21 -12q-17 -21 -18 -24q-45 -46 -92 -71q-9 -4 -18 -7q-9 3 -8 4q-10 -1 -25 -7l-28 16q-15 0 -25 38q-4 15 3 51l2 6q2 9 4 9v3l2 8q1 5 5 12v12l16 32q3 11 24 49
q11 32 20 48q14 21 36 61q6 9 29 32q9 12 15 27q108 143 121 157q45 56 106 117q19 27 169 188q67 64 124 127q9 16 139 152q2 0 48 46q2 0 43 41q28 21 95 95q2 0 71 75q37 32 88 79q42 26 65 26zM-11 43q-5 -14 -5 -36q-4 -15 -17 -38q-2 -5 -6 -16l-2 -16l-3 -9
q-1 -6 3 -6q2 0 17 14h3q15 -11 17 -11q9 0 42 27q4 0 32 31q3 4 19 12q6 7 13 7q1 1 12 17h1l4 -11h3q0 4 4 7q2 8 -2 15l3 7q1 4 1 9q4 15 14 38q1 5 5 28l4 12q9 31 -11 100q-5 13 -10 13q-8 -2 -36 -41q-14 -20 -35 -46l-23 -33q-9 -8 -27 -52zM114 2q0 -2 -1 -4l1 -2
q1 0 4 4l-2 2h-2zM-99 -37q-2 -5 3 -10q12 4 16 15q0 3 -6 19h-3q-4 0 -10 -24zM-36 -144v-1q0 -5 4 -5q9 2 10 6l1 2q2 11 -3 11q-9 -4 -12 -13z" />
    <glyph glyph-name="seven" unicode="7" horiz-adv-x="834" 
d="M1108 1047q30 0 31 -23v-6q-11 -35 -85 -77q-97 -76 -109 -81q-49 -38 -97 -66q-81 -60 -174 -134q-39 -26 -115 -83l-1 -3q-2 -9 6 -9l78 8q31 0 106 19q19 5 125 8q2 2 24 4q46 -7 43 -17q3 0 2 -12l-2 -6q-11 -38 -85 -73q-16 -5 -24 -5h-5q-24 7 -27 7q-19 -2 -37 -3
q-24 1 -29 2q-112 -14 -147 -23q-13 0 -85 -10q-29 0 -94 -14q-16 0 -60 -40q-1 0 -44 -39q-72 -60 -80 -76q-13 -12 -46 -36q-2 -6 -50 -39q0 -2 -60 -47q-2 -5 -51 -43q-10 -17 -31 -35q-22 -27 -32 -36q-50 -65 -78 -96q-18 -15 -34 -48q-21 -32 -45 -92q-1 0 -4 -10
q-10 -30 -9 -67q-1 -3 -3 -11q-10 -31 -70 -61q-17 -6 -24 -6h-8q-25 0 -27 40q3 34 12 64q5 14 36 75q6 20 49 79q20 12 21 15q2 8 2 14q20 17 20 18q7 11 8 11l2 8v3q5 13 109 122q21 27 55 54q0 4 47 41q1 4 44 36q3 9 45 35q22 19 59 55q38 29 78 70q2 10 -7 10h-10
q-30 0 -103 -18q-22 0 -76 -13q-28 -8 -71 -14q-4 1 -5 5l2 6q17 12 66 38q51 35 106 56q82 33 105 33q13 5 128 21q27 7 43 25q26 20 76 54q8 8 69 50q2 3 52 37q200 156 259 189q0 1 52 41q3 9 -7 9q-92 -8 -167 -23q-39 0 -125 -21q-192 -28 -226 -28q-35 5 -27 28
q10 29 73 60q13 7 195 23q28 15 147 36q33 5 125 16q29 8 109 15q0 2 13 3q10 0 42 -1q8 0 32 2zM-71 74q-1 -5 6 -10q14 6 17 15q3 7 -5 13q-15 -11 -18 -18z" />
    <glyph glyph-name="eight" unicode="8" horiz-adv-x="654" 
d="M747 1254q27 0 26 -24l-2 -8q-3 -12 -5 -26q-8 -24 -16 -52q-3 -22 -4 -25q-14 -29 -30 -76q-47 -77 -56 -91q-29 -37 -47 -71q-32 -35 -52 -70q-30 -42 -71 -79q-2 -8 -35 -38q-19 -18 -64 -75q-9 -12 -23 -26q-13 -16 -23 -34q-23 -25 -40 -50q-24 -23 -47 -56
q-9 -6 -22 -51q-16 -40 -30 -84q-6 -8 -18 -50q-18 -31 -34 -69q-7 -5 -15 -33q-5 -3 -18 -28q-10 -14 -12 -20q-1 -10 -2 -14q-3 -13 -17 -20q-8 -10 -8 -13q0 -10 -1 -11q-14 -21 -23 -28q-4 -2 -4 -5l1 -7v-1q-3 -12 -22 -29q-11 -31 -27 -49q-17 -13 -21 -35
q-24 -44 -47 -53q-4 -5 -50 -23q-6 -2 -21 -2q-3 0 -15 11q-19 3 -18 9q-9 20 -8 27l1 4q6 19 3 30v1l7 10l3 11q0 1 -4 13l2 11q20 56 43 99q3 14 25 43q8 16 22 36q4 17 17 32q22 34 52 71q23 32 53 70q12 16 38 46l36 48q19 16 22 35l7 18q28 120 15 158q-4 36 -15 62
q-2 10 -1 14v3q4 17 45 51q32 16 46 16q17 0 27 -39q6 -11 9 -11v0q12 0 36 48q5 17 24 33q26 42 27 47l1 3q8 18 19 29q10 11 24 39q13 13 59 84q37 55 71 98q20 36 66 82q28 31 76 61q40 23 65 23zM410 754v-2q-1 -4 5 -4q2 0 12 15q17 11 19 22q8 10 24 22q12 20 43 61
q22 24 36 55q21 25 42 64q12 13 26 45q8 18 14 33l-2 4q7 14 9 21q0 3 -4 3q-9 -3 -22 -24q-8 -6 -18 -27q-1 -2 -44 -62q-54 -81 -112 -176q-14 -18 -19 -35q-4 0 -9 -14v-1zM648 1038q3 -3 5 -3h2q1 0 5 4v1q1 5 -2 8h-2q-6 0 -8 -10zM405 587h3q9 0 9 -6q-2 -6 -19 -12
q-8 1 -6 8q7 10 13 10zM463 204v-1q-1 -7 5 -7q1 0 3 2v1q2 8 -5 8v0q-2 0 -3 -3zM215 -4q2 -4 1 -7q-25 -31 -40 -31h-1q-2 0 -1 5q2 12 36 33h5zM155 -52h2q1 -1 3 -5q-6 -9 -16 -9q-3 1 -2 3l1 4q6 7 12 7zM747 1254q27 0 26 -24l-2 -8q-3 -12 -5 -26q-8 -24 -16 -52
q-3 -22 -4 -25q-14 -29 -30 -76q-47 -77 -56 -91q-29 -37 -47 -71q-32 -35 -52 -70q-30 -42 -71 -79q-2 -8 -35 -38q-19 -18 -64 -75q-9 -12 -23 -26q-13 -16 -23 -34q-23 -25 -40 -50q-24 -23 -47 -56q-9 -6 -22 -51q-16 -40 -30 -84q-6 -8 -18 -50q-18 -31 -34 -69
q-7 -5 -15 -33q-5 -3 -18 -28q-10 -14 -12 -20q-1 -10 -2 -14q-3 -13 -17 -20q-8 -10 -8 -13q0 -10 -1 -11q-14 -21 -23 -28q-4 -2 -4 -5l1 -7v-1q-3 -12 -22 -29q-11 -31 -27 -49q-17 -13 -21 -35q-24 -44 -47 -53q-4 -5 -50 -23q-6 -2 -21 -2q-3 0 -15 11q-19 3 -18 9
q-9 20 -8 27l1 4q6 19 3 30v1l7 10l3 11q0 1 -4 13l2 11q20 56 43 99q3 14 25 43q8 16 22 36q4 17 17 32q22 34 52 71q23 32 53 70q12 16 38 46l36 48q19 16 22 35l7 18q28 120 15 158q-4 36 -15 62q-2 10 -1 14v3q4 17 45 51q32 16 46 16q17 0 27 -39q6 -11 9 -11v0
q12 0 36 48q5 17 24 33q26 42 27 47l1 3q8 18 19 29q10 11 24 39q13 13 59 84q37 55 71 98q20 36 66 82q28 31 76 61q40 23 65 23zM410 754v-2q-1 -4 5 -4q2 0 12 15q17 11 19 22q8 10 24 22q12 20 43 61q22 24 36 55q21 25 42 64q12 13 26 45q8 18 14 33l-2 4q7 14 9 21
q0 3 -4 3q-9 -3 -22 -24q-8 -6 -18 -27q-1 -2 -44 -62q-54 -81 -112 -176q-14 -18 -19 -35q-4 0 -9 -14v-1zM648 1038q3 -3 5 -3h2q1 0 5 4v1q1 5 -2 8h-2q-6 0 -8 -10zM405 587h3q9 0 9 -6q-2 -6 -19 -12q-8 1 -6 8q7 10 13 10zM463 204v-1q-1 -7 5 -7q1 0 3 2v1q2 8 -5 8
v0q-2 0 -3 -3zM215 -4q2 -4 1 -7q-25 -31 -40 -31h-1q-2 0 -1 5q2 12 36 33h5zM155 -52h2q1 -1 3 -5q-6 -9 -16 -9q-3 1 -2 3l1 4q6 7 12 7z" />
    <glyph glyph-name="nine" unicode="9" horiz-adv-x="566" 
d="M557 1222l10 1q57 7 43 -60l-10 -50q-4 -20 -51 -114q-74 -123 -110 -164q-18 -19 -50 -68q-55 -66 -73 -104q-9 -12 -16 -31q-1 -8 -1 -13q-21 -46 -38 -65q-6 -1 -18 -34q-5 -16 -22 -35q-6 -27 -152 -248q-39 -45 -133 -160q-21 -19 -40 -48q-20 -15 -34 -27
q-4 -1 -8 -13q-13 -19 -33 -21q-15 -5 -43 -20q-1 0 -16 -17q-4 -1 -20 -33q-6 -3 -17 -27q-33 -41 -51 -43q-11 -15 -14 -31q-11 -15 -38 -24q-9 -1 -15 -30q-41 -39 -70 -48q-18 -8 -33 -21q-2 0 -19 -17q-3 -3 -5 -3l-22 -3q-3 0 -5 -3l-1 -7q-7 -19 -20 -21
q-15 0 -22 -1l-2 3q16 31 32 33l10 1q2 0 5 -1q4 1 11 16q5 4 16 6q2 -1 7 0q1 0 11 11v3q-3 11 -2 15q10 15 38 44q8 18 76 79q14 7 38 34q14 7 18 12h2q2 0 1 -9h3q10 15 17 15q6 8 7 13q-1 0 0 1q-5 -2 -20 -7l-1 3l1 4q0 4 20 26q16 24 48 58q19 30 50 48q1 4 15 21
q2 9 52 63q1 7 100 126q23 35 55 69q16 27 20 41q1 12 34 61q25 50 46 73q11 19 15 34q25 30 65 132q1 6 20 53q21 55 35 81q2 6 -9 10q-59 -35 -90 -38l-11 -1q-45 -5 -63 27l1 8l5 18q7 39 67 120q19 33 37 42q127 118 134 119q125 95 165 112q45 22 68 24zM237 894v-4
q2 -8 8 -7q40 18 83 69q26 25 41 46q3 2 16 17q11 14 64 39q17 13 18 24v1q2 10 -10 12q-8 -1 -60 -39q-14 -5 -142 -128q-16 -21 -18 -30zM557 1222l10 1q57 7 43 -60l-10 -50q-4 -20 -51 -114q-74 -123 -110 -164q-18 -19 -50 -68q-55 -66 -73 -104q-9 -12 -16 -31
q-1 -8 -1 -13q-21 -46 -38 -65q-6 -1 -18 -34q-5 -16 -22 -35q-6 -27 -152 -248q-39 -45 -133 -160q-21 -19 -40 -48q-20 -15 -34 -27q-4 -1 -8 -13q-13 -19 -33 -21q-15 -5 -43 -20q-1 0 -16 -17q-4 -1 -20 -33q-6 -3 -17 -27q-33 -41 -51 -43q-11 -15 -14 -31
q-11 -15 -38 -24q-9 -1 -15 -30q-41 -39 -70 -48q-18 -8 -33 -21q-2 0 -19 -17q-3 -3 -5 -3l-22 -3q-3 0 -5 -3l-1 -7q-7 -19 -20 -21q-15 0 -22 -1l-2 3q16 31 32 33l10 1q2 0 5 -1q4 1 11 16q5 4 16 6q2 -1 7 0q1 0 11 11v3q-3 11 -2 15q10 15 38 44q8 18 76 79
q14 7 38 34q14 7 18 12h2q2 0 1 -9h3q10 15 17 15q6 8 7 13q-1 0 0 1q-5 -2 -20 -7l-1 3l1 4q0 4 20 26q16 24 48 58q19 30 50 48q1 4 15 21q2 9 52 63q1 7 100 126q23 35 55 69q16 27 20 41q1 12 34 61q25 50 46 73q11 19 15 34q25 30 65 132q1 6 20 53q21 55 35 81
q2 6 -9 10q-59 -35 -90 -38l-11 -1q-45 -5 -63 27l1 8l5 18q7 39 67 120q19 33 37 42q127 118 134 119q125 95 165 112q45 22 68 24zM237 894v-4q2 -8 8 -7q40 18 83 69q26 25 41 46q3 2 16 17q11 14 64 39q17 13 18 24v1q2 10 -10 12q-8 -1 -60 -39q-14 -5 -142 -128
q-16 -21 -18 -30z" />
    <glyph glyph-name="colon" unicode=":" horiz-adv-x="557" 
d="M535 1063q10 0 11 -10q11 -9 5 -26q-1 -7 -4 -15q-13 -14 -19 -21q0 -1 3 -11l-1 -1q-8 -21 -10 -25q-1 -2 -2 -7q-9 -31 -51 -63q-18 -11 -29 -11q-7 0 -18 14q-16 8 -8 31q-1 0 1 6v3q15 38 18 38q8 0 17 13v1v14q5 9 17 23q13 18 14 18q30 22 56 29zM593 958
q5 -3 5 -5l-1 -1q-6 -6 -11 -6q-5 1 -4 4v2q2 4 11 6zM460 913q-3 -6 3 -6h1q6 0 9 7v2q0 5 -4 5q-5 0 -9 -8zM579 770h4q1 0 1 -1l-1 -4q0 -2 -4 -2q-3 1 -4 3l2 2q0 1 2 2zM183 360q18 0 20 -30q0 -4 -1 -11l-5 -15q-2 -6 -3 -11q-13 -27 -23 -53q-32 -50 -41 -61
q-29 -34 -67 -73q-34 -31 -70 -51q-10 -5 -38 -10q-18 -10 -29 -10q-15 0 -11 25q3 10 5 19q16 53 83 152q34 48 83 81q35 28 50 32q3 0 37 14q7 2 10 2zM65 217q-1 -10 5 -10q14 6 18 20q4 12 -3 12h-1q-6 0 -19 -22z" />
    <glyph glyph-name="semicolon" unicode=";" horiz-adv-x="557" 
d="M561 1066q25 -4 20 -22q-8 -20 -9 -25q-2 -4 -11 -35q-4 -9 -48 -61q-61 -54 -99 -54q-25 0 -16 49q19 44 69 96q19 23 61 45q18 7 33 7zM239 478h6q9 0 15 -15q-1 -7 -2 -11v0q0 -2 -7 -17l-2 -5q-4 -18 -4 -21q-14 -29 -18 -41l-2 -7q-1 -2 0 -3q-6 -8 -12 -21
q0 -1 -2 -10l-3 -8l-7 -25q-18 -42 -32 -57q-11 -13 -13 -19l-3 -9q-5 -12 -26 -40q-11 -26 -98 -115q-56 -54 -115 -72q-8 -2 -12 -2h-6q-19 5 -14 20l2 4q3 13 31 44q47 65 73 90q8 14 42 55q7 23 19 23q8 4 11 13q-1 11 2 33l-12 38l3 8q7 21 55 55q19 11 21 18q2 6 3 13
q19 29 32 43q48 41 75 41zM145 267v-2q-2 -7 6 -7q4 0 9 5v2q2 11 0 11h-2q-7 0 -13 -9z" />
    <glyph glyph-name="semicolon" unicode="&#x37e;" horiz-adv-x="557" 
d="M561 1066q25 -4 20 -22q-8 -20 -9 -25q-2 -4 -11 -35q-4 -9 -48 -61q-61 -54 -99 -54q-25 0 -16 49q19 44 69 96q19 23 61 45q18 7 33 7zM239 478h6q9 0 15 -15q-1 -7 -2 -11v0q0 -2 -7 -17l-2 -5q-4 -18 -4 -21q-14 -29 -18 -41l-2 -7q-1 -2 0 -3q-6 -8 -12 -21
q0 -1 -2 -10l-3 -8l-7 -25q-18 -42 -32 -57q-11 -13 -13 -19l-3 -9q-5 -12 -26 -40q-11 -26 -98 -115q-56 -54 -115 -72q-8 -2 -12 -2h-6q-19 5 -14 20l2 4q3 13 31 44q47 65 73 90q8 14 42 55q7 23 19 23q8 4 11 13q-1 11 2 33l-12 38l3 8q7 21 55 55q19 11 21 18q2 6 3 13
q19 29 32 43q48 41 75 41zM145 267v-2q-2 -7 6 -7q4 0 9 5v2q2 11 0 11h-2q-7 0 -13 -9z" />
    <glyph glyph-name="less" unicode="&#x3c;" 
d="M571 715q6 0 25 -2q19 2 27 2h1q33 0 28 -37q-7 -35 -70 -83q-28 -32 -49 -48q-53 -24 -63 -24q-25 0 -47 -28q-33 -23 -55 -42q-17 -15 -50 -15q-16 -9 -34 -23q-13 -6 -37 -10l-4 -4l-2 -8q-1 -4 28 -10q47 -25 68 -25q55 -14 115 -28l66 -18q2 -3 37 -17
q12 -16 28 -16l7 -1q11 1 21 1q21 0 45 -23q1 -10 9 -15h2q3 7 10 7q3 0 13 -7l15 -4h12q16 -15 24 -15q3 0 16 3q12 0 56 -25q12 0 23 -13q2 0 8 -4l18 5h4q12 -4 26 -6l7 1q15 -4 13 -16l-1 -4q0 -3 -16 -9l-13 1h-16q-29 3 -26 18l-2 1h-7q-19 -11 -29 -11q-25 4 -44 6
q-13 12 -54 12q-9 -3 -14 -3q-2 0 -24 11q-6 0 -27 -2q-4 2 -9 2l-19 -1q-9 4 -26 8q-4 0 -10 -1q-27 0 -48 11q-13 2 -11 9v2q1 3 12 5q-2 2 -1 3h-11q-7 -8 -8 -8h-5q-7 0 -22 -4h-8q-22 4 -57 8q-46 7 -81 18q-31 0 -103 17q-18 0 -69 13q-42 0 -56 9q-24 3 -54 24
q-14 15 -9 42l2 7q6 32 69 101q12 11 44 23q47 40 82 55q14 0 62 42q27 12 44 29q24 30 62 30q16 8 94 52q15 4 53 29q11 3 15 3zM650 245l-2 -5l1 -1l4 3q-1 2 0 3h-3z" />
    <glyph glyph-name="equal" unicode="=" horiz-adv-x="1191" 
d="M280 722q23 -5 26 -5h18q21 -8 64 -8q-1 -1 12 -1h18q5 0 28 -3h30q11 0 34 -9l75 -13l8 -1q16 6 21 6h3q8 0 26 -9l25 -6h7q1 0 19 4q43 -3 67 -3q20 2 23 2q13 0 50 -7h24l33 -5q35 6 39 6l43 -7h4q5 0 9 1l27 -3h2q7 0 36 7q6 0 8 -6v-1q-3 -8 -24 -16q-5 -2 -39 -5
q-15 1 -29 1h-3q-32 -5 -40 -5l-27 3q-18 -5 -61 -7q-3 -2 -14 -2h-1l-28 4h-3q-12 0 -47 -10l-5 -1q-19 7 -29 7h-3q-8 0 -29 -7h-1q-19 2 -22 2h-9l-7 -1l-26 5q-9 0 -46 -12q0 -1 -25 -2q-13 0 -40 8q-10 -2 -49 -8q-10 -3 -16 -3h-4q-14 2 -15 2h-11q-11 -1 -12 -1h-11
l-32 4l-33 -6q-10 2 -21 2q-6 0 -18 -2q-17 0 -54 10h-18q-22 0 -20 28l2 5q10 30 53 62q8 4 38 6zM201 418h3q7 0 30 -9h3q34 6 58 6q30 -7 42 -7l30 5q3 0 27 -8q2 0 31 -4q19 3 24 3h1q48 -8 50 -8q4 -3 48 -8q21 5 27 5q12 0 65 -10h41q10 0 41 -13q17 1 27 3
q16 -1 20 -4q10 2 20 2h2q3 0 17 -11h2l12 3h3q10 0 8 -7q-4 -12 -38 -19q-11 1 -17 1h-2q-58 -8 -87 -9q-1 -5 -74 -9q-8 0 -52 -9h-1q-6 0 -17 1q-22 -5 -29 -5h-15q-18 5 -19 5q-7 0 -26 -10q-20 0 -66 -10q-42 -4 -74 -12q-6 0 -37 -3l-22 5h-2q-4 0 -49 -9
q-23 0 -81 -5q-67 10 -66 15q-10 5 -35 11q-20 13 -15 26l2 6q10 31 81 67q23 9 73 19q19 6 36 6z" />
    <glyph glyph-name="greater" unicode="&#x3e;" 
d="M418 906h6q23 0 32 -37q-2 -11 30 -26q20 -31 25 -35q26 -8 37 -34q7 -7 31 -14q37 -40 56 -42q5 0 29 -27q32 -7 39 -23q5 -17 29 -17q54 -17 92 -56q31 -7 82 -30q32 -22 28 -39q-4 -24 -66 -76q-9 -11 -62 -11q-84 -36 -107 -45q-41 -31 -86 -43q-16 -11 -49 -21
q-14 -12 -40 -12q-31 -16 -48 -16q-52 -27 -108 -42q-43 -24 -68 -24q-40 -22 -61 -22q-11 -17 -39 -26q-36 -23 -90 -40q-27 -22 -48 -27q-8 0 -97 -60q-27 -13 -65 -45q-48 -39 -50 -39q-18 -8 -41 -31q-29 -34 -40 -34h-3q-4 2 -5 7q31 49 50 65q2 0 15 15q8 0 25 29
q2 10 41 44q2 10 52 51q23 29 57 42q5 0 34 27q24 16 30 16q10 0 16 9q8 12 25 17q17 3 58 30q30 15 66 28q1 5 36 14q26 18 54 26q22 16 62 27q4 0 50 21q12 6 75 21q7 7 42 14q16 13 50 17q29 12 73 39q7 0 11 10l1 4q1 6 -39 21q-39 27 -67 27q-43 22 -55 31
q-21 15 -60 35q-6 6 -36 21q-14 18 -31 23q-3 0 -23 27q-3 5 -28 13q-18 13 -19 28q-32 37 -26 70q10 50 67 102q30 23 51 23z" />
    <glyph glyph-name="question" unicode="?" horiz-adv-x="864" 
d="M809 1372q37 0 33 -56q3 0 1 -26l-2 -12q-35 -87 -55 -110q-12 -17 -25 -48q0 -3 -47 -51q-22 -39 -71 -89q-17 -26 -70 -72q-1 -3 -45 -45q-2 -8 -87 -91q-2 -8 -53 -42q-2 -8 -42 -36q-18 -19 -43 -44q-26 -36 -32 -41q-7 -5 -23 -9q0 -2 -19 -23q-2 -8 -42 -61
l-16 -11q-9 -20 -55 -67q-1 -6 -5 -17v-8q-4 -17 -19 -30h-6q-7 7 -1 34q5 15 10 24l-1 2v1q8 39 44 77q6 19 20 33q8 6 20 26q13 15 25 44q16 19 29 25q6 12 9 12h3q6 -12 8 -12q3 1 9 7l1 1q-1 9 -10 9h-1l-6 -1l-1 2v1q7 5 18 21q6 2 13 21q6 5 81 77q54 43 108 102
l39 39q20 15 40 43q13 10 40 52q42 44 46 64q3 15 33 47q24 40 27 57l1 2q2 9 -9 14q-41 -8 -65 -26q-35 -22 -64 -32l-82 -56q-52 -50 -92 -50q-23 0 -29 31q0 11 2 19l1 8q8 39 81 96q36 36 81 74q26 20 51 28q42 34 69 34q32 5 54 22q20 15 38 15q4 0 30 -9h4l39 11h10z
M-826 571v-2h6q-1 2 0 3q-4 -1 -6 -1zM-395 475h12q6 0 7 -5v-1q-4 -5 -13 -5q-12 2 -11 5v2q1 2 5 4zM74 175q40 -6 34 -36l-2 -8q-2 -14 -40 -88q-14 -18 -26 -29q-7 -17 -21 -24q-26 -16 -53 -25q-9 -15 -20 -15h-4q-18 0 -30 53q-6 17 -4 25l1 4q12 31 20 36
q15 11 19 29q25 35 49 57q18 14 47 14q23 7 30 7z" />
    <glyph glyph-name="at" unicode="@" horiz-adv-x="1052" 
d="M638 1047q24 -3 57 -4h10q34 -5 70 -18q7 -3 30 -9q1 -3 36 -23q19 -10 60 -58q32 -52 26 -83q0 -19 -1 -24q-1 -6 -10 -37q-2 -24 -4 -31v-4q-2 -8 -18 -48q-7 -7 -21 -52q-3 -5 -6 -16l-2 -10q-1 -7 -16 -31q-3 -14 -35 -56q-27 -40 -48 -61q-11 -11 -27 -14
q-5 0 -26 -21q-39 -21 -108 -44q-5 0 -30 -7h-3l-19 4q-15 -3 -16 -3q-30 3 -41 11q-21 24 -19 34q10 52 1 52q1 2 -6 4h-9q-6 0 -42 -18l-26 -9q-6 0 -39 -16q-2 0 -41 -15q-35 -4 -37 -10q-11 -9 -31 -13q-4 -4 -47 -12h-10q-4 0 -18 7h-6q-3 0 -7 -1q-4 0 -12 15v1
q1 4 4 8q-2 0 -5 10l2 9q2 8 12 16v3q4 19 10 25q23 25 24 28q1 7 22 15q5 0 11 13q4 3 9 14q32 33 34 33q11 18 48 53q2 0 28 28q31 30 50 43q19 15 65 60q26 17 41 38q10 10 61 28q7 0 31 18q3 2 9 4q8 -1 13 -1v0q5 0 20 4l3 -1h4q18 0 26 -13q21 -12 15 -43
q-4 -33 -6 -40q-3 -14 -9 -37q-1 -3 -2 -15q-10 -47 -71 -118q-38 -40 -43 -67q-10 -32 -10 -35v-1q-5 -22 30 -26q0 -1 6 -1l22 5q6 -1 9 -1q35 8 79 27l41 20q11 0 36 26q25 20 53 97q9 16 15 45q8 27 13 41q5 7 10 24q7 49 0 57q2 9 -21 53q-35 39 -57 49q-8 8 -31 16
q-5 7 -50 15q-6 5 -15 5q-9 -2 -10 -2q-18 8 -19 8l-13 -2q-5 1 -10 1q-6 0 -21 -3l-17 4q-43 -13 -57 -18q-24 -17 -40 -17q-10 -5 -53 -37q-7 -1 -32 -23q-26 -14 -50 -35q-17 -16 -36 -29q-11 -16 -33 -35q-1 0 -28 -38q-6 -6 -48 -59q-26 -47 -37 -47l-4 5h-3
q-2 0 -4 -5q4 -7 5 -17l-16 -35q-33 -52 -35 -63q-1 0 -5 -6v-1v-8q-11 -16 -11 -19q1 -20 -1 -27q0 -2 -5 -7l-3 -14q2 -8 1 -11q0 -2 -4 -9q1 -27 4 -27q8 0 17 -17q-1 -5 6 -17q-1 -6 11 -16v-6q-1 0 -4 -4l6 -4q3 2 9 2h1q6 0 6 -10q0 -1 -1 -4q2 -4 14 -8q7 0 14 -6
q1 0 10 -7q8 2 10 2h3q4 0 19 -6l9 -2q8 2 13 2q15 -4 16 -4q6 1 12 1q22 0 31 -2q20 4 23 4h23q11 -3 18 -3q4 0 31 8q10 -1 11 -1q2 0 22 10q19 7 32 7h11q10 0 43 14q5 1 8 1q9 -1 8 -10q-1 -5 -25 -22q-6 -3 -24 -4q-25 -9 -50 -21q-3 -1 -6 -1h-13q-11 0 -26 -12
q-30 -8 -44 -25q-10 -13 -50 -24h-8q-3 0 -12 3q-11 -4 -18 -4h-5q-4 0 -23 7h-3q-1 0 -3 -1q-2 0 -7 8h-1l-5 -1l-4 1q-12 -8 -24 -8q-15 3 -18 11q-8 6 -17 8l-1 7h-3q-4 -5 -6 -5q-8 11 -25 11l-15 18q-5 15 -16 15q-7 5 -5 16q-5 0 -11 8q-5 0 -17 21q-6 43 -13 54
q-3 12 -2 19q1 1 2 1q-1 2 -1 3q1 4 3 11q1 6 3 17q4 8 9 19q-1 9 1 20q10 22 23 50q5 9 17 37l13 18v8q2 7 19 33q8 15 26 34q4 15 14 25q10 18 37 54q19 31 34 50q1 1 19 21q4 10 37 44q13 21 35 40q1 0 29 27q34 15 44 30q27 27 42 29q26 23 42 26q32 14 41 24
q15 14 44 21q32 19 41 19q7 -1 13 -3q15 4 21 4zM248 533l1 -2q-2 -4 -2 -5v-10q-1 -4 -11 -12q-1 -2 -1 -3q-1 -4 8 -11q15 0 28 6l18 9h1q8 -1 12 -1h3q13 4 37 19q16 3 42 19q13 0 69 29q10 2 34 24q24 23 59 72q0 2 35 46q5 10 6 14l1 4q2 14 -12 25h-6h-9q-10 3 -14 3
q-8 0 -49 -35q-6 -3 -23 -6l-50 -38l-49 -37q-38 -36 -69 -74q-8 -4 -23 -20q-27 -16 -36 -16zM82 338v-2q-1 -1 2 -3l1 1h3l6 -1q0 2 4 3l1 5q0 2 -3 3q-5 -5 -13 -5q0 -1 -1 -1zM117 314v-2q0 -3 4 -3l3 4l-3 3h-1q-2 0 -3 -2zM129 313h2h2l1 3h-1q-1 0 -4 -3zM86 292v-1
q-1 -1 2 -3q2 1 3 1l1 2q0 1 -3 3h-1q-2 -1 -2 -2zM144 254q2 -9 2 -10h1q25 15 39 22q2 0 2 2q2 10 -4 10h-6q-6 -5 -19 -7q-11 -7 -15 -17zM234 226v0q-1 -3 6 -5h2q2 0 3 1l6 -4h3l1 4q-2 6 -5 6l-2 -1h-2q-4 6 -7 6q-4 -1 -5 -7zM264 222l-2 -2v-1q1 -1 2 -1l1 2z" />
    <glyph glyph-name="A" unicode="A" horiz-adv-x="620" 
d="M338 729q29 -25 26 -129q-12 -120 -42 -198l9 -1q21 26 85 66q2 7 41 37q33 -34 -4 -131q-40 -147 -29 -179q30 -17 164 42q288 248 261 211l-112 -150q-32 -41 -147 -164q-3 52 -14 3q-39 -49 -69 -52l-35 -12q-58 -15 -52 0q-15 -12 -27 -10l-18 2q-48 8 -3 231
q7 36 12 49q-13 2 -106 -110q-8 1 -80 -75q-50 -8 -184 -137q-35 -5 -39 -15q-82 32 -70 63q6 15 7 28q40 63 48 87l2 7q-7 60 13 114q14 9 74 126l161 179q13 26 128 118zM-8 207q-16 -46 53 -58q137 118 143 117l6 15q6 17 71 154q26 105 41 148l6 16h-3l-107 -105
q-7 -17 -138 -167q-9 -27 -72 -120zM-28 226q-4 -13 1 -14l14 19l5 14h-3q-4 2 -17 -19zM-93 236l23 -4l-10 -25l-36 -50q-6 -48 -20 -83l-27 -23q-13 2 45 162z" />
    <glyph glyph-name="B" unicode="B" horiz-adv-x="598" 
d="M596 2160h3l-7 -22q14 -2 12 -8q4 0 26 26h2q13 0 -8 -115q-9 -17 -12 -26q-3 -27 1 -27l-9 -20q-3 -12 -6 -35l-10 -31q-8 -32 -2 -32l-28 -82q0 -30 -4 -48l-1 -5q-3 -11 -26 -57q4 -27 0 -40q-4 -3 -13 -3l-1 -5q12 0 13 -9l-5 -9l-5 -21q-3 -9 -2 -18q-8 -14 -11 -22
q-2 -7 -5 -38q-3 -19 -49 -163q-2 -35 -1 -35q-4 0 -38 -114q0 -9 -1 -13q-4 -8 -6 -18q-4 -23 -4 -26l-23 -52q-4 -22 1 -22q-20 -53 -37 -119q-16 -42 -26 -56l-1 -9q-11 -46 -46 -100q-2 -11 -9 -50q-28 -72 -68 -157l-10 -26l-6 -31q-1 -4 -56 -117q-4 -24 -7 -36
l-19 -44q-2 -9 3 -9q48 49 172 128q6 0 90 52q3 -4 9 -4h2q16 13 22 13l16 -4q27 39 60 39q8 -9 19 -9q3 8 24 17q12 -3 7 -21l25 4l5 -44l-5 -9q-5 -30 -5 -34q-8 -26 -55 -84q-39 -94 -102 -149q-40 -44 -91 -74q-42 -49 -133 -78q-45 -10 -50 -13q-4 3 -10 3l-19 -3
q-25 0 -16 78q-2 13 -4 13q44 74 47 88q-3 0 -1 4q-76 -60 -94 -128q-22 -29 -35 -29h-8q-29 0 -18 43q49 117 87 193q1 35 2 39q2 0 4 4l-4 6q-11 -16 -37 -93q-28 -36 -42 -87q-8 -9 -31 -49l-5 -21q-1 -6 1 -6q-52 -130 -75 -178q-11 0 -14 -13h-6q-6 0 -4 35
q-83 -122 -47 -4q15 21 -4 21l1 5q31 41 65 108q37 49 66 133q8 7 70 149q3 8 71 139l1 5q1 4 -2 4q48 92 96 237q30 59 79 192q6 0 11 22l8 30q1 5 -2 5l6 9l3 17q7 23 36 93v12q27 102 54 141q1 4 -1 4l8 17q7 39 9 49q25 66 35 82q1 7 6 48l4 18q4 11 22 52
q29 112 30 150q16 30 20 44q-1 28 3 39q18 30 20 34q23 137 35 180q16 42 22 66l2 8q3 11 2 18q31 88 44 88zM498 1604l-6 -21h2q14 6 15 12l2 9q2 8 -3 8h-3q-5 -1 -7 -8zM454 1525l-7 -22q0 -8 5 -8h2l5 21q3 9 -2 9h-3zM71 505l-1 -4q-2 -10 10 -14l5 18h-14zM304 321
h-11q-34 -31 -73 -44q-77 -100 -80 -118l-2 -4q9 0 16 4q8 -4 16 -4q46 0 123 79q82 56 121 113l4 18h-34q-38 -44 -80 -44zM-207 -50q-3 -11 18 -23q-7 -14 -10 -14l-2 -21l-13 -52v-8q-19 -14 -30 -14q-27 8 -17 48q27 30 30 47q0 19 2 26q15 11 22 11zM-165 -104h5
q-2 -9 -7 -9z" />
    <glyph glyph-name="C" unicode="C" horiz-adv-x="563" 
d="M392 736q15 -1 12 -12l22 -1q28 -42 28 -46q-2 -9 -7 -15q7 -34 -4 -79q3 0 -2 -57q6 0 1 -30q-56 -95 -80 -94h-9q-50 21 -38 70q18 36 67 174l-5 4l-21 1q-27 0 -68 -53q-13 0 -36 -36q-59 -42 -68 -76q-21 -9 -63 -61h-9q-2 6 3 22l-7 1q-2 -11 -17 -33q0 -24 -2 -30
q-48 -38 -97 -150q-3 -13 -19 -64l-1 -15q-6 -14 -9 -29l-4 -15q-1 -5 6 -12q23 -1 73 16l17 -5q3 0 42 17q115 54 160 83q7 3 35 6l-2 -8l-14 -18l6 -4h12q3 0 3 3q9 -8 17 -8l16 18l2 8q4 14 -6 34q15 15 109 62q15 25 101 52q3 11 75 34q4 -4 11 -4q1 4 20 18l5 -4h3
q53 39 74 38q32 6 33 10l5 -4l6 -1q3 0 35 6h3q-4 -15 8 -15l21 2q0 -3 3 -3l5 7q1 4 -2 4q4 7 5 11l13 -1l4 -4q6 11 21 11l15 -1q23 -1 22 -12q-1 -4 -4 -4q-7 -29 15 -50q-4 -13 -40 -24q-16 12 -23 12q-80 -12 -85 -34q-15 -18 -29 -17q-6 15 -3 23q-27 1 -62 -39h-3
q1 6 -8 16h-9q-2 -7 -5 -7l1 -8v-3q-12 -4 -14 -4q-2 1 -23 5q-9 1 -96 -44q-10 0 -62 -31q-8 0 -77 -42q-9 1 -75 -42q-36 -13 -133 -69q-93 -41 -147 -57l-20 5q-4 -15 -53 -28q-27 13 -25 24h-6q-9 -7 -13 -7q-29 2 -34 51q5 6 7 14l1 4q-7 20 2 57q1 7 22 17l5 19
q-19 1 -16 8q21 36 23 44v4l3 23q30 48 47 92q83 113 106 134h6l-8 -19l21 -4l8 -1l1 4q-9 23 -7 27l42 35l3 27q7 0 145 147q45 28 62 28l5 -4q14 7 26 6zM399 638l-4 -12h9l1 4q3 7 -3 8h-3zM404 573l-2 -7q-1 -8 4 -8h3l2 7q2 8 -4 8h-3zM-36 25l-1 -8h6q4 0 12 11h-6
q-7 -3 -11 -3z" />
    <glyph glyph-name="D" unicode="D" horiz-adv-x="692" 
d="M1007 1611q20 0 27 -26q-2 -10 -11 -10l-1 -3l2 -7l6 3h4q7 0 6 -16q-10 -21 -11 -26q-5 -40 -5 -42q-17 -31 -30 -81h-6q-7 0 -5 9h-3l-6 -16q13 -6 13 -13q-6 -31 -23 -52l-1 -6q-2 -8 0 -13q-68 -144 -95 -218q-5 0 -23 -16q2 -6 -1 -39q-26 -61 -55 -91q5 -13 3 -20
q-1 -8 -29 -45q-119 -260 -152 -260q-99 -136 -128 -172q-15 -9 -90 -107v-17l-21 -39q-1 -8 -2 -26q-1 -5 -29 -48q24 -41 22 -52q7 -1 74 -101q32 -7 38 -33v-3q0 -1 -20 -19l10 -13v-4q-4 -7 -27 -16q-62 26 -72 59q-15 0 -56 74q-22 10 -26 49q-32 13 -49 29
q-39 -25 -113 -110q-81 -77 -104 -94q-33 -10 -41 -10q-6 3 -10 3l9 23l-6 3q-15 0 -32 -26l-6 -3q-68 6 -57 62l-8 52q60 157 134 250q4 23 35 26v3q-4 0 -10 13l89 107q12 0 34 39q15 0 32 42l65 65q31 41 102 108q77 131 143 162q44 0 54 -36q0 -3 3 -3q16 11 76 150
l66 123q15 11 76 133q7 5 40 68q65 89 128 205q9 0 23 33q16 0 17 6q10 -6 18 -6h4l3 13l-22 6l1 7q1 5 29 13zM870 1364l-5 -7v-3h3q7 0 8 6zM852 1341l-1 -3h10l2 9h-3q-7 -1 -8 -6zM884 1334q-28 -55 -78 -126q-1 -6 -19 -33v-16q-42 -74 -67 -104l1 -13
q-61 -112 -121 -244l-21 -29q-1 -3 1 -10q-54 -95 -72 -133l-3 -29h7l30 39q7 0 31 42q18 0 89 153q3 17 32 45l3 13q3 15 39 82q39 100 52 100l1 4l-1 13q13 16 46 113l28 46q1 3 -1 9l31 75l1 3h-9zM-59 67q-4 -22 51 -22q18 18 61 48q47 34 69 82q63 60 102 84
q54 53 68 81q19 0 58 117q25 22 54 117q51 99 56 120q7 0 8 7l-2 23q11 44 16 65l-8 6l-74 -88q-54 -64 -161 -175q-1 -5 -149 -175l-82 -134q-51 -75 -67 -156z" />
    <glyph glyph-name="E" unicode="E" horiz-adv-x="851" 
d="M499 757q11 -21 15 -21q3 12 80 17l-1 -4l-19 -17l-2 -9q28 -12 41 -12q6 8 7 12h4q46 -50 38 -89q-35 -70 -95 -114q-25 -25 -130 -89q-4 -23 -185 -106q-13 -20 -84 -42q-2 -7 -113 -63q-11 -14 -28 -60l-1 -4q206 26 210 47q156 84 255 114q22 18 70 34q56 38 100 38
q3 13 11 13q7 -2 6 -9q23 4 33 4q7 -4 11 -4l6 9q-6 0 -9 17q45 29 113 46q140 59 234 89h20l1 -17h20q17 9 21 26h4q12 -17 52 -17q10 17 16 17l13 -13h20q8 0 42 8q11 -8 18 -8q13 4 14 8q0 22 1 26q3 14 40 21l-1 -4q9 4 13 4l4 17l-6 12q45 22 127 34q15 -3 14 -8
q78 25 176 38l29 -3l-24 -31q-83 -25 -141 -56q-1 -4 -5 -4h-40q-4 0 -5 -5l-7 5l-172 -71q-36 -10 -77 -26l-7 5q-72 -17 -96 -17q-13 8 -30 8h-12q3 14 0 21q-23 -4 -33 -4l-19 4l-35 -33q7 -5 11 -5l23 13l23 -5l18 9h12q-2 -10 21 -24q-96 -34 -163 -65
q-55 -11 -146 -50l2 12h-8q-5 -26 -59 -38l-110 -51q1 9 -7 9q-31 -27 -103 -55q-95 -51 -164 -64q-42 -46 -224 -97q-7 0 -26 -9l-19 5q-38 -13 -50 -13h-16q-19 0 -26 13q-29 -9 -30 -13q-43 26 -28 102q11 15 15 33h-4q-61 -12 -83 -12h-8q-121 34 -114 67q-13 16 -10 30
q4 0 5 4q11 -8 22 -8q9 24 45 46q-10 29 -10 51l9 4q7 -4 11 -4l1 4q94 -88 135 -88l27 -5q37 0 68 60q65 92 213 249q3 11 68 77q5 27 76 59q14 0 69 25h32zM188 385h4q39 29 93 46q4 18 67 34q10 22 80 59q4 20 68 39q19 31 63 55l1 8q11 51 -73 51q-121 -41 -131 -93
q-60 -49 -117 -123q-44 -20 -55 -76zM768 423l-4 -21h8q8 0 9 8q1 6 -9 13h-4zM660 364l-3 -17h16q8 0 9 8v21h-8q-6 0 -14 -12z" />
    <glyph glyph-name="F" unicode="F" horiz-adv-x="538" 
d="M2544 3058q22 -10 30 -10h2q10 0 27 3q42 -31 30 -99h3l-6 -17l-10 -59q-18 -17 -20 -30q15 0 8 -47l-1 -9q-17 -40 -17 -44q1 -6 0 -10q-7 -3 -33 -79q-21 -50 -35 -50l-2 -23q-1 -7 -4 -13q-2 -17 1 -17q-7 -26 -24 -59l-2 -7h-5q2 10 -6 16h-3q-1 -6 -3 -6q0 -3 2 -3
l-6 -17v-3h3l10 6l1 -6q-25 -53 -31 -53q-24 -26 -35 -27l-1 -3h3q5 0 10 3q3 -3 8 -3q4 0 19 20q-1 -4 1 -4q-35 -83 -62 -96q-16 0 -30 -43h10q3 13 7 13q2 -6 1 -10q-33 -38 -56 -92q-1 -4 -4 -4q-3 4 -8 4l-2 -10q-2 -14 -43 -67q-2 -10 -48 -79q-9 -20 -68 -90
q-3 -15 -30 -39q-6 -26 -28 -44q-3 -20 -50 -46q3 17 -5 17h-12l2 10q41 47 47 73q3 0 8 9l1 7l-2 10q5 13 9 13q1 -5 1 -13h4q22 22 26 40v3q-11 3 -10 10l5 3h3l3 -3l5 7l1 6q-3 9 -3 10q5 0 26 40q19 34 35 50q14 47 75 149q1 9 38 83q5 26 21 30l3 -10l-8 -24h9
q4 0 20 30q10 0 13 20l3 17q-7 0 -6 20q-4 3 -7 3q4 21 26 53q4 21 27 56q4 25 24 73q7 41 21 47h1q4 -24 16 -24l-6 -9l-2 -7q3 0 9 10q-2 0 -1 3l5 3q-1 -5 7 -13q11 21 11 27l1 3q1 7 -3 7h-6q-2 0 -8 -10q-8 6 -13 6v4l7 10l2 6h-3l-8 -6h-3q2 6 -1 6l28 67l4 19
q1 8 1 14q2 5 10 39q-3 17 -2 24q6 11 8 20q-4 53 -50 53l-17 3l-2 -7l-1 -3q19 0 25 -23l-9 -10l-13 3h-7q-2 0 -2 -3l-5 3h-10l-104 -43q-2 0 -12 13h-3q-3 -16 -12 -16l-14 3q-4 -1 -6 -7l-1 -6l9 -4l-1 -6q-10 0 -85 -53q-118 -39 -156 -96l-69 -50q-23 -20 -57 -30
q-2 -12 -46 -23q-4 -8 -58 -53h-4l-6 7q-8 -7 -11 -7l2 -10q-36 -35 -38 -40l-3 3h-5v-16q-22 -8 -65 -66q-7 0 -51 -57q-13 0 -49 -56q-17 -15 -88 -106q-10 0 -72 -106q-7 -3 -35 -50q-26 -19 -59 -83l-55 -63q-3 -16 -52 -73q-3 -13 -25 -43q-21 -26 -50 -73
q-12 -13 -60 -89q-12 -21 -54 -80q-4 -19 -59 -89q-23 -58 -53 -86q-47 -95 -57 -103q-20 0 -51 -73q-21 -18 -49 -86q-13 -7 -48 -73q-4 0 -12 -27q-28 -21 -29 -26l-1 -10h2q5 0 11 3q73 -10 86 -10q16 7 22 7h67q16 0 32 3q9 -3 16 -3q6 0 20 3l113 -6q13 3 13 6
q13 -3 19 -3q74 0 143 26h7q5 0 77 -10q14 0 133 17q100 -22 97 -43h-6l-6 7h-2q-55 -49 -190 -60q0 -3 127 -20q0 -3 -136 -13q-3 0 -7 3h-37l6 17h-11q-5 -17 -82 -17h-16q-62 17 -82 17q-18 0 -34 -4q-13 4 -85 4l-13 -4q-8 4 -18 4h-10q-5 0 -11 -4q-31 5 -46 10l-5 -3
q-3 0 -6 3q-37 10 -60 -6l-10 3q-9 -7 -20 -7h-14q-2 0 -3 -3q-66 7 -73 7q-15 -10 -21 -10l-24 10q-49 -19 -55 -50q-39 -48 -144 -209q-94 -127 -102 -129q-26 -24 -48 -73q-23 -27 -33 -27q-5 -24 -42 -73q-34 -74 -49 -86q-54 -112 -88 -112q-34 -46 -83 -63
q-1 -6 -17 -17l-4 3h-12q-5 0 -11 -3q-79 20 -72 60l6 20q-17 0 -13 26q-1 6 0 13l6 33q5 24 9 24q-3 6 5 66q7 11 8 20q1 3 -1 10q9 26 26 50l-7 29q10 0 39 43q1 9 -9 14q11 17 28 66l33 53q11 26 33 86q15 18 49 43q17 -10 22 -10q22 7 26 7q28 0 25 -17q-16 -44 -31 -56
q3 -3 6 -3l6 3q11 0 10 -23h9v-3q-9 -49 -73 -63q-18 -20 -36 -57q-6 0 -18 -20l-3 -13q12 0 9 -16q-4 -25 -73 -136q-4 -18 -28 -73q-8 -32 -13 -60q1 -26 7 -26h17q46 0 68 49q41 27 47 63q29 26 53 70l64 76q11 29 43 70q1 7 61 92q47 74 83 113q58 58 73 93l65 99l1 4
h-2q-8 0 -13 -4q-26 7 -35 7l-10 -7q-14 14 -26 14h-17q-15 0 -32 -4q-22 2 -37 20q-6 -2 -20 -20l-4 4q-5 0 -23 -10q-3 0 -24 3q-7 0 -39 -7q-7 7 -13 7l-19 -10q-10 7 -17 7l-11 -7l-33 3q-25 -3 -39 -3q-1 11 -1 20q56 17 124 26q1 6 48 17l1 3l5 -3h4q33 0 65 13l10 -3
q19 3 23 7l14 -4h5q34 8 36 17l1 7l-1 6h5l14 -13q35 13 40 13l16 -20l28 23q23 -13 31 -13q16 11 37 63q41 55 58 73q29 56 85 126l51 76q61 87 66 90q36 20 99 146q10 1 28 46q3 0 80 129q26 32 86 120q26 27 43 59q29 33 55 77l60 86q15 6 16 10q-1 6 0 10q54 93 145 189
q10 8 56 79q23 8 42 46q42 48 71 77q1 4 32 33q0 4 73 86q2 15 27 23q6 26 66 63q51 74 110 110q8 0 38 36q24 27 78 53q23 29 77 60q9 0 39 20q-4 -25 7 -33h4l5 16l1 3v17h-7l-4 -3v3q1 10 63 40q1 5 34 13q2 9 44 20q18 16 27 16h3v-3q-20 -30 -39 -30h-7
q-11 -19 -12 -23q2 0 1 -3q10 0 56 26q1 0 9 4l4 20q18 36 50 36q0 5 11 13h7v-3q-7 -12 -17 -40h-4q-5 0 -3 17q-24 0 -28 -23q0 -7 4 -7q24 0 53 26q5 0 16 14l11 -7l7 10l-13 13q2 13 47 20q1 6 13 7h3q-3 -14 1 -14h17q6 0 14 27zM2246 2932l-2 -10h5l1 3q0 7 -4 7z
M2310 2849l-1 -6q-1 -5 5 -10h12q3 0 9 10l2 13q-2 0 -7 3q-15 -10 -20 -10zM2485 2843h5l-1 -7q-5 0 -4 7zM2122 2823l-1 -4l1 -6l15 3l1 7q1 6 -3 6h-8q-4 -1 -5 -6zM2209 2776l-1 -3h12l2 10h-7q-5 -1 -6 -7zM1972 2746v-6h7l1 6h-8zM1969 2617l-1 -3h7l2 10h-3
q-4 -1 -5 -7zM2436 2461l7 -6h7l1 6q0 7 -4 7h-4q-6 -1 -7 -7zM2222 2153l-1 -7h5q8 0 11 20q-12 -6 -15 -13zM2021 1812h3q2 0 10 -14h4l5 4l-1 -4q0 -5 -45 -39q-53 -67 -73 -67l1 4q1 13 34 33q53 81 62 83zM98 917q4 -4 6 -4q-1 -6 -5 -6h-7l1 3q1 7 5 7zM315 904h2v-4
q-1 -5 -9 -10l1 7q2 7 6 7zM141 894h8l-2 -14h-7zM436 837l-2 -13h9l3 13h-10zM71 635l-2 -7q-1 -6 3 -6l1 6q2 7 -2 7zM151 582h2q3 0 6 -10l-1 -3q-1 -7 -6 -7q-3 11 -1 20zM-107 323l-1 -6h-5q2 6 6 6zM-145 65h2q5 -1 4 -7v-3h-3q-5 0 -4 7z" />
    <glyph glyph-name="G" unicode="G" horiz-adv-x="474" 
d="M460 786q12 0 10 -16q0 -26 5 -26q11 -21 6 -59l-1 -12q-3 -16 5 -21q16 13 23 13q17 0 13 -47l-1 -1q-4 -36 -28 -123l-20 -60q-2 -5 -13 -34q-11 -27 -32 -57q-3 -18 -10 -33q-15 -40 -49 -112q-18 -44 -117 -290q-8 -16 -8 -23q1 -7 4 -7q28 15 50 35l34 17l36 23
l30 16q12 -2 15 -2q1 0 22 26q2 4 48 28q14 10 16 10h1q3 0 9 -2q5 0 20 20q43 24 68 42q14 0 79 42q48 25 75 40q24 9 71 34q4 0 11 -19q2 -1 4 -1q6 4 8 13v8q7 24 27 24q17 11 19 11q3 0 10 -11h1q5 0 12 19q6 11 10 11q13 -7 14 -7h1q2 0 10 19q9 12 28 16q5 5 22 13
q1 0 6 -1q5 1 8 1v-3q0 -6 -4 -13q2 -8 3 -10h4q5 6 6 13l1 3l-4 10l1 6q-1 2 6 8h6l3 -3h1q9 28 20 28l41 26q34 24 37 24h7q3 0 20 13q3 0 13 -14l7 -4q4 0 7 11l-3 18v2q1 6 17 28q28 48 49 48q11 0 12 -27l-1 -14q-11 -85 -94 -150q-11 -13 -22 -13q-6 3 -8 3l-33 -29
q-13 -3 -30 -21q-12 -4 -50 -31q-9 -11 -21 -11q-6 0 -14 -14q-25 -15 -43 -19q-15 -15 -22 -20l-12 -3q-2 0 -13 21q-1 0 -5 2q-3 -2 -3 -3l-1 -4q0 -2 1 -18q-2 -18 -25 -28q-14 -14 -46 -22q-16 -15 -53 -28q-32 -22 -117 -61q-11 -8 -30 -19q0 3 -6 4q-6 0 -26 -21
q-14 -10 -17 -10h-3l-5 3h-1q-16 -21 -43 -32q0 -1 -3 -1h-2q-6 0 -8 21l-3 1q-11 0 -24 -37q-1 -8 -58 -39q-7 0 -27 -19q-20 -8 -38 -24q-11 -10 -53 -30q-27 -23 -56 -37q-4 0 -43 -31q-22 -12 -33 -16q-11 -14 -34 -31q-40 -19 -52 -43q-1 0 -45 -62q-16 -20 -24 -39
q-9 -7 -27 -31q-133 -166 -145 -166q-53 -38 -65 -38q-22 -10 -50 -18q-33 0 -28 42l1 3q6 50 44 105q64 95 77 106q22 28 77 82q12 13 22 13q4 -9 5 -9q8 2 10 2q7 -6 11 -6h1q8 0 21 30q2 4 2 5q-4 2 -4 3q-7 -2 -19 -9q-7 2 -6 7v4q1 15 39 34q18 15 63 41q6 3 49 32
q52 67 77 105q91 220 104 256q9 18 29 67q18 34 36 74q1 11 9 24q2 7 3 9l1 6q0 1 -2 3q-5 0 -17 -28q-3 -4 -18 -8q-25 -22 -49 -48q-4 0 -28 -29q-39 -38 -82 -81q-47 -37 -73 -64q-60 -41 -79 -65q-44 -37 -71 -60q-8 -5 -48 -13q-2 0 -6 4q-3 0 -18 -11q-20 4 -26 11
q-8 21 -14 21q-22 7 -63 17q-50 -15 -122 -30q-121 -34 -85 10q53 27 80 31q11 0 47 22q53 24 81 39q38 15 52 22q31 22 48 26q22 10 30 33q26 57 62 118q32 67 57 103q19 18 32 46q19 24 58 83q20 33 60 87l86 102q50 55 92 89q35 25 39 25q38 10 44 10q15 -1 19 -1
q18 7 21 7zM397 730q-2 -8 7 -10q3 0 5 4q-1 13 -9 13h-1q-2 -1 -2 -7zM-15 172q0 -3 5 -6q2 0 61 44q17 17 36 24q8 9 43 29q14 11 58 47q15 8 45 41q5 14 13 14q3 0 38 31q21 14 50 54q53 50 60 107q7 61 0 61q-15 23 -18 31q-3 12 -4 27l-6 6q-6 -5 -28 -26
q-20 -12 -51 -53q-21 -23 -56 -61q-15 -16 -50 -67q-31 -39 -50 -70q-1 -12 -14 -25q-4 0 -40 -55q-13 -15 -23 -35q-20 -25 -30 -41q-37 -63 -39 -77zM1116 335v-1q-1 -11 8 -14q10 2 10 7l2 7q0 5 -11 10q-8 -5 -9 -9zM1048 255v-2q-1 -2 2 -6h1q2 0 3 3l2 8q0 3 -2 3h-2
q-1 0 -4 -6zM241 387h3q1 0 2 -3l-1 -5q-1 -9 -6 -9q-3 2 -3 7l1 1q0 7 4 9zM943 207l1 -4q-1 -4 12 -8q4 3 5 5v1q0 15 -3 15q-8 0 -15 -9zM379 345q1 -4 1 -7h3q0 3 2 5l1 5q0 2 -2 2h-2q-1 0 -3 -5zM871 180v-1q-2 -12 7 -14q4 0 4 6q1 6 -4 14h-3q-1 0 -4 -5zM820 152
v-7q0 -4 4 -4v0q4 0 6 3v8q-4 5 -5 5h-2q-1 0 -3 -5zM558 16q-3 -48 2 -48h4q3 0 8 35q1 25 -5 25q-4 0 -9 -12zM-283 164h1l-1 -3h-1q-1 0 -1 1zM-465 42h3q5 0 6 -10l1 -3q-3 -11 -9 -11h-3q-10 0 -9 11v6q1 4 11 7zM53 -330v-1q0 -4 2 -5q2 0 4 7q1 3 1 4h-1q-4 0 -6 -5z
M-140 -527v-3h1q7 0 26 27q22 15 33 37v1q0 1 -1 4h-1q-9 0 -29 -28q-4 -10 -23 -25q-7 -9 -6 -13zM-149 -546l-1 -3q0 -1 3 -2l1 2l2 8h-1q-1 0 -4 -5zM27 -553h2q0 -2 -2 -2v2z" />
    <glyph glyph-name="H" unicode="H" horiz-adv-x="809" 
d="M1178 2101q21 0 18 -41q-2 -14 -44 -108q-13 -38 -71 -163q-26 -54 -74 -144q-4 -21 -29 -45q-8 -14 -9 -16v-9l-1 -4q-40 -91 -66 -136q-14 -24 -17 -39q-26 -33 -57 -92q-10 -13 -18 -42q-13 -24 -33 -37q-6 -8 -7 -14q0 -13 -1 -16q-2 -12 -31 -59q-1 -5 -45 -87
q-1 -4 -17 -32l-69 -137q-11 -10 -29 -56q-9 -15 -13 -19q-2 0 -3 -2q-8 7 -6 18v1q1 4 12 17l1 7q2 11 -7 11q-5 0 -17 -20q-1 0 -7 -23l-5 -7q-2 -7 13 -10q0 -6 4 -16v-2q-4 -21 -40 -74q-15 -7 -18 -21q-7 -13 -20 -13q-8 0 -8 2q-6 0 -15 -14q-2 -9 15 -18q1 -6 0 -12
q-1 -5 -15 -28q-3 -13 -34 -63q-8 -6 -10 -6q-6 25 -19 25q0 1 -1 1q-5 0 -9 -17q-3 0 -7 -17q-3 -1 -3 -4l-1 -1q4 -7 4 -20q2 -4 6 -4q3 0 11 22l6 2q3 -7 2 -11l-1 -6q-8 -26 -14 -30q2 -7 1 -11q-5 -11 -17 -20q-2 -11 -8 -18q-16 -32 -25 -32h-11l-2 -9l-2 -8
q2 -12 1 -15q0 -3 -20 -38l-1 -5q0 -12 5 -12q19 0 41 14q16 3 59 28h3q21 0 10 -72q-4 -23 -7 -68l-1 -4q-5 -14 -7 -23l7 -16q3 -29 4 -78q6 -12 6 -59q15 -73 43 -73q14 -1 20 -1q17 0 84 41q5 5 36 21q21 22 65 53q37 36 50 52q46 60 77 60q25 -7 19 -38
q-8 -46 -60 -107q-50 -65 -81 -92q-39 -32 -79 -61q-34 -33 -46 -33h-12q-2 0 -15 -14q-9 -5 -70 -45q-29 -9 -78 -9q-32 0 -63 60q-7 21 -5 66q5 60 7 71q8 36 10 46l1 6l6 49q2 7 11 49q27 119 5 119q-53 0 -141 -75q-67 -71 -75 -94q-79 -143 -99 -205q-15 -24 -37 -24
h-7q-63 11 -59 34l1 5q8 45 138 206q27 41 51 84q43 52 71 119q44 71 61 91q5 2 17 29q14 13 15 13q7 -12 5 -32q-1 -7 9 -8q13 1 13 3q1 6 -7 26q1 5 -12 22l2 8q-2 14 -1 16q1 9 19 17q5 18 15 27q3 11 8 11q1 16 1 25q2 14 22 38q18 12 24 20l1 10v4q9 11 11 22q1 3 5 8
l2 15q26 54 37 54q8 -10 13 -10q6 0 28 25l1 4q-8 18 -18 18l-1 2l1 2q3 19 48 101q1 4 26 44q1 7 20 58l1 5q-3 0 -3 1q-22 -24 -72 -95q-38 -55 -70 -92q-16 -15 -31 -43q-36 -44 -47 -52q-9 -9 -14 -22q-17 -16 -20 -16h-2q-2 0 -1 18q-2 0 -4 4l-5 -3q-7 4 -12 4h-2
q-12 0 -21 -23v-2q-2 -11 13 -15q1 0 5 1q8 -4 6 -16l-1 -4q-3 -8 -39 -44q-6 -7 -26 -34q-18 -20 -23 -20h-1l-4 4l-9 -6q-7 8 -9 8h-3q-7 -8 -21 -10v-4q-1 -1 12 -6v-3v-1l-3 -5v-2q3 -6 2 -11q-4 -19 -48 -51q-8 -8 -16 -33q-111 -153 -209 -272q-38 -56 -95 -82
q-12 -3 -19 -3h-5q-3 0 -5 7l1 8q50 48 114 117q61 71 67 92q9 13 36 53q13 19 19 23q5 5 12 28q15 27 31 27q6 4 8 11q1 9 3 24q0 4 22 31q10 22 25 37q1 10 17 24q13 15 23 34q7 6 10 6q19 -4 17 -18q-2 -7 6 -7q15 15 16 23q1 11 1 21q1 0 1 2q-6 5 -11 5q-1 0 -15 -15
h-3q-5 0 -7 8q9 27 16 27q4 0 4 1l4 -1h1l7 2l3 14q11 26 25 40q40 55 59 64q0 4 21 18q17 30 25 30q2 0 13 -15q7 -3 11 -3h3l2 8q1 2 -11 27l-1 10q2 10 25 36q36 59 109 152q57 84 76 104q1 8 49 73q4 7 87 127q31 54 61 94q2 12 46 74q45 78 88 164q23 47 43 68
q5 22 20 47q36 62 57 113q30 54 67 132q66 132 128 120zM962 1666l-2 -6q5 -11 11 -11q5 0 11 14q0 9 -5 14h-6q-7 -6 -9 -11zM441 735v-4v-1q0 -2 -2 -2h-1q-1 0 -1 2q1 2 4 5zM484 721q-2 -7 3 -10q6 8 8 8l1 3q1 5 -2 5h-5q-1 0 -5 -6zM319 708l-3 -5l3 -2h1q2 0 3 3
q-1 2 -1 4h-3zM394 609q4 -7 2 -19l13 -4l5 8q1 4 -9 13q0 3 -3 3h-2zM331 519q2 -10 8 -10q6 6 7 14q-2 5 -6 5h-1q-2 0 -8 -9zM358 528l-2 -4v-4q-1 -2 0 -2h4l1 6q1 3 -3 4zM358 486l1 -1h1q2 0 4 6l1 1q0 2 -1 2q-5 -1 -6 -8zM348 470l-1 -2q0 -4 7 -8q4 0 10 9v1
q0 2 -3 7h-2q-10 -2 -11 -7zM309 391q0 -5 -2 -15q4 3 9 15l-3 1h-2zM515 -126q2 -18 10 -18q9 5 10 16q-3 16 -9 16t-11 -14z" />
    <glyph glyph-name="I" unicode="I" horiz-adv-x="268" 
d="M489 1155q27 1 26 -23q1 -10 -37 -48q0 -19 7 -25l-3 -14v-5l2 -14q-10 -41 -31 -70q-1 -42 -67 -117q-17 -4 -58 -34q-48 9 -46 88q-3 0 -3 6q6 11 6 15q-3 19 -2 29q7 38 32 73q0 31 58 75q66 46 91 52q4 -1 10 1zM252 748q14 -8 10 -25q-16 -19 -21 -39v-8
q-15 -30 -24 -40q-1 -9 -2 -17q-2 -12 -33 -58v-8q-14 -16 -37 -64q-7 -7 -43 -66l1 -10q-19 -28 -30 -57q-23 -37 -26 -53q4 0 5 -17l-7 -8l-2 -15q-22 -34 -24 -39l-1 -6q1 -20 0 -25q-10 -15 -12 -15v-4q-1 -3 -7 -14q-6 -29 -11 -50l-9 -35q0 -2 1 -2q-3 -4 -10 -25
q4 -26 13 -45q-4 -12 43 -50q-4 -14 70 -17q-1 -4 11 -6q15 0 26 14q5 -7 2 -14l-1 -8q-7 0 -15 -17q-47 -18 -73 -18q-3 2 -10 2q-3 0 -20 -4l-17 4q-15 -2 -25 -2q-15 6 -19 6l1 4l6 6q-7 3 -15 25q-2 -8 -21 -17q-10 2 -36 44q2 33 -8 43l-4 48q5 12 7 17l6 33q2 6 23 12
q16 29 17 35h-3q7 10 9 15h-5q-13 -8 -23 -25q2 0 1 -2l-4 -2q0 2 -2 2l4 4l2 8q-3 7 -3 23q3 3 10 23q3 16 1 16q3 4 4 7q2 12 11 37q2 16 7 33h-2q2 22 12 20l9 -12l5 15l-5 16q2 5 20 35q2 3 1 6q20 28 33 59q3 0 13 20h-6q-3 0 -14 -23q-15 -5 -41 -41q-12 -4 -32 -33
q-10 0 -28 -29l-141 -134l1 2q1 4 3 8q0 3 1 8q3 10 11 10l1 6h-6q-7 -1 -26 -32h-7l3 10q-21 0 -27 -23q-2 0 -4 -6l-1 -6q8 0 13 -13q-81 -79 -97 -101q-17 -4 -43 -38q-11 -8 -18 -8q-13 5 -10 15q-9 3 -17 16q-3 0 -13 15q7 25 60 39q45 33 56 33q2 -8 1 -10h2q4 0 7 8
h6l12 -10q4 8 6 8q0 9 -11 9h-5q4 13 16 21v3h-8q2 7 15 7v1q2 5 -5 5q70 64 75 64q2 11 29 29q33 38 44 41q-2 -8 3 -8q8 10 28 15q-4 14 -2 24q4 15 60 60q1 5 37 42q16 19 73 76q3 7 49 59q2 8 29 33q5 17 47 62q4 13 71 88zM67 491l-1 -2q0 -4 4 -4l2 1l1 6zM48 382
l-1 -5l4 1l1 5zM-417 54l-2 -4q-1 -4 3 -4t6 4q1 4 -4 4h-3zM-428 26q0 -3 -3 -7l4 -2h6v4q1 5 -2 5h-5z" />
    <glyph glyph-name="J" unicode="J" horiz-adv-x="461" 
d="M539 994q17 0 25 -39l-9 -44q-1 -4 -24 -34q-1 -7 -30 -25q-19 -12 -27 -32q-18 0 -33 -29q-19 -19 -34 -38q-28 -22 -38 -31q-17 19 -14 36l9 43q24 98 30 103q29 9 32 24q1 2 34 37q2 12 57 29h22zM217 692h4l-1 -3q-4 0 -3 3zM305 675h5q19 -9 22 -9l14 2
q25 -13 19 -41q2 0 3 -10q-6 -12 -8 -21q6 -18 -3 -62q-4 -9 -18 -65q0 -18 -1 -21q-14 -24 -17 -41q-6 -32 -1 -45l-31 -100q-2 0 -3 -5l-2 -12q-3 -15 -9 -29q-1 -9 -3 -19q-5 -11 -6 -16l-2 -8q0 -3 8 -9q27 9 57 36q13 0 43 18q9 0 33 24q59 26 73 39q16 0 39 19
q9 0 37 16q76 15 96 22q6 9 11 9q2 0 10 -2q14 14 40 14q24 25 56 25q35 7 52 21q10 8 44 21q5 12 31 20q5 14 38 33q24 20 40 36q6 0 2 -20q-1 -5 -20 -28q-6 -31 -24 -31q-75 -72 -102 -72q-7 -2 -30 -23q-22 0 -47 -22q-33 -18 -101 -60q-40 -22 -73 -33q-53 -45 -85 -45
q-4 -5 -54 -27q-21 -14 -42 -33q-21 0 -33 -20q-1 -2 -30 -16q-6 -7 -35 -26q-3 -15 -38 -27q-1 -6 -27 -29q-4 -22 -23 -30q-9 -23 -23 -51q-1 -6 5 -16v-1q-13 -10 -15 -18q-2 -21 -2 -22q-18 -38 -24 -70q-1 -4 8 -21l-1 -5q0 -4 -25 -9l-3 -3l-1 -7q-3 -14 8 -31v-2
q-27 0 -33 -29q-4 -4 -16 -31q-3 -1 -16 -36q-32 -27 -38 -60q-1 -2 0 -11q-1 -5 -39 -56q-15 -18 -20 -37q-24 -12 -29 -37l-38 -64q-21 -17 -37 -50q-38 -28 -42 -50q-19 -15 -31 -43q-21 -18 -33 -46q-1 -7 -25 -21q-25 -27 -40 -51q-8 -6 -23 -31q-33 -41 -35 -50
q-2 -4 -47 -36q-3 -14 -33 -31q-4 -15 -62 -50q-7 -10 -36 -21q-4 -18 -74 -34q-2 -11 -37 -12l-18 -16q-15 2 -23 2q-27 -7 -44 -14q-11 2 -18 2h-1q-3 0 -16 -5q-2 0 -18 1q-3 0 -12 -3q-12 3 -34 3h-9q-11 0 -58 57q-8 3 -18 45q8 15 9 22q-3 12 -1 21l2 12q2 11 8 24
l-2 3q2 6 18 28v2q-1 15 0 20q2 7 14 30q2 14 4 22q9 13 31 60q19 26 31 36q4 18 42 69q13 43 24 43q9 5 27 36q26 24 54 43q11 12 46 40q2 8 31 36q2 7 35 39q4 19 51 50l30 31q29 38 48 38q11 9 28 33q13 1 58 44q37 22 50 49q21 32 65 56q48 39 57 55q14 0 37 31
q31 14 36 35q11 16 34 26q2 10 56 36q20 33 57 53q12 12 36 24q7 14 40 26q26 16 32 46q3 11 6 24q-2 12 -2 14q13 16 16 24q-1 4 0 17q5 7 7 19q-2 9 3 40q15 20 19 36v2q0 1 -2 20q15 31 16 36v31q9 16 28 73q0 2 1 17q6 12 7 19q4 38 0 38h-5q-7 0 -17 -26
q-34 -24 -39 -50q-26 -30 -37 -31q-18 -24 -23 -24q-14 0 -51 -38q-30 -22 -43 -24q-20 -34 -47 -53q-3 -13 -43 -33q-5 -24 -56 -52q-15 0 -31 -22q-11 0 -21 -21q-25 -14 -88 -60q-10 0 -53 -41q-12 0 -38 -26q-21 0 -66 -27q-9 0 -31 -23q-8 -4 -54 -20q-1 -4 -34 -18
q-21 -21 -64 -36q-3 0 -29 -19q-16 0 -74 -25q-22 0 -37 -19l-82 -21q-18 0 -38 -12q-49 -3 -83 -14q-48 6 -43 29l5 4h16q40 4 52 14l8 -2h8q12 0 35 17h17l27 12q12 0 31 21q47 8 49 17q2 0 19 16q16 3 40 22q14 3 49 24q18 0 59 27l45 25q28 36 48 36q26 9 52 34
q41 19 48 19q21 6 39 31q31 12 48 26q4 0 36 29q16 9 31 22q33 21 39 21q1 -21 7 -21h4q4 0 10 9q1 3 -12 15q42 47 47 47q13 6 69 63q11 0 44 45q13 11 31 11q4 5 5 8q-2 15 -2 16q23 22 26 36q56 49 71 72q3 0 38 36q9 2 38 38q4 6 30 21q3 14 34 22q13 14 20 17zM316 646
l-3 -9q0 -2 4 -5h8l3 9q0 2 -4 5h-8zM43 541h5l-1 -5h-2q-3 0 -3 3zM917 458q-1 -4 7 -8q8 1 10 10q-1 7 -9 7h-1q-4 0 -7 -9zM95 422l-1 -3h2l1 3h-2zM341 374h3q9 0 12 -8l-2 -7q-3 -6 -11 -6h-1q-10 0 -14 11l1 3q3 7 12 7zM767 355q-1 -2 3 -5l8 2l1 5q1 3 -2 3h-5
q-2 0 -5 -5zM171 343h2q3 0 3 -3l-1 -2q0 -3 -3 -3h-2q-3 0 -3 3l1 2q1 3 3 3zM88 221h4q-1 -3 -5 -3zM-237 151q0 -7 8 -7h1q5 0 7 7q-1 6 -4 6h-6q-2 0 -6 -6zM-272 128v-3q-1 -3 6 -7l4 2h3l10 -12h8q5 1 7 10q0 7 -6 10h-8l-8 -2q0 3 -5 7h-5q-2 0 -6 -5zM81 128l1 -3
l-4 -2l-1 3zM180 25q0 -7 2 -7h5q3 0 6 5l1 4q0 2 -4 5h-5q-4 0 -5 -7zM-113 1h3q4 -1 3 -4l-4 -1q-3 0 -3 3zM-4 -68l-1 -5q-1 -3 2 -3h4q4 0 5 5q-1 7 -3 7h-3q-3 -1 -4 -4zM-53 -238q-3 0 -12 -19q-13 -6 -39 -40q-36 -17 -79 -75q-36 -20 -86 -79q-10 -14 -26 -14
q-23 -42 -48 -50q-1 -2 -23 -12q-2 -12 -25 -22q-5 -24 -37 -33q-28 -18 -38 -40q-1 -6 -33 -36q-23 -21 -26 -36q-10 -10 -30 -39q-2 -1 -30 -43q-9 -4 -26 -37q-43 -39 -47 -55q-18 -9 -34 -37q-6 0 -24 -38q-20 -21 -27 -38q-31 -26 -35 -47q-3 -14 -15 -31l-5 -24
q-1 -3 -3 -6q-5 -25 32 -31h4q56 22 102 22h5l47 22q18 0 42 19q18 0 28 17q20 11 44 28q13 3 36 34q23 17 51 52q15 8 41 57q18 16 44 46q13 0 22 31q0 1 23 17q2 14 22 40q1 8 39 48q2 10 19 22q9 25 48 69q1 2 37 53q3 13 25 38q4 22 42 48l4 7q1 16 1 19l61 119
q5 0 16 39q18 22 41 80q5 7 6 10l3 27q7 16 8 21q-1 7 -4 7h-6q-12 0 -37 -36q-7 -14 -36 -29q-43 -45 -46 -45h-16zM49 -187h2q2 0 4 -5q0 -2 -6 -5h-2q-3 0 -2 4l1 3q1 3 3 3zM90 -390q6 -2 8 -8l-1 -7q-1 -3 -4 -3h-5q-2 0 -6 8l1 5q0 3 7 5z" />
    <glyph glyph-name="K" unicode="K" horiz-adv-x="744" 
d="M966 2163q0 -3 7 -9l15 4q8 -1 12 -27l23 -3q-3 -6 -1 -11l-13 -19q0 -2 -3 -17q-12 -11 -21 -31l-5 -10q-6 -36 -19 -66l-18 -33q-1 -1 -2 -11q-59 -62 -61 -63l-2 -7q-2 -6 4 -6l16 -2q-4 -11 -1 -11q-36 -58 -52 -76q-1 -3 3 -4q-20 -35 -44 -68q-7 -20 -13 -34
q-3 -7 -14 -22l-2 -14q-18 -32 -35 -46q-12 -36 -11 -40q-22 -44 -43 -72l-4 -18q-43 -50 -49 -63q-2 0 -21 -15l-3 -6q14 -2 9 -11l-6 -12q-22 -48 -51 -46q-29 -10 -31 -14l-3 -9q-1 -2 26 -24q-10 -12 -15 -11l1 -5l-7 -14q-2 -6 -19 -27q-2 -20 -2 -23q-19 -17 -35 -53
l-6 -15q-3 -4 -9 -4q-2 21 0 23l-10 1q-21 2 -29 42q3 6 19 21v15q15 31 61 81q8 25 13 38q8 14 45 61l3 4q1 3 -2 5q12 11 13 15q4 16 7 23q22 25 25 32l20 45q41 90 97 151q-5 13 12 51l2 2q23 40 24 41q4 16 5 18q18 18 21 24q6 12 10 31q26 37 54 35l2 6l-11 3
q-2 -5 -9 -4h-4q4 24 7 31q23 43 30 58h-2l6 7l8 19q0 2 17 22q0 15 -4 15l6 5l7 16l16 28l-5 3h-7l-72 -52q-32 -22 -171 -129l-44 -20q-8 13 -21 14q-7 0 -10 -4v-3q-3 -4 6 -10h6l18 1q-2 -6 0 -6q-5 -11 -67 -58q-2 -6 -32 -25q-6 -13 -53 -50q-14 -29 -76 -36l-2 -6
q11 -14 9 -19q-15 -4 -60 -58q-121 -109 -125 -109q-14 1 -16 -5l-2 -2l4 -9l-3 -3q-45 -61 -86 -84q-17 -40 -47 -60q-14 -32 -78 -111q-11 -26 -28 -23q2 8 -20 24l-2 1q-12 -2 -18 -16q12 -14 7 -22h7q4 9 11 8l9 -1q7 -1 5 -7q-26 -34 -31 -43l-2 -12q-10 -9 -18 -24
q0 -4 3 -4l-9 -12l-7 -15q-44 -74 -49 -85l-2 -5q-4 -8 -20 -22q-27 -30 -32 -42q-45 -57 -74 -101q-34 -25 -49 22l40 48l-17 -1l3 14l3 6l15 9q-6 11 -5 16q17 12 21 21l32 66q72 92 78 92h4q18 42 12 42q19 19 52 68q6 3 21 1l3 5l-4 9l3 5l17 -1q5 13 -11 22
q27 31 83 108l140 151q108 96 115 109q1 2 35 17q4 -3 8 -4l6 6l2 2l-5 12v2q6 13 90 82q12 28 85 39l6 4l1 4l3 13l-36 -5l1 3q83 71 90 70q5 0 39 34q15 2 49 38q56 31 102 74q51 31 83 62q9 0 57 42q74 38 78 38zM843 1834l-9 -12l4 -4q5 -1 14 7l1 2q3 6 -4 6zM653 1476
l-2 -7l18 -2l3 6q2 5 -5 10q-5 0 -14 -7zM183 1502l-3 -7h7q2 6 -4 7zM1187 1359q3 -10 0 -14l-9 -14h6q4 8 10 8q20 -10 19 -14q-57 -70 -240 -216q-14 15 -86 -85l-9 -3l-6 2l-10 9h-3q-7 0 -8 -5l-2 -2q12 -20 7 -30l-72 -59q-23 -26 -81 -75q-5 -10 -103 -101
q-6 1 -49 -44q-12 1 -91 -81q-106 -63 -112 -71q-3 0 -52 -26q-3 -46 27 -84q-2 -17 54 -81q5 -12 4 -27l-19 -19q1 -6 1 -8l12 -1q9 13 16 13q10 -2 25 -38q14 -1 44 -54l-1 -3l-5 4q-16 -2 -20 -13l5 -4q5 0 21 10q8 0 31 -41l-5 -8q-9 0 -11 -4l-3 -6q3 0 28 -21
q-5 -5 -6 -7h3q7 -1 10 5q22 -3 41 -52q6 -1 36 -59q29 -2 46 -33l111 -113l29 -13v-2l-18 -1l-7 -14h4q63 4 71 18q11 -4 13 -15l-8 -17q-30 -29 -73 -25q-5 -11 -21 -9q-15 1 -45 36q-29 15 -32 15l4 8q5 7 37 20v4q1 1 -6 8q11 9 13 14l-10 9h-3q-30 -12 -33 -20l-4 -8
q-9 1 -15 -9q-16 1 -136 138q-15 2 -13 34q8 8 20 15q6 11 -31 21q-13 -5 -19 -5q-20 23 -30 56q-28 7 -19 28q-19 4 -16 10q6 5 8 9q-9 4 -3 17q5 4 7 8l-10 1l-17 -1q6 15 -27 32q-43 63 -40 73q7 -1 10 5l2 7q3 5 -4 6q-12 -13 -19 -14q-9 11 -47 87l-35 44
q-43 -30 -112 -116q-24 -27 -67 -64q-10 -23 -79 -100q-27 -37 -41 -46l-2 -5q-20 -44 -65 -97q-3 -6 -10 -32q-41 -54 -47 -57q-6 -12 -20 -15q-28 11 -33 21l-18 5l7 16l3 16q48 53 137 202q4 11 25 33l21 47q7 16 40 57l8 26q30 51 77 115q-2 13 0 17q28 44 40 53
q6 11 5 22q20 23 66 109q-1 6 1 13q2 2 23 19q0 17 4 24q14 17 17 22q7 33 17 53l9 20q14 8 38 31l13 45q11 10 18 25l2 11q14 18 25 24q-3 15 -1 23q11 7 16 20l4 16q54 96 71 95q24 1 31 0q1 -5 -2 -13l-4 -7q-1 -3 -4 -3q0 -11 5 -12h3l13 5h3l-12 -26q-5 -12 -34 -60
l-3 -15q-41 -59 -49 -76q1 -7 0 -9q-5 -5 -8 -10l-3 -13q-10 -9 -14 -18q-8 -25 -10 -29q-5 2 -90 -154q-6 1 -11 -11q-2 -2 -1 -8l-11 -16q0 -3 1 -8l-27 -37q-3 -5 1 -5q-3 -4 -30 -43l-5 -18l-35 -55l1 -6q-11 -9 -20 -29l-3 -6h4q11 5 100 100q68 68 71 75l-3 1
q38 31 44 45q52 46 82 81q42 37 62 64q43 40 79 59q9 19 91 85q31 20 113 90q16 -2 84 79q78 67 195 150l120 83q6 13 53 17zM497 1222l-1 -2q-1 -7 4 -7l6 6zM410 1128h4l-2 -4h-4zM369 1008l-1 -5l6 -1l2 6h-7zM348 975q-1 -2 -6 -7l5 -3l6 -2l3 6q2 5 -5 6h-3zM631 915
q-19 -19 -22 -24l4 -1q5 0 18 10l7 15h-7zM582 838l3 -8l-3 -8l-9 1l-7 2l-34 -37l-2 -6l10 -1l16 7l17 -1q32 34 36 41q1 13 -17 15q-8 0 -10 -5zM-97 187l-10 -7l-3 -6q-1 -6 4 -7q6 0 18 10q2 5 -9 10z" />
    <glyph glyph-name="L" unicode="L" horiz-adv-x="407" 
d="M1314 2453q17 -6 22 -6q5 6 10 6h3q16 -14 9 -31l-3 -9q11 0 1 -31q3 0 2 -3l-12 -31q-8 -23 -2 -23q-2 -5 -6 -5q-8 -31 -14 -47l-14 -34q-5 -14 -16 -25q-4 -21 -10 -34l-2 -6l-16 -22q-2 -5 0 -18q-21 -55 -86 -156q-3 -22 -5 -30q-19 -48 -81 -143l-11 -37l-13 -7
q6 13 -7 22h-36q-5 0 -3 6l16 40q27 56 50 75q1 2 2 22q30 70 44 87q2 12 -2 12l18 22q4 16 6 25q2 5 14 18q7 26 13 41q5 15 27 46q17 47 12 47l6 6l14 36h-4q-6 0 -12 -17h-7q-8 9 -18 9h-6q-5 0 -36 -32l-4 -9h3q12 3 13 7l5 -4l24 6l-4 -9q-30 -55 -76 -117
q-4 -12 -37 -44l-3 -15q-1 -4 -45 -59q-4 0 -4 -4l-3 -15q-26 -26 -29 -34q-1 -4 0 -10q-71 -99 -194 -300q-2 -6 -57 -81l-3 -16q-33 -67 -70 -114q-6 -15 1 -15q-6 -12 -35 -56h3q-57 -111 -84 -150l-10 -37q-12 -3 -18 -18l-6 -19l-4 -18q-20 -26 -28 -47h3
q-1 -3 -19 -25q1 -5 -2 -12q-6 -6 -7 -9l-5 2h-7q-6 0 -8 -6q-2 -5 15 -9q-4 -3 -24 -46l-2 -13q-4 -12 -33 -52l-22 -56h3q33 32 90 115q14 6 22 17l7 23l93 133q57 77 99 151q47 78 57 78l6 6q12 39 12 42q24 27 32 49q35 49 93 149q7 0 12 15l1 12l96 153l5 5l15 -2l17 2
q18 -11 28 -11l-10 -25q-27 -49 -44 -63q-3 -16 -6 -25q-22 -27 -49 -74q-8 0 -39 -50l-2 -15q-38 -59 -45 -78q-55 -85 -64 -105q-3 0 -15 -13l-3 -8q-7 -19 -89 -149q-51 -65 -120 -175l-101 -130q-4 -8 -47 -61q-9 -24 -51 -59q-10 -25 -69 -93q-6 -17 -50 -65l-40 -59
q-2 -17 -3 -19l-16 -31h3q-21 -21 -35 -59q-1 -20 -2 -21q-21 -23 -24 -29l1 -21q-22 -33 -25 -41l-5 -22q-18 -29 -41 -78q-2 -16 -6 -24q-21 -45 -23 -50l-2 -15q-1 -4 -7 -10q-5 -21 -9 -34l-2 -2q-10 -26 -19 -40q-21 -67 -27 -94q-11 -22 -12 -25q-4 -10 -2 -74l-6 -22
l-7 -18q32 -82 38 -82h32l32 16q6 0 11 -31q5 -1 3 -6l-2 -3q-12 -33 -64 -50l-22 9q-2 0 -19 -2q-14 0 -19 27l-7 -2h-10q-23 38 -21 42q9 0 23 35q-1 19 -12 19l-15 3l-3 -7l5 -12l-11 -6q-18 29 3 81q-16 0 10 111q6 7 7 9l10 53l10 16l13 43q19 39 21 46h-3q19 22 21 29
l4 11q0 17 -2 17l9 15l10 27q3 8 2 13q18 21 20 28q8 19 1 19q12 14 18 28l-1 6q22 23 25 30l3 8l1 21h-3q-26 -21 -68 -69q-11 -10 -42 -52q-9 12 -66 -52l-62 -65q-57 -58 -182 -102q-138 -29 -225 -23q24 8 141 32.5t232 142.5q2 13 51 47q60 23 160 166q53 57 95 95
q4 10 53 72l65 115l2 15l23 34l3 16q14 20 18 28l4 10l3 17q36 68 55 94q9 32 16 49l2 7q2 4 34 52q1 4 6 25q26 38 31 38l8 31l6 13q0 2 -3 2l19 22q2 6 1 12q22 49 39 75q-1 5 0 9q32 32 35 40l2 4q4 13 0 25q12 14 34 55l8 19q0 2 -3 2q24 32 31 48l1 11l138 233
q6 12 109 171q8 24 76 105q29 65 179 271q3 0 4 2l1 4q3 7 1 11q40 54 68 84q7 19 70 97q51 71 63 71zM1143 2013q-2 -6 3 -6h3l5 11h-3q-6 0 -8 -5zM524 1179q-2 -7 3 -7h3q7 0 10 7l3 8h-7q-4 0 -12 -8zM308 647l-2 -6h2l2 6h-2zM69 372l-2 -7q-2 -3 6 -8q23 7 25 12l3 9
q-18 4 -15 10q5 5 6 9h-4q-10 -2 -19 -25zM61 199l-6 -13q-1 -6 5 -6h2l4 11q4 8 -2 8h-3zM-62 -84q1 -7 -1 -9h7q3 6 6 6l-1 6q5 6 8 13h-4q-7 0 -15 -16zM-64 -146l-3 -6q-2 -6 4 -6h19l3 6q2 5 -7 9z" />
    <glyph glyph-name="M" unicode="M" horiz-adv-x="892" 
d="M624 1249h11q46 -14 36 -55q-18 -2 -22 -14q-4 -15 9 -38q-4 -15 -61 -26l-1 -4l3 -13l53 8l-3 -8l-120 -150q-35 -49 -47 -95q-10 -55 -19 -90q-1 -6 -39 -98q8 0 2 -56q-10 -28 -18 -55l-1 -5q0 -4 3 -4l-43 -99q-5 -30 -10 -48q14 0 50 95q73 104 92 151
q142 227 173 227q26 29 40 29q19 -8 16 -17q-10 -13 -12 -21l21 -56l-11 -29q-8 -30 -11 -69q-13 -20 -17 -38q-5 -16 -24 -116l-9 -22q2 -17 -5 -60q-30 -81 -41 -81q4 -32 -5 -99q-4 -13 -26 -56l-1 -4q17 -15 4 -64q10 -4 2 -35l-4 -17q-25 0 -48 -35q-11 0 -17 43
q-22 0 -5 65q-4 22 1 43l7 26q24 92 16 102l32 99v29l10 18l2 26q14 38 21 65q-3 13 -1 25l2 4q22 63 24 68q-4 0 -3 5q-14 0 -39 -55q-14 0 -57 -95q-83 -116 -107 -184q-61 -97 -78 -138q-17 -16 -64 -106q-4 0 -29 -61q-25 0 -54 -29q-43 0 -16 106q11 17 15 31l5 29
q50 142 73 185q4 29 8 47q2 9 18 43q0 9 1 13q17 29 21 43l2 21q16 32 17 39q10 51 7 77q-8 0 -64 -77q-38 -41 -43 -60q-9 -4 -51 -73q-39 -39 -77 -104q-31 -12 -73 -93q-23 -23 -67 -90q-35 -42 -144 -203q-4 0 -12 -3q-10 16 -5 34h-7q-7 -1 -10 -9l-2 -22q-7 0 -8 -3
q-15 0 1 85q96 133 120 159q34 37 97 145q10 0 35 52q18 0 57 82q7 3 100 154q11 8 71 98q11 0 60 65q50 39 60 81q40 27 110 176q11 4 17 26l3 13q1 4 -2 4q12 20 18 39l3 29q7 27 84 78zM585 113h3q10 0 5 -74q16 -106 79 -106q61 0 52 -35q-1 -7 -48 -34q-7 -26 -29 -26
h-7q-74 18 -106 69q-12 21 -8 64q18 28 21 38l1 5h-7q-9 0 -15 -17h-7q-5 0 -10 17l5 9q10 -5 9 -9q18 7 31 25q-7 17 -9 17q2 9 35 35zM561 -89l-2 -4q-1 -9 5 -9l6 9l-6 4h-3z" />
    <glyph glyph-name="N" unicode="N" horiz-adv-x="557" 
d="M457 1089q46 -24 29 -84q-2 -3 -28 -50q-1 -3 1 -11q-23 -39 -70 -92q0 -4 -62 -104l-1 -3h7q6 0 31 42q12 0 35 43q28 11 62 68q27 19 56 19q22 0 13 -69q-11 -14 -16 -30q-5 -36 -6 -43q-2 -6 -24 -61l-3 -31q-17 -44 -29 -65q-1 -22 3 -22q-11 -18 -18 -39
q-1 -4 -1 -11q-4 -8 -5 -12q-6 -18 -9 -38q-14 -37 -24 -72l-6 -20q-7 -26 -48 -35l-2 -4q-1 -7 27 -18q-3 -11 -13 -32q-21 -84 -25 -103q-4 -6 -7 -15q-13 -77 4 -77q-8 -23 19 -84q-4 -16 60 -38q43 35 83 112q5 17 8 37q13 35 27 50q2 3 7 31q6 21 48 34q27 0 13 -65
q-50 -126 -66 -126l-9 -31h-7l-9 11l-14 -38q13 0 10 -7l-1 -5q-29 -22 -32 -30q-12 -41 -89 -65q-13 8 -29 30l6 20h-26q-15 -8 -17 -12q-27 10 -60 119q-7 29 0 107l1 4q14 0 38 31q0 23 -6 23q-6 -8 -7 -11h-3q-11 0 17 114q2 3 23 34l12 74q11 14 16 30q3 13 3 19l8 23
l5 15q4 16 6 31l10 24q2 4 9 37q14 29 15 31q2 4 0 12l12 27l4 26q8 14 14 34h-4q-62 -71 -85 -92q-8 -26 -93 -122q-55 -78 -59 -92q-29 -21 -76 -107q-42 -49 -71 -68q-8 -27 -124 -204q-31 -53 -54 -53q-45 0 -35 34q63 114 106 168q48 89 83 127q8 28 98 157q5 17 49 92
q3 14 38 65l-1 8q83 141 111 179q6 0 9 8v4q9 29 10 43q10 24 18 49l6 23l4 23q47 99 100 99zM525 110l-2 -9q-2 -5 7 -11h2q2 3 16 30h-10q-4 0 -13 -10z" />
    <glyph glyph-name="O" unicode="O" horiz-adv-x="474" 
d="M406 867l-1 -8q0 -5 8 -8l6 1v15q0 5 -6 4q-4 -3 -7 -4zM112 266v-6q-1 -3 2 -2q-8 -27 -8 -38v-2q0 -8 2 -12q-5 -13 -5 -36v-5q-1 -3 2 -2q-1 -34 -55 -71q-36 -7 -42 50q12 112 32 127q17 22 42 119q7 1 17 55q5 1 6 7v18l-5 -1q-4 0 -36 -76q-54 -110 -70 -188l2 -36
q-3 -16 -3 -25q5 -20 4 -33q-5 -11 -5 -18v-4q0 -12 33 -17l14 2q41 11 111 84q1 3 40 49q24 26 80 151l20 40l5 1l11 -7q6 1 6 6q0 2 -14 14q6 1 37 85q25 79 26 105l-3 11q8 19 8 22l-2 21q9 24 9 41q-5 11 -5 23v12q0 12 3 35q-5 12 -5 17q3 6 3 12l-4 3l-6 -1
q-63 -43 -97 -94q-24 -54 -34 -67q-10 -33 -31 -84q-28 -52 -29 -80l-39 -122q-3 -1 -17 -83zM189 704l-7 -14v-6q10 -15 12 -15l6 1q5 1 5 9q-3 27 -16 25zM129 600v-12h5q5 1 5 7v4zM335 468v-7q1 -5 5 -4h3l2 15l-5 2q-5 -2 -5 -6zM-27 272l-2 -7q1 -6 5 -5l3 7q0 6 -6 5
zM41 56v-5l3 -6q16 10 16 15v4l-5 -1zM429 648q-7 -29 -12 -30q-12 -2 -22 -24v-7q15 -12 15 -39q-27 -95 -31 -96q-34 -85 -55 -105q-7 -5 -26 -71q-26 -46 -46 -72q0 -26 -84 -112q-18 -4 -40 -40q-57 -38 -88 -49q-52 2 -61 10l-2 15l-3 -1l-27 -8q-15 31 -14 50v2l15 2
q4 1 10 12v5l-14 -2q-7 -1 -10 44l3 16q-5 39 -5 50q13 37 24 83q11 35 29 77q1 12 26 52q1 28 132 241q24 43 30 44q13 9 42 59q10 7 82 93q77 73 123 96q32 6 32 -10q26 -5 26 -26v-3q0 -5 -6 -30l-5 -1q0 12 -19 9l-3 -1l1 -9q11 2 10 -4q-2 -7 -2 -10l8 -13v-5
q-2 -11 -7 -20q3 1 7 -2l-4 -5l-6 -4l2 -3l1 -1h5q-4 -6 3 -10l-5 -7l-2 1l-3 6l-2 2l-3 -4q2 -39 42 -55q1 -1 22 -24l13 -4q3 -9 72 -28q12 -2 14 0l13 -14l-7 -9l2 -3l12 -5q-19 -24 -23 -36q-5 -8 -113 30l23 -16l45 -19q15 -12 18 -5l5 -2q1 -3 -1 -7v-2q-7 -9 -101 9
l-8 7q-3 2 -17 8l-30 29v1z" />
    <glyph glyph-name="P" unicode="P" horiz-adv-x="581" 
d="M611 957q2 -17 8 -17q11 3 30 17h3q29 -25 26 -64q9 0 19 -66l-4 -19q7 -28 7 -32l-4 -31q-13 -28 -27 -86q-41 -66 -46 -66q-5 3 -13 3q-1 -8 -28 -22q0 -4 10 -10h7q1 10 8 10h8l-1 -2q-37 -28 -62 -80q-29 -20 -48 -60q-6 0 -27 -15q-6 2 -10 2l-4 -6l12 -13
q-44 -50 -82 -78q-2 -24 -59 -54q1 13 -9 13q-4 -6 -4 -10q6 -10 4 -19l-106 -101q0 -5 -160 -114q-125 -54 -193 -57q-79 -155 -153 -287q-27 -41 -37 -41q-12 0 -33 -10q1 4 -3 4q0 -4 -4 -4q-1 -8 29 -21l-42 -102q-8 0 -28 -57q-42 -87 -83 -145q-38 -58 -49 -91
q-25 -37 -56 -95l-7 -3l-21 3l-14 -7q-20 0 -28 36l4 6l4 34q1 12 0 28q21 24 40 106q16 34 39 72l49 120l58 107q10 0 11 7q-11 0 -10 6q33 28 44 60q18 0 55 76q7 3 11 3l2 16l72 113q22 0 38 60q14 11 46 61q16 10 41 62q52 55 58 108q23 22 47 76q15 16 40 79
q26 46 119 280q7 0 9 17l-2 6q24 30 28 66q-16 21 -14 38q11 21 10 28l2 13q-7 19 -9 19q8 34 15 34q65 7 78 13q6 -3 14 -3v-6q-1 -6 -11 -6l-1 -4q7 -7 5 -13h6l16 10h7q11 -1 8 -25q-26 -47 -32 -108q-44 -38 -49 -94q-21 -23 -22 -29l1 -22q-12 -13 -37 -82
q-21 -55 -37 -82l-1 -12h8q24 36 31 43q8 0 22 36q43 31 57 31l1 7q-1 6 -7 6q-8 -4 -11 -4v7q77 92 79 104q41 53 56 61q0 -8 6 -8l2 8q-7 9 -5 19q46 41 47 59q138 144 162 158h7l17 -3l5 7l2 19q37 9 43 9zM-76 73l-2 -8q126 23 129 48q68 45 80 64q55 35 127 110
q107 92 148 152q17 6 99 107q47 67 67 88q-1 8 34 57q3 24 7 35q-1 30 3 57l3 25l-17 76h-10q-8 0 -35 -32l-106 -107q-2 -16 -57 -66q-3 -24 -124 -171q-22 -36 -163 -203q-2 -14 -72 -75q-1 -17 -99 -136q-7 0 -12 -21zM645 700l-4 -6q1 -5 7 -5l4 5q0 6 -7 6zM644 679
l-1 -3q1 -6 6 -6q7 0 8 6v3q1 6 -6 6q-8 -1 -7 -6zM54 372q1 -6 7 -6t7 6q1 7 -6 7q-6 -1 -8 -7zM343 313l-9 -23l9 -6l9 10v11q1 8 -5 8h-4zM-137 16l-1 -10h12l1 10h-12zM-379 -316l-2 -13l34 -12q17 6 18 12q-13 5 -12 18h-4q-24 -5 -34 -5zM-563 -610l-6 -16v-10h10
q6 0 7 10l-1 16h-10zM-616 -802l-5 -8v-5h10l1 5q1 8 -6 8zM52 732q40 -10 37 -28q-4 -21 -22 -21h-19q-14 0 -8 38z" />
    <glyph glyph-name="Q" unicode="Q" horiz-adv-x="574" 
d="M-612 -1814l-49 -74l21 161q22 57 45 148l5 31q12 19 15 28l1 22q15 28 15 31q2 32 8 55q7 28 33 89l7 23q0 4 -3 4q6 9 7 14q14 54 41 129l-1 9l25 59l3 23q18 31 29 75h-3q53 100 121 299q7 26 66 125l2 18l149 292q14 -1 49 98l59 88l7 26q13 46 74 142
q68 126 108 186q6 24 79 150l2 5h-4q-77 -96 -177 -172q-14 -24 -81 -59q-122 -84 -152 -82q-10 8 -9 14l9 36q-11 10 -13 10l4 14q5 18 -4 60q87 195 163 255q15 4 56 65q136 115 212 142q64 -7 53 -49q-14 -29 -15 -36q1 -19 -2 -27h4q18 16 73 87q41 32 85 100
q26 12 30 29v9q61 61 76 106q6 0 65 91l32 53q55 99 99 145q4 16 66 92q41 68 99 139q49 25 85 43q51 19 53 -26q-17 -23 -33 -76q-109 -150 -254 -324l-135 -174q-77 -108 -108 -149q-90 -159 -136 -215q-8 -30 -114 -195l-71 -132l-66 -97q-12 -45 -59 -115l-1 -19
q-25 -35 -65 -119q-13 -13 -60 -120q-51 -77 -54 -88q-22 -70 -60 -115q-5 -22 -29 -62l-1 -19q-27 -28 -106 -212l-4 -27l-71 -161q-2 -3 -4 -27q-30 -65 -76 -187l8 -10l79 141q9 32 38 80q28 72 42 85l29 -6l27 4l-51 10q2 5 -1 6q28 36 41 83q7 6 55 98q40 82 94 168
q17 41 57 92q14 52 72 124l2 4q1 5 -3 5q54 63 70 123q132 208 229 338q10 -1 28 54q18 14 94 131q5 0 18 17v4q2 5 -2 5q60 76 87 128q29 26 37 56q5 17 8 41q14 53 87 68q15 5 16 8l55 -13l-1 -4q-9 -10 -10 -17l-12 5q-44 -14 -47 -25q0 -19 10 -28h6l12 8h3
q-5 -20 34 -35l-1 -4q-5 -20 -81 -45q-22 -31 -70 -82q-36 -42 -75 -106q-28 -21 -61 -91q-13 0 -54 -80q-15 -14 -129 -179l-50 -80q-8 -31 -81 -117l-4 -28q-3 -14 -78 -123q-42 -84 -130 -230q-5 -21 -51 -84q-25 -66 -88 -168q-33 -78 -112 -226q-18 -60 -84 -146
q-4 -25 -6 -36q-33 -71 -65 -104l-62 16l47 -28q6 -41 4 -48q-34 -56 -130 -295q-27 -38 -65 -126zM119 -287l4 13h-3q-6 1 -9 -8l5 -5h3zM271 613h-3q-71 -52 -121 -97q-110 -105 -116 -128q-39 -61 -43 -77q3 0 1 -5q80 30 92 74q13 14 53 36q6 20 57 57q69 116 80 140z
" />
    <glyph glyph-name="R" unicode="R" horiz-adv-x="454" 
d="M504 771l3 1q10 0 26 -14q5 -3 5 -23q13 -17 15 -32v-8q-1 -15 -8 -21q-1 -1 -3 -7q2 -3 1 -5v0q-2 -12 -19 -32q-8 -15 -24 -23q-11 -10 -27 -11q-15 -2 -25 24q0 4 -12 8l-10 13q-1 3 -17 5h-2q-6 -1 -25 -21q-6 -1 -41 -37q-15 -19 -20 -20q-4 -1 -6 -8q-5 -6 -16 -20
q-57 -62 -58 -62h-3h-7q-3 -1 -3 -5l-1 -1q0 -1 3 -7l-18 -25q-16 -28 -28 -29q-4 -1 -7 -7q0 -4 1 -6q-1 -9 -20 -31q-10 -8 -11 -16q0 -3 -18 -25q-24 -40 -32 -41l-3 -1q-2 0 -4 1l-3 -1q-1 -1 -2 -4v-2l3 -4l-1 -3q0 -4 -12 -17q-8 -13 -45 -54q-3 -1 -5 -1l-7 -1
q-6 -3 -5 -5l-1 -1q2 -7 1 -12q-9 -22 -17 -23q-3 -2 -7 -10q-11 -8 -16 -18q-3 -15 -19 -34l-29 -39q-6 -16 -33 -50q-22 -31 -32 -50q-15 -26 -33 -47q-22 -19 -36 -21h-2q-7 1 -6 6v1q0 3 15 23q3 5 12 24q23 31 29 51q3 6 19 34q10 25 30 57q3 12 12 18q5 2 5 6v1
q-3 8 -2 9v1q-1 3 6 11v3v2q0 5 13 17q14 17 16 30q2 5 21 38q5 13 10 21q13 8 13 12q0 3 2 5l-1 1q0 11 27 48q1 7 12 20q10 12 19 35q15 21 33 56q13 22 13 23v7q0 2 10 11q6 13 19 25q1 11 10 28q9 6 10 16q19 29 23 48q1 2 9 15q5 13 5 15q0 4 -3 4q-5 -1 -19 -14l-4 -3
l-3 1q-2 0 -10 -9q-29 -20 -41 -21q-4 -1 -12 -10q-11 -7 -14 -8l-4 -1q-3 0 -4 8q-1 0 -3 1q-6 -2 -5 -6q-1 -1 0 -4q-3 -11 -11 -12q-13 -9 -22 -10q-4 -4 -7 -11q-18 -15 -32 -20q-1 -1 -3 -5q-2 0 -20 -11q-4 -1 -9 -8q-4 -3 -29 -16q-19 -9 -21 -9q-8 0 -7 2v1
q3 6 5 12q-2 5 -5 4h-1q-4 -1 -4 -4q3 -5 3 -6q-1 -6 -1 -7l1 -1q-9 -15 -20 -17q-12 -4 -21 -5q-5 -1 -23 -2q-10 -2 -21 -3q-8 -1 -14 13q0 4 -1 7v1q2 12 13 30q6 4 13 14q23 23 51 27q0 1 8 2q13 0 26 -3v0q4 2 15 11q8 4 29 17q11 5 15 10q24 17 35 23q4 2 25 17
q10 5 17 15q8 1 25 11q13 6 48 29q16 7 22 11l47 34q19 10 45 35q22 20 38 22l4 1q16 1 17 -22v-1q-6 -27 -17 -58q0 -8 7 -8q3 -4 3 -7t-5 -3h-1q-6 1 -9 1q-1 -1 -6 -8q-3 -3 -13 -26q-5 -6 -7 -17q-9 -7 -9 -15l1 -1q-1 -5 2 -7q15 9 24 17q10 16 34 30q7 6 13 17
q5 4 7 4l6 1q5 1 5 5q-3 7 -2 10q1 7 25 26q40 40 58 48q10 6 27 18q35 17 42 18q4 0 7 1q4 0 11 1q14 4 20 4zM445 706q0 -2 5 -5h2q3 1 6 4v1q-1 8 -6 7h-2q-5 -4 -5 -7zM315 623q0 -2 3 -4h1q4 1 6 8q1 4 -4 4q-6 -3 -6 -8zM299 599v-3q0 -2 3 -2q2 1 2 3l1 2q-1 1 -3 2
h-2q-1 -1 -1 -2zM297 571v-2q5 -5 12 -4q4 0 7 4q1 9 -5 8h-10q-4 -2 -4 -6zM310 539q10 -2 9 -14q-2 -10 -8 -11q-10 4 -9 15q2 10 8 10zM8 334h1q1 1 2 -1l-3 -3h-1q-1 0 -2 2q1 1 3 2zM-275 242q3 0 5 -3v-3q-1 -3 -3 -3q-3 0 -5 2v1q0 5 3 6zM6 271l1 -1l3 1q-1 1 1 3v0
q-5 -2 -5 -3zM-17 236v-4q0 -1 2 -2q6 3 6 5l-1 2q1 1 0 2l-4 -1zM-21 224v0q-1 -2 0 -2t2 2q0 1 -1 1v0q-1 0 -1 -1zM-18 195l1 -3v0l5 1q-1 -2 3 -1h1q5 0 8 7q-2 7 -8 7l-1 -1q-6 0 -9 -10zM-25 169v-4q-1 -4 5 -3q3 0 7 9v1q-1 5 -7 5q-3 -1 -5 -8zM-290 110q3 0 3 -3
q-1 -3 -4 -3v0q-3 1 -2 4q1 2 3 2zM-82 125v-2h1v2h-1z" />
    <glyph glyph-name="S" unicode="S" horiz-adv-x="809" 
d="M707 1121q8 1 47 1l-6 -11l-1 -7l23 4q6 1 6 12l14 2q39 -21 39 -43l-7 -13l7 1q3 0 3 3q24 3 38 -84v-5l-9 -16q0 -6 18 -17v-29q-17 -3 -22 -16l1 -13l21 -9v-7q0 -39 -39 -96q-4 -1 -25 -47q-59 -52 -122 -119q-11 -3 -44 -42q-12 -3 -35 -39q-40 -31 -95 -67
q-5 0 -12 12v6q10 1 18 29q26 4 45 72q44 29 44 42q0 17 69 59q26 24 25 27q44 65 83 71l18 32v14l-5 8q-1 7 8 8l1 3q-1 8 -6 29q6 25 6 26q-6 12 -6 22l6 24q1 13 -59 41q-22 23 -66 41l-9 -1q-34 -30 -129 -104q0 -18 -79 -62q-61 -68 -104 -133q-29 -62 -66 -111
q-12 -42 -20 -54q-41 -98 -41 -99q-3 -2 -3 -5l3 -16q-13 -22 -20 -84q-4 -1 -9 -11v-26l-4 -39l4 1q-9 -42 -19 -57l3 -17q-3 -18 -3 -33v-2q-72 5 -23 -7q21 2 26 -29l-6 -60l6 -14q-3 -27 -18 -29l-1 -3q12 -11 12 -21q0 -7 -9 -33q3 -18 3 -29t-21 -55q-4 2 -8 2l-1 -7
l7 -8l-1 -4q-27 -59 -52 -63q-2 0 -41 -3l-12 -6q-92 3 -111 21q-17 6 -31 34q-28 -4 -47 31q-28 18 -27 38q-1 71 41 77v-2q-1 -21 21 -16h6v4q1 5 -8 37q1 6 5 7l3 1q55 8 54 -121q17 -38 63 -31q10 -9 31 -6q0 9 -10 29q3 12 3 22l10 1l28 6q-20 5 -30 4l-5 6l1 16
q0 18 4 46q-7 10 -7 15q0 21 13 38q16 27 -6 41l-7 -1l-1 3q0 6 24 84l-4 16q34 96 49 100q2 53 60 185q15 25 27 69q16 57 31 60q21 53 57 106q8 31 137 199q73 67 82 68q-1 15 66 51q0 4 9 11q6 0 6 -9l6 1q20 39 64 45q-1 10 47 27zM794 825h3q-5 -23 -13 -24v3
q3 19 10 21zM646 637l-1 -4q1 -6 6 -5l7 1l-1 10zM552 570l3 1v-10q-1 -5 -10 -11l-7 -1v3q9 18 14 18zM187 447l3 1q18 3 19 22l-9 -1q-13 -9 -13 -22zM133 354v-9l-3 -24l6 1q0 16 12 18l1 7q-1 8 -16 7zM117 55q1 -7 6 -6l3 7v6h-3q-5 -3 -6 -7zM150 -79l9 1l-1 3
q-14 9 -14 14zM14 -165q1 -7 7 -6l3 8z" />
    <glyph glyph-name="T" unicode="T" horiz-adv-x="416" 
d="M866 1914l45 -1q31 -2 11 -52q-20 -35 -36 -69v-8l-12 -18l-24 -52q-6 -12 -8 -23q-8 -10 -13 -22l-4 -7q-5 -10 -9 -26q-21 -24 -23 -30l-19 -47l-58 -103q-6 -19 -17 -40q-2 -6 -13 -15q-8 -26 -11 -29q-28 -41 -32 -51l-10 -26q-26 -40 -46 -63q-2 -18 -3 -23
q-10 -10 -52 -74l6 -3q19 14 119 57q30 19 126 55q73 49 108 46q3 6 21 16q11 -1 35 -26h3q33 6 35 12q8 16 -22 23q-9 6 -8 9q29 18 109 45l29 -11l6 5l3 6l-5 13l3 5q14 -1 39 12l9 -1q-7 -14 0 -14l-6 -5l-4 -7l13 -1q4 9 11 9q13 -19 22 -20q-47 -27 -86 -35
q-30 -19 -111 -43q-50 -35 -139 -64q-15 -14 -145 -70q-79 -31 -217 -100q-4 -15 -5 -17q-20 -21 -25 -30q-1 -4 -1 -10l-10 -14q-3 -7 -2 -11q-10 -16 -15 -26l-7 -14l-6 -19q-10 -9 -20 -30l-5 -17q-13 -15 -30 -44q2 -12 -2 -17q-31 -58 -40 -81l-11 -26q-11 -12 -13 -17
q-13 -34 -12 -38q-19 -27 -26 -42q3 -16 -9 -38l-17 -38q-4 -7 -3 -12q-5 -5 -8 -11q-5 -12 -2 -12l-13 -20l-18 -38l-4 -14h-3q1 -6 0 -9l8 -1q34 31 116 69q21 23 53 35q10 13 52 29q88 64 146 78q25 28 94 65q3 5 13 14l14 -4h4q3 9 -6 9q2 4 19 11h7l-13 -16
q1 -12 18 -13l15 -1q15 -1 18 5v13q3 -2 4 2q-12 7 -8 15l-22 2q16 19 51 41q106 69 173 121q13 -1 38 27q52 43 103 78q9 17 23 20l7 -7h3l2 4q2 4 1 17q30 39 53 38q-2 -6 12 -10q8 -1 22 19l13 -7q10 15 35 34q12 26 -11 27q12 24 71 34q-3 -7 1 -19q-21 -16 -58 -55
q-3 -7 -67 -67q-16 -28 -119 -104h-3l-11 5q-17 -2 -25 -20q-7 -21 -7 -23q-25 -21 -76 -37l-6 -5l-2 -6q16 -1 13 -6q-20 -7 -50 -38q-19 -2 -181 -118q-21 -13 -60 -20q-6 -11 -32 -12q-8 7 -22 8l-10 1q-6 -1 -8 -6l-2 -3l11 -13l-7 -14q19 -1 12 -16q-4 1 -152 -89
q-9 0 -102 -61q-184 -109 -197 -111l-33 -3q-31 2 -7 54h-6q-7 0 -9 -5q-5 -9 1 -24l-15 -32l-5 -17q-5 -5 -10 -14l-23 -166q10 -17 7 -130q6 0 4 -65q27 -27 20 -41l-12 -4q-5 -9 14 -11l-6 -6l-2 -5q-4 -7 16 -13q0 -6 -2 -12q-26 -19 -30 -27l3 -1l23 1q8 -4 7 -6
q-6 -5 -7 -8q22 -15 37 -16l22 11q26 -25 86 -57q86 -18 79 -33q-58 -24 -129 -7q-82 15 -94 54q-27 2 -59 38l-18 30l-18 19q-28 28 -14 61q-15 14 -13 18q8 17 -14 75l4 17l7 -3q78 9 84 20l-9 9h-6l-17 -9l-46 1l-11 -14h-3q8 36 -2 90q7 15 -2 29q2 5 56 8
q-8 -18 10 -20l6 7q3 6 -1 26l-3 1q-10 0 -67 -10q13 60 20 136l7 15q8 18 52 40l2 7q1 8 -15 9l-19 1q5 9 4 21l9 12q1 4 13 35q19 25 19 28q0 21 2 24q49 94 58 94q2 19 3 23q16 14 20 20q5 11 9 26q11 19 21 38l3 20l23 31q11 29 8 29q46 58 52 69v2q10 20 3 20l43 69
l3 12q4 4 34 45l2 12q10 14 13 14q-1 6 1 9h-6q-137 -60 -199 -80q-32 -20 -78 -30q-95 -46 -110 -45q-1 5 1 12h-6q-33 -31 -222 -75q-5 24 -20 25l-4 -9q-14 -29 -58 -26q-2 -5 -24 -3q-9 6 -15 6h-33q-51 21 -36 54q-20 2 -15 28q-7 0 2 39q57 55 77 62q11 -4 6 -15
q-3 1 -4 -3l16 -13q22 -2 31 19h3q9 -1 -1 -51q-26 -30 -29 -34q2 -21 50 -25l33 -2q11 -1 100 31q10 -1 73 21q31 -2 136 44q8 0 96 40q92 33 97 41q22 -2 89 31q55 24 82 40q23 -3 65 63l3 8q7 18 3 19q12 12 42 62h-4l19 19q2 2 6 18q57 87 78 125l-1 7q5 9 44 65l15 32
l5 17q18 23 64 117q13 31 15 36q37 71 44 74l16 47q10 18 20 37l4 8q2 4 -1 4l6 5l18 40q11 24 43 36zM1509 1523q41 -2 29 -74q-12 -11 -16 -19q-9 -20 -3 -21l-6 -5l-13 -30q-7 -13 -24 -27q-2 -5 -3 -27q-18 -41 -78 -92q-15 -32 -45 -48q-7 1 -2 15q3 0 3 2q-11 1 -5 17
h-9l-15 -32l-12 -19h-6l-7 6l-13 1q-3 0 -22 -22l-12 -5h-7l1 3q15 14 46 57q40 26 113 122q3 8 7 23q19 25 21 32q3 4 19 46q15 19 18 25q-42 4 -237 -73l-35 -7q4 10 -23 17q2 9 22 22l2 6l-12 1l3 5q68 26 91 29q23 20 119 48l17 -4q6 13 79 24q0 3 15 4zM1397 1472
l-2 -5h3l2 5h-3zM6 898l-4 -8l9 -1l33 22l1 2q-24 2 -39 -15zM-164 845q-4 -12 -19 -14q-11 1 -22 14l-7 2v-4l-10 -26l22 -2q45 1 56 23l-7 6zM790 754l-7 -15h10l7 14zM-404 825l-3 -6l6 -1l3 7h-6zM96 -168q11 -5 8 -10v-2h-3q-5 4 -9 4z" />
    <glyph glyph-name="U" unicode="U" horiz-adv-x="786" 
d="M132 774l4 10l-27 -28l-41 -48l-63 -44l-39 -32l-28 -20l-1 -48l36 40l76 60l62 56l12 23q4 18 9 31zM155 806l-19 -22l18 39l11 -2q52 33 38 -36q-16 -43 -56 -226q-6 -76 -8 -83q-3 -7 1 -33q-2 -3 -15 -27q13 -4 -12 -38q25 -25 19 -40q-5 -7 -8 -14l-2 -3l8 -3
q-6 -80 16 -131q20 -80 61 -106q24 -7 56 46q41 45 70 89q2 7 1 13q17 25 24 43q44 65 57 97l3 10q14 -2 29 23q35 4 41 15l10 28q-6 21 -4 26q6 70 11 81l42 107q19 48 36 73q60 89 113 106q3 -6 9 -7l8 -4l6 1q-1 -1 9 -13q10 -28 28 -34q25 -54 36 -59l56 -68
q62 -62 54 -86l18 -1q-7 -24 -8 -40q-13 -17 -11 -97q-33 0 -44 -9q-98 111 -133 168l-11 1q7 20 1 24l-9 2l-15 -7q-16 6 -23 33q-3 2 -30 -26l-1 -2q-4 -10 -4 -17q-3 3 -63 -140q-30 -78 -53 -91l-2 -7q-1 -16 -3 -26l-4 -9q-17 -43 -46 -59l-5 -14q3 -22 3 -23l-6 -13
q-26 -15 -82 -111l-2 -17l-9 -13q-33 -19 -42 -40q-8 -22 -50 -46l-108 -31l-5 1q-5 26 -18 38h-14q-9 9 -23 12q-13 122 -20 124q-4 1 -21 0q-3 0 -1 11q3 0 6 5v2q8 22 -2 38q-8 1 -17 0q-8 5 -1 54q-5 51 1 62q14 36 -3 56q17 36 24 54q2 6 2 13q-14 6 10 68q9 65 16 82
q12 109 29 166z" />
    <glyph glyph-name="V" unicode="V" horiz-adv-x="547" 
d="M1688 1313q27 -3 42 -3h6q2 0 3 3q7 0 18 -16q6 2 9 2q6 -5 6 -40q7 0 18 -20l-1 -2l-7 -8l-1 -3q5 -7 4 -11q-6 -14 -6 -16q0 -11 3 -11l-6 -19l-7 -33q-21 -43 -41 -43l-1 -19q-3 -7 -32 -25l-10 -19q6 -5 10 -5q-3 -15 -61 -60q-15 0 -27 -17l-1 -5h8q-6 -28 -135 -98
q-20 -14 -121 -52q-5 3 -8 3q-1 -4 -12 -8q-6 0 -13 19q-11 0 -16 5h-5l-16 -11l-1 -19l-6 -2l-8 8q-6 -11 -14 -11l-1 -19q-56 -22 -105 -22q-1 14 -16 14q-1 -4 -30 -25h-11q2 8 -13 14q1 5 -2 5q1 6 31 30q-2 0 -17 3q-24 -19 -28 -38q4 0 9 -11l-1 -3l-4 -5l-10 3
l-28 -3l-18 3l-16 -6l-15 3h-3q-9 0 -14 -3l-39 6l-29 -3l-18 3q-18 -3 -36 -3l-26 3l-37 -6q-12 8 -20 8q-12 0 -44 -32q-29 -24 -65 -38q-2 -10 -52 -41q-150 -111 -155 -134q-24 0 -38 -40q-27 -23 -68 -41q-47 -46 -105 -128q-29 -19 -31 -19h-8l6 13l-16 3
q-23 -39 -55 -57q-17 -20 -39 -33q-2 -8 -17 -16q2 8 -4 8h-2q-27 -23 -30 -38q11 0 10 -5q-5 -25 -45 -49q-11 0 -54 -63q-25 -27 -48 -27q-14 0 -18 35q25 29 37 60q45 43 63 101q5 2 42 73q8 0 65 109q1 3 5 8q1 19 3 30q46 97 49 109q1 8 -1 22q6 15 8 24q8 82 -3 82h-9
l-19 -3q-11 6 -26 6q-42 -14 -97 -90q-23 -17 -24 -22l1 -11l-43 -68q-14 -69 -63 -84h-3q-6 0 -11 3q-5 -3 -11 -3h-2l2 13q-18 0 -24 28q0 2 6 21q-1 20 1 30q1 6 41 41q5 23 18 25q6 -3 8 -3q34 60 134 152q112 59 132 66q35 -9 33 -19l-2 -9h-8l-1 -2q14 -19 29 -19
q5 0 11 13q26 0 29 -57q15 -29 19 -68q-7 -11 -9 -19q3 -10 1 -22l-5 -2q-1 -5 8 -25q-6 -14 -7 -16q1 -25 -1 -36h3q5 0 26 25q38 13 67 49q6 0 43 35q14 5 62 49q5 0 55 44q34 28 80 60l1 8h-11q-25 0 -47 11q-18 -6 -23 -6q-28 16 -112 25l-19 -3q-17 8 -29 8h-3
q-2 0 -2 -3q-83 21 -80 38q2 0 37 25q6 -3 9 -3l21 11h10q9 0 33 -16l13 2q15 -2 25 -2l5 2q24 -10 84 -13q0 -3 28 -11q9 0 19 8q-2 5 -2 8q5 24 28 30q17 -8 20 -8q14 0 15 6q21 -9 31 -9l14 3q10 -3 21 -3h3q3 0 4 3q11 -5 23 -5q28 0 81 49q5 0 50 38q15 0 39 27
q87 62 127 84l14 -2h3q4 0 10 10v14q19 11 36 16v-2q-3 -11 -19 -25l-1 -3q4 0 35 -16l-1 -3q-45 -37 -80 -51q-47 -43 -98 -66q-55 -51 -64 -51l-2 -8q31 -3 45 -3h8q0 -2 1 -11h5q3 12 20 16q10 -5 18 -5q7 0 31 5l13 -2l43 8q3 0 25 -6q20 0 69 11q22 -3 26 -3
q10 14 25 14q-1 -5 21 -27h3q5 0 6 5q2 8 -6 25q3 0 4 2l4 -2q49 13 102 19q27 16 44 16q3 0 3 -3q33 17 73 25q20 18 113 52q1 3 10 8h6l-2 -8h5q6 0 7 5l1 3q-9 0 -8 5q27 6 53 33q24 36 50 87q7 4 19 24q4 36 -2 47l8 27l-22 38h-38q-24 0 -57 -11l-5 3l-49 -19
q-9 5 -21 5q-19 0 -32 -24l-104 -41q-16 5 -23 5h-3q-6 -1 -6 -5l5 -11q0 -3 -32 -14q-10 6 -15 6q-4 -21 -61 -46q-31 -12 -37 -19q-8 5 -15 5h-5q-2 -9 4 -19q-49 -25 -68 -38q-4 3 -7 3l4 21q2 11 -11 28q25 25 53 32h5q6 0 5 -16h14l1 5q1 6 -5 6q4 5 5 8l-1 11
q2 9 34 22q1 3 68 38q50 22 92 35q4 4 69 33q5 0 74 30h3l-2 -6l-7 -8q3 0 2 -3q12 6 18 6l3 13q4 4 89 27q18 -5 32 -5h2l-4 -14q5 0 4 -5l-4 -16h11q5 9 6 11v19q30 16 34 16zM1208 1133l-2 -8v-13h8q19 8 23 19q-2 19 -7 19h-2q-17 0 -20 -17zM1350 891l-1 -5q0 -6 4 -6
l8 9v2q1 6 -5 6q-5 -1 -6 -6zM1402 878l-2 -6h3q5 0 7 6l1 5h-2q-7 -1 -7 -5zM1256 853q0 -5 4 -5h6q1 8 5 19l-4 2q-9 -2 -11 -16zM1408 856l-1 -6h3l1 6h-3zM1209 801q0 -1 14 -16h11q5 0 7 8q-2 6 -2 8q23 17 34 17l1 5h-16q-43 -13 -49 -22zM656 810l-1 -3q9 -19 22 -19
l13 13l1 3q-17 0 -26 11h-2q-6 -1 -7 -5zM1074 807l-18 -25q11 3 25 3q1 4 -6 8l4 6v2q1 6 -5 6zM1138 793q-25 3 -30 3q-9 -3 -13 -11l31 -3q46 17 59 17l18 -3l1 5h-3q-14 0 -37 6q-21 -14 -26 -14zM264 807h2q6 -1 5 -6h-3q-5 0 -4 6zM1020 766h11q3 0 17 14q-3 11 -7 11
h-2q-9 0 -19 -25zM828 785l-2 -8h16l2 8q-2 0 -7 3q-6 -3 -9 -3zM628 725l-2 -11h6q8 3 11 17h-8q-6 -1 -7 -6zM678 714h3l13 3l2 8h-5q-4 0 -13 -11zM65 657l-1 -5h3l1 5h-3zM602 644l-2 -9q-1 -5 4 -5h3q5 0 6 5q1 4 -6 9h-5zM494 638l-2 -8q0 -5 5 -5l4 5q-2 5 -1 8h-6z
M406 510v-2q-1 -6 3 -6l5 6v2h-8zM191 453l-1 -5q-1 -6 3 -6h8l2 6q-4 0 -12 5zM179 434q-16 -25 -17 -30l-2 -8h8q4 0 13 11l2 8l-4 8v3l4 5zM-127 388l-5 -6l-1 -5h11l1 3q1 4 -6 8z" />
    <glyph glyph-name="W" unicode="W" horiz-adv-x="843" 
d="M636 924l30 -11l12 5q61 -3 56 -28h2q8 5 12 5q32 -31 38 -31q8 0 5 -17h16q-2 -10 22 -20q-7 -34 33 -77q-5 -39 -2 -72q-11 -32 -14 -45l1 -12l-33 -83q-9 -14 -17 -14l-2 -14q-44 -69 -51 -69q-17 14 -26 14l-2 -25q-12 -59 -83 -109l-173 -157q-34 -26 -36 -26
q-2 -10 -78 -71q-3 -13 -51 -29h-3q-51 9 -47 29q-5 0 0 23q2 13 6 17q1 20 3 31l5 26q21 65 24 77q-2 6 -1 9l31 77l3 17q23 77 29 77l2 12q4 17 30 80h-8q-24 -24 -64 -43q-5 -16 -81 -57q-59 -49 -109 -123q-17 -10 -34 -40q-42 -46 -47 -46q-1 -8 -62 -97
q-24 -69 -40 -69q-2 -11 -25 -45q-26 -66 -69 -66q-19 10 -14 34q17 33 37 80l50 92q46 71 69 94q4 21 35 66q26 64 86 180q5 26 55 131q10 49 4 74q11 41 20 57q-2 11 -4 55q4 20 34 28q61 -24 55 -57q5 0 0 -23q-7 -9 -8 -17l-1 -6q-2 -6 0 -11q-44 -101 -59 -149
q-5 0 -14 -20l-2 -20q-7 -13 -14 -20q-2 -10 -23 -57l-1 -5q18 0 69 48q23 8 105 74q43 26 96 46q40 -12 35 -37l-4 -20q-3 -16 -7 -46q-20 -61 -32 -71l-3 -17q-66 -183 -87 -286h5q7 1 72 69q23 14 93 77q4 0 74 66q8 0 61 54q13 0 45 54q64 61 83 106q22 21 22 23l4 20
q1 6 0 11q18 38 32 80l1 3q3 13 -27 66q2 9 -41 57q0 3 2 3q-1 5 0 8h-6l-2 -11q-23 5 -44 31l-17 -3l-47 12q-30 -13 -41 -20h-3q2 13 -35 25q-1 5 0 12l1 3q8 41 89 54zM698 861l7 -6h11l6 15l1 8h-3q-17 -6 -22 -17zM743 824v-3h8q27 15 28 20q-9 0 -16 9h-3
q-6 0 -17 -26zM775 567q-4 -18 8 -37h3l5 11q-3 28 -7 29h-3zM147 533q-14 -19 -15 -26q-2 -9 32 -12q4 22 -11 38h-6z" />
    <glyph glyph-name="X" unicode="X" horiz-adv-x="756" 
d="M729 894q34 -30 33 -55q-8 -38 -137 -113q-12 -8 -112 -127q-16 0 -69 -71l-80 -85q-19 0 -32 -38l-1 -4q-5 -27 -8 -55q-6 -16 -9 -33l-2 -21q-11 -5 -15 -26q12 -16 3 -59q15 -85 30 -96l20 -5h15l19 5q5 -5 9 -5q44 0 77 38h3q7 0 6 -42q-3 0 -3 -4h3l35 25
q3 17 -14 38q55 35 72 59q16 5 51 38q46 0 92 131q7 0 16 37l1 5q2 8 -10.5 36.5t-50.5 64.5q1 5 36 17q9 0 27 -21l15 4q40 -17 43 -17l-2 -8l-13 -17l-2 -9q13 -2 11 -12l-9 -30q-3 -16 5 -42q-19 -95 -97 -185q-28 -28 -110 -85q-14 -28 -83 -54q1 9 -13 12l-5 -8v-4
l3 -13l-1 -4q-64 -47 -117 -47q-82 2 -76 30q4 7 6 17l11 -4l16 4l1 4q-3 6 -34 25q3 17 -22 17q-3 -8 -4 -12h-9q1 46 -9 67q24 17 36 38l2 8l-4 13l-16 -4q-9 8 -13 8q-7 -4 -11 -4q-2 21 0 29q1 6 11 42q9 43 -3 43q-36 -35 -79 -64q-21 -42 -55 -63q-97 -105 -126 -105
h-18l-5 -25q-7 -33 -61 -76q-16 -26 -63 -59q-41 -49 -150 -135q-11 0 -63 -55l-23 -8h-9l-1 -4l-1 -21q-103 -85 -132 -85q-67 -39 -72 -67q-73 -59 -79 -59q-12 0 -61 -42h-2q-7 0 -2 21q7 4 9 4q0 -4 3 -4q0 4 3 4l-1 9l3 16q1 4 13 34q-14 0 -30 -29l-31 -21h-3
q-3 8 -28 8q18 21 61 46q41 27 101 76q56 41 85 42q7 39 95 80q54 64 120 106q31 42 82 75q3 17 24 17q-4 -21 2 -21h9q4 21 16 21l4 17h-3l-16 -12h-11q25 33 46 33l52 51q3 16 57 55q58 84 86 84q12 7 42 55q22 11 42 33l7 -8h10l5 25q22 39 71 72q4 20 45 46q13 25 32 25
q-2 -12 4 -12h12l2 12q2 9 -13 9l2 8l32 25l1 5l7 50q4 0 20 21l3 13h-6q-7 0 -10 -13h-6q2 10 1 17q18 50 20 59q-2 21 -4 21l7 21v4q0 38 -34 38h-6q-61 0 -147 -113q-9 -9 -29 -17l2 8q5 15 24 34q2 8 -5 8q-6 0 -8 -12q-2 0 -18 4l-6 -4q-6 4 -9 4l-18 -4l-6 -26
q0 -4 -26 -25l2 -8q-24 -39 -34 -64h-13q-9 0 -9 68q8 43 67 84q21 34 112 80q24 35 65 51q2 12 75 29l12 -4l-1 -4l-5 -9h3q5 0 20 9q25 -51 27 -51h2q9 9 14 9q19 0 14 -114l-6 -30q-3 -12 -15 -12l-2 -21l-6 -5h-16q0 -2 -5 -16h2l22 8q-3 -17 8 -25q152 185 169 185
q107 152 113 152q4 -32 13 -38h7q2 8 16 25q-3 0 -2 4q42 15 46 34h7zM-895 789q-1 -9 4 -9h4q2 9 -5 9h-3zM475 654q-11 -15 -14 -30q-5 -22 11 -33h8l2 8q-5 15 2 51q-4 0 -9 4zM423 591l-2 -9h6l2 9h-6zM315 574q-2 -9 3 -9q7 0 9 9l1 8h-7q-5 -1 -6 -8zM256 346l-1 -4
q-1 -6 10 -17h5q30 27 34 47q2 6 -7 12q-13 -13 -41 -38zM173 355l-3 -13h7q4 0 12 13l1 4q2 9 -4 9q-5 0 -13 -13zM706 317q0 -34 6 -34h6l6 30q1 8 -8 8q-7 -4 -10 -4zM62 233l-3 -13l14 -4l14 17q2 10 -11 12q-13 -6 -14 -12zM-162 -28l-1 -9l5 4h15l3 21h-7
q-5 0 -15 -16zM-826 -496h3q-6 -27 23 -63l-1 -4q-41 -59 -80 -59l-20 8q-8 -4 -10 -4q-11 8 -17 8l6 30q2 12 27 42q3 14 45 17q1 6 24 25z" />
    <glyph glyph-name="Y" unicode="Y" horiz-adv-x="690" 
d="M364 961q86 8 105 -7q19 -12 14 -42q-3 -17 -36 -63q-10 -26 -68 -119q-1 -8 -69 -101q-1 -9 -43 -68q-33 -75 -88 -144q-1 0 -12 -20q-2 -14 6 -13q28 26 95 93q7 1 59 54l46 38q15 1 58 47q18 9 60 43l58 49q18 19 32 20q44 5 32 -62v-3q-4 -21 -23 -89l1 1l5 -2v-4
q-1 -5 -4 -6h-7q-9 -37 -55 -115q-11 -40 -67 -152q-26 -37 -74 -158q4 -11 8 -10q18 3 111 42q30 3 84 46q13 11 28 17l10 -1q22 2 97 51q27 4 58 41q19 13 44 21q14 22 110 79q20 15 55 31q46 35 63 52q112 110 127 129q14 24 22 25q7 -2 6 -7l-1 -12q-84 -141 -136 -171
q-80 -82 -124 -103l-64 -57q-1 0 -94 -63q-23 -11 -64 -42q-42 -4 -113 -58q-8 -5 -12 -5q-12 1 -15 0q-61 -43 -155 -80q-35 -26 -67 -29q-16 -12 -48 -31q-26 -30 -27 -44q-2 -11 1 -11l-6 -9q-3 2 -5 2q-19 -16 -49 -95q-13 -14 -54 -106q-47 -67 -77 -137
q-14 -15 -55 -89q-32 -41 -99 -97q-37 -26 -82 -67q-28 -10 -39 16l-21 15l4 -46l-26 -15q-84 -34 -123 -38q-1 -9 -116 -32l-28 -3q-9 0 -29 2l-33 -11q-50 18 -80 21q-49 28 -55 80q-1 46 -7 90l1 9q5 35 47 107q4 26 75 97q12 2 73 64q7 0 45 34q19 2 40 34q79 59 100 61
q60 38 103 53l100 49q22 -2 25 -1q7 0 101 37q10 1 43 16h20q21 2 67 38q88 34 94 64q88 147 91 160q5 36 30 72q67 135 69 146q2 10 -9 22h-3q-65 -36 -68 -54q-15 -18 -71 -52q-23 -26 -101 -85q-53 -50 -74 -52q-10 -10 -22 -12q-31 -3 -37 51l1 4q17 58 66 144
q69 74 55 102q27 39 59 106q97 154 102 179l1 6q-3 11 -7 10q-53 -10 -60 -27q-18 -14 -20 -14h-21q-41 -4 -82 -38q-31 -22 -54 -24q-18 -19 -54 -30q-39 -39 -63 -41q-28 -17 -66 -59q-12 -2 -66 -49q-29 -19 -43 -26q-40 -4 -34 31q-5 12 -3 45q5 30 46 51q26 24 60 63
q30 23 111 65q11 12 48 35q3 16 102 45q11 18 58 25q29 21 57 25q17 11 119 46zM1244 715l4 -7q-6 -14 -8 -14l-4 -1q-1 0 -4 6q2 8 12 16zM862 354l-2 -15q-3 -14 7 -26h2q8 1 17 14v2q2 37 -14 34h-3q-2 0 -7 -9zM556 112l7 1l-2 -10h-3q-3 0 -2 5v4zM413 78l-2 -10
q0 -3 3 -5h6q7 4 9 17l-6 8h-3q-2 0 -7 -10zM522 52l5 -7q-2 -12 -19 -22q-3 1 -5 1l2 8q7 12 17 20zM33 -101q-13 0 -26 -1h-2l-35 -20l-35 5h-1q-5 0 -38 -25q-58 -15 -105 -44q-18 -2 -108 -58q-2 -7 -42 -20q-40 -25 -85 -62q-36 -39 -85 -80q-47 -42 -63 -145
q2 -32 26 -30l71 -19q93 14 98 14q5 6 9 6q2 0 1 -2l2 -11v-2l97 62q26 -1 36 -12h2l4 8l1 13q56 20 107 55q55 18 80 46q91 89 102 136q49 86 50 97q9 53 46 91q13 22 14 30q3 12 -7 14q-7 0 -70 -27q-10 -3 -44 -19zM248 -149h6q3 0 2 -5q-7 -13 -14 -19q-2 0 -2 6l1 8
q1 3 7 10zM18 -371v-5q-1 -4 2 -4h1q3 0 4 6l-2 6q-4 -3 -5 -3z" />
    <glyph glyph-name="Z" unicode="Z" horiz-adv-x="579" 
d="M578 744l5 -1q28 -7 -16 -74q7 -22 -13 -50q-76 -80 -123 -118q-72 -89 -81 -87l-8 -10q-1 -3 1 -3q-16 -17 -30 -27l-8 -12q-33 -46 -92 -93l-15 -14l-11 -20q-7 -9 -18 -18l-8 -13q-50 -52 -57 -60l3 -5q17 0 22 6l13 19l39 6q4 -9 9 -10q18 6 25 4l18 -5q37 20 184 12
l2 3q5 -9 11 -11q20 -1 22 -1q51 -40 94 -121q-6 -10 27 -37q22 2 33 -1l10 -2q31 -15 31 -16q51 6 97 2q65 28 81 39l12 -3l11 12q3 12 7 17q32 29 43 26q40 41 58 45q18 -8 20 -12q2 0 28 12l1 -1q8 -5 -10 -46q-93 -100 -135 -122q-89 -60 -113 -54q4 7 0 8
q-18 -25 -79 -40q-56 -4 -96 2l-12 7q-7 -2 -10 -1q-30 24 -25 32l-3 4l-2 1q-2 1 -5 -3l-88 135q-1 19 -12 21l-12 3l-10 -4h-3l-1 15l-2 1q-10 -13 -58 -17q-7 3 -18 9l-16 -3q-13 10 -22 13q-52 -9 -83 -21q-8 3 -39 -16q-13 4 -131 -49q-114 -68 -125 -65l-9 2
q1 7 -8 28q2 4 4 10q82 85 114 121q6 17 5 18q65 58 124 140q4 -1 65 73q9 -3 91 100q77 71 81 80l13 16l-98 -39q-10 -12 -94 -33l3 7q2 0 49 25l1 4q6 7 -4 12q-47 -9 -70 -35q-7 -13 0 -15l-4 -6q-70 -27 -79 -25l5 14l-8 2l-14 -15l-3 -3l6 -2q-10 -12 -55 -5
q-12 11 -19 13q-20 -6 -27 -4q-8 5 -1 15q-12 2 -56 2q-14 13 -10 22l7 5q-2 1 0 4l-6 -2q-5 1 8 28q47 48 64 43q8 -5 1 -15q-10 -14 -44 -34q-3 -6 0 -7l3 -1q59 29 67 39q23 24 51 17l8 -13q33 -8 67 2v-1l-8 -12l11 -3q13 -3 17 3q5 18 9 24q52 15 216 83q3 -1 102 60
q6 -1 85 65q16 7 23 5zM482 675l-8 -6l-8 -16l7 -2l14 15l3 4zM378 541l-2 -3q-4 -7 1 -8h2l6 9zM-26 446l-5 -7l10 -2l4 6zM41 425l-6 -6l6 -2q4 -1 9 6l2 3h-3q-6 -2 -8 -1zM380 90l-26 -6l26 -1l4 6z" />
    <glyph glyph-name="bracketleft" unicode="[" horiz-adv-x="865" 
d="M477 1469q5 -9 23 -9l14 1q-1 -3 14 -5h10q5 0 28 8q9 0 24 2q7 -9 20 -9q10 0 20 2q13 -3 17 -3l32 6q12 -17 32 -17q17 4 19 4q13 -18 38 -18q9 0 23 4q12 -1 20 -1l47 5q20 -5 21 -5t21 1l10 -1q3 0 60 10q6 -4 27 -6q7 -9 7 -10q-42 -35 -113 -49q-53 -11 -62 -11
l-39 15h-4q-9 0 -47 -10q-68 0 -92 11q-10 1 -17 1q-4 0 -13 -1q-13 2 -26 2q-14 -6 -16 -15q-1 -10 -1 -11q-3 -11 -25 -46q-1 -5 -1 -14q-7 -16 -24 -34q-44 -82 -50 -113q-23 -50 -63 -123q-18 -19 -21 -33q-1 -6 -2 -22q-15 -44 -52 -126q-4 -23 -30 -65
q-11 -32 -52 -96q-6 -7 -23 -51q-21 -33 -37 -89q-16 -42 -41 -76q-33 -78 -37 -98q-26 -42 -29 -55q-1 -7 -1 -26q-2 -10 -33 -68q-15 -34 -19 -48l-2 -17q-18 -55 -36 -89q-3 -16 -23 -56q-7 -33 -28 -56q0 -3 -6 -16q-3 -24 -4 -30q-1 -4 -32 -49q-2 -5 -3 -10v-3
q3 -8 12 -8q33 11 112 27q14 9 147 30q21 5 44 5q18 -1 19 -1q65 17 140 17q25 6 80 13l23 -3q47 9 61 9h6l-1 -1q-24 -16 -56 -29q-5 3 -34 4q1 3 -11 3q-4 0 -18 -3l-2 1q-23 0 -58 -26l-25 -10q-10 5 -18 5h-1q-18 0 -41 -14q-10 2 -14 2h-7q-6 0 -17 -5q-18 8 -24 8h-12
q-19 0 -60 -34q-10 5 -22 5q-10 0 -41 -12q-35 0 -77 -43h-10q-1 0 -1 1q-38 0 -107 -64q-68 -22 -86 -22q-30 0 -63 14q-10 12 -8 21q1 6 28 54q2 12 34 59q3 13 36 65q4 19 25 54q1 6 1 15q3 12 22 61l1 1q1 5 0 12q14 41 37 89q2 12 17 55q6 32 42 83q2 5 3 10l5 21
q1 7 2 19l49 102q7 35 50 106q3 0 24 73q26 33 45 71q16 14 41 75q5 27 25 57q7 14 27 87q1 8 41 78q2 9 4 11q-5 14 -4 17q8 37 54 133l34 99l4 42q3 19 29 35q0 2 8 21q-1 9 0 16l1 5l4 8q-3 39 -1 46q4 20 32 45h2q2 0 2 -1z" />
    <glyph glyph-name="backslash" unicode="\" horiz-adv-x="1012" 
d="M421 2219q44 0 77 -97q10 -25 41 -88q5 -40 33 -130q13 -45 23 -98q8 -21 12 -48q5 -15 8 -49q5 0 13 -79q13 -53 18 -118q15 -67 21 -153q9 -46 10 -73q5 -16 4 -22l1 -1q-6 -32 -6 -39q16 -46 14 -74q-1 -25 6 -84q-1 -28 11 -79q-2 -46 10 -155l4 -79q-3 -38 -2 -44
q-1 -33 -1 -41q-1 -9 -1 -10q0 -29 -1 -41q-1 -26 -2 -35q2 -37 2 -38q-2 -22 -2 -23q-2 -56 2 -125l2 -60q-2 -18 -6 -91q4 0 -4 -262v-11h-1q0 -2 1 -2l-2 -8l-3 -95q-1 -22 2 -79l-5 -30v-9q3 -35 3 -81q6 -19 10 -98q2 -13 2 -34l-3 -17q2 -28 12 -41q2 -16 6 -68l5 -28
q-2 -11 -7 -15h-1q-13 0 -18 55q-6 13 -9 46q-4 21 -7 30q-2 3 -2 7q1 4 1 7q1 15 -8 52l1 21q1 20 -11 88q0 28 -5 41q-7 12 -7 97q0 9 -4 35q-6 19 -6 26l1 4q-4 46 -7 110q-3 49 -6 76q-4 58 -11 170q-3 21 -5 90q-4 18 -9 90q-6 12 -4 88q-6 86 -7 151q-2 0 -1 109
q-4 29 -8 79q-8 23 -17 179q-12 94 -11 116q1 21 -14 127q-7 26 -14 105q-6 45 -13 85q-3 31 -8 47q-3 37 -11 65q-4 46 -28 118q-3 29 -18 74q-5 22 -18 70q-5 33 -30 81l-31 81q-15 30 -36 30q-14 0 -23 35q-1 3 -1 18q2 53 52 123q27 26 47 26zM602 1145q4 -30 16 -30
l7 2q0 5 -4 17q-1 23 -9 23q-9 0 -10 -12z" />
    <glyph glyph-name="bracketright" unicode="]" horiz-adv-x="758" 
d="M834 1469h1q11 -11 30 -11l-1 -9q-13 -24 -14 -30l-1 -4q4 -8 7 -19q-10 -15 -30 -23q-2 0 -8 -10q-1 -8 22 -9q6 -10 5 -15l-1 -5q-15 -18 -20 -45q-8 -11 -8 -15l-2 -9l1 -31q-9 -30 -36 -30q-7 -3 -8 -9q-1 -5 14 -16q6 -13 4 -22l-6 -9v-7l-3 -11q-2 -12 -2 -15
q-3 0 -15 -15q2 -35 -1 -48l-2 -13q-2 -7 3 -36v-3l-17 -42q4 -37 3 -44q-2 -8 -16 -48q-3 -33 -5 -43q-13 -50 -22 -76l-10 -50q-2 -13 -1 -38q-18 -33 -20 -43l-3 -13q-1 -6 0 -13q-3 -15 -47 -84q-21 -79 -39 -105q-1 -4 -38 -60q-19 -40 -38 -76q-3 -16 -60 -128l-8 -25
q-1 -35 -3 -45q0 -2 -8 -25v-1q-2 -11 -1 -23l-12 -33q-4 -29 -5 -32q-5 -27 -81 -77q-21 -11 -97 -17q-3 -2 -38 -6q-19 1 -34 1q-35 -5 -46 -5h-18q-8 0 -90 -20q-8 0 -32 -3q-7 0 -68 2q-6 0 -37 -3q-27 1 -46 1l-3 -1q-3 1 -6 1v2q34 27 68 27q17 7 30 16l8 -1h5
q13 0 50 14q21 0 69 39l56 23q62 39 69 45q49 17 77 48l3 1l16 -1q20 0 48 51q8 15 35 91q24 23 27 41q14 26 19 48q37 56 40 71q2 20 4 29l33 79q1 11 2 17q29 60 44 104v2q3 12 4 30q8 12 21 67q0 10 2 22l12 30l1 22q1 2 39 98l1 6q5 23 6 49q11 27 22 62q6 4 26 29
q1 0 1 1l1 1q-30 26 -28 38q-1 3 -1 4q4 22 29 59v2q2 7 -4 9l3 6l-2 61q4 4 5 7q2 27 -2 52q10 16 11 17q-1 13 -9 32l2 8q5 13 6 15l1 7q-4 26 7 82q-6 11 -13 11q-38 -14 -52 -14q-10 3 -14 3q-10 -3 -14 -3q-1 0 -9 1q-9 -4 -13 -4h-2q-8 7 -15 7q-21 0 -32 -14
q-13 -8 -25 -8h-6q-25 2 -28 2q-6 0 -39 -7q-22 1 -28 1q-5 0 -41 -9h-6q-21 0 -37 25q9 5 45 15q2 0 3 -1q1 0 8 1l23 -1q24 11 33 12l8 -2h1q5 0 30 8q1 0 9 -1q43 5 60 18q30 11 43 11q10 -4 16 -4l31 9l2 -1q14 7 78 9q1 2 13 4q8 -5 19 -7q16 0 43 19q1 0 22 -7h9
q21 0 38 8zM788 1337q-1 -5 -2 -7v-4h2l8 1l2 10h-10zM708 1241l-1 -5q5 -7 4 -12q-3 -3 -3 -4q12 -10 20 -10q23 0 28 9l-1 2v2q1 1 19 8q7 6 7 7q3 15 -18 20q-4 0 -10 7h-2q-32 -6 -34 -15q-1 0 -9 -9zM700 1141q-10 -10 -11 -17l2 -1h4q12 0 18 12v1q0 2 -5 5h-8z
M669 1092q5 -4 9 -4q6 0 14 17q-3 8 -6 9q-12 0 -17 -22z" />
    <glyph glyph-name="asciicircum" unicode="^" horiz-adv-x="774" 
d="M668 881q-3 -5 -15 -20q-7 -14 -11 -21v-1q-17 -26 -46 -16q-24 12 -31 71q-13 28 -16 47q7 46 12 54q13 20 0 43q-2 29 -7 50q-2 16 14 42q0 15 -3 32q2 10 10 31l-1 3l-5 3q-3 1 -22 -20q-44 -33 -54 -49q-40 -41 -80 -85l-48 -49q-4 -2 -32 -26q-20 -7 -27 -19l-5 -5
q-5 -9 -9 -17q-11 -17 -42 -31q-8 1 -17 -5l-1 -1q4 -4 1 -9q-1 -3 -11 -9l-12 -12l-6 -9q-20 -9 -24 -15q-1 -3 -5 -13q-6 -10 -48 -40q-6 -9 -23 -16q-1 -1 -7 -6l-5 -15l-2 -3q-9 -9 -18 -19l-2 -6q-11 -11 -20 -8l-3 2q-2 2 0 14l9 11l7 12q17 22 27 17l3 2l3 5
q0 17 6 25q16 19 27 34q16 8 37 40q1 8 3 12q1 1 21 16q3 5 12 22q4 2 6 6l9 15q8 7 20 20q1 3 3 8q15 22 34 36q7 9 13 7l1 -1q3 -1 -2 -10h3l6 9q-3 6 -3 7l3 4q3 6 6 18l5 6q14 17 35 44q29 35 54 60q16 25 66 79q9 13 45 51q21 33 36 43q15 18 45 37q20 9 39 0l6 -3
q23 -11 48 -72q3 -12 -3 -39q10 -44 4 -75q-7 -11 3 -56q-3 -24 2 -41q14 -23 -6 -54q-1 -13 -4 -83q-5 -13 -4 -47q-2 -9 -4 -12zM245 905l-4 2l-2 -1l1 -3h3z" />
    <glyph glyph-name="underscore" unicode="_" horiz-adv-x="1024" 
d="M-378 97l3 2l2 -2q2 0 0 -2l-2 -2l-2 1q-3 1 -1 3zM-359 78h3q8 -9 -1 -15h-6h-2q-4 8 6 15zM-260 106h5q-2 -7 -7 -10l-4 1q-2 1 6 9zM-33 188l1 1q11 5 17 4v0q2 -1 -1 -4l-1 -1q-2 -1 -13 -2zM-212 39q28 20 83 16l6 5l6 3q30 22 65 10l1 -2q3 -1 22 7q29 6 52 -6
q5 -2 20 -11q61 31 90 17q45 33 80 16l2 2l3 2q3 2 5 2v-5q27 19 80 10l3 -1l5 6l3 1l24 8q19 1 40 -2l6 -4l1 -1q16 5 53 -1l1 1l10 -8q38 0 48 8q30 -4 83 -16q43 16 62 7q0 -1 -2 -20l2 -1q72 -6 85 3q25 7 36 1q15 -14 20 -16q47 -15 82 -10q22 4 35 -2l20 -16
q4 -2 32 -7l4 -1q5 -3 23 -19q6 -3 25 7q54 16 80 3q5 -3 17 -16l24 -8l-1 -1q-17 -12 -46 -11l-3 3q-12 3 -51 0l-5 3q-7 4 -22 13q-2 -1 -15 1q-29 -16 -44 -8q-22 -16 -64 -11l-1 -1l-2 1q1 9 -3 11l-8 4q-11 1 -19 -5q-10 -7 0 -22l-2 -1q-21 -5 -42 5q-1 3 -4 4l-2 1
h-4q6 4 -8 16q-45 -24 -64 -14l-3 1q-10 6 -9 7q-14 0 -55 -13q-24 -4 -37 2q-45 -24 -69 -11l-2 1q-5 3 -6 7q-58 -21 -82 -9q-3 2 -30 -3q-23 -1 -66 8q-50 -22 -72 -10q-38 -21 -61 -9q-11 5 -27 -2q-17 -11 -64 -12q-9 0 -26 5q-17 4 -46 -5q-37 -18 -51 -11
q-12 3 -16 0q-1 -1 -4 -3q-39 -28 -69 -13l-20 15q-64 8 -129 32q-24 11 -13 35q19 13 21 28zM1 186q1 1 8 1q1 -1 -1 -4q-3 -2 -8 -3q-2 1 1 6zM-33 148q9 3 10 2l6 -2q1 -1 -1 -5l-6 -3q-2 -2 -11 -3l-3 2q-2 4 5 9zM14 138l1 1q4 1 6 1l1 -1q2 -2 0 -3l-1 -1q-2 -2 -5 -1
l-2 1q-3 1 0 3zM30 136l3 2q1 1 9 2l2 -1q3 -1 0 -3q-9 -4 -15 -4zM118 148l3 3q25 5 30 3q1 -4 11 -9q-2 -2 -6 0h-1l-7 5q-1 -4 -4 -6q-15 -6 -23 -3l-3 3q-2 0 0 4zM65 96l4 2q2 2 5 0h1q2 -2 1 -5l-3 -1q-3 -3 -10 -1zM172 134l2 2q2 1 9 1q-3 -7 -7 -10h-4l-1 1
q-2 1 1 6zM289 121l3 2q23 1 39 -4l-1 -1q-34 -6 -41 -2h-1q-2 1 1 5zM215 53l3 -2q11 -1 22 7l-1 6l-3 2q-11 0 -18 -6l-4 -2q-3 -2 1 -5zM35 -72l1 1q12 9 19 7l1 -1q3 -1 -2 -5q-15 -9 -17 -7h-2q-1 1 0 5zM76 -56q2 2 5 1q2 -1 -1 -4t-5 -3q-3 2 1 6zM84 -85l3 2
q5 3 10 0t-3 -9q-3 -2 -11 -3q-3 2 1 10zM332 1v0q7 -3 15 1q9 6 0 10q-7 1 -14 -4q-2 -5 -1 -7zM336 -48l4 2q2 2 5 0q1 0 -2 -2l-2 -2q-2 -2 -4 -1q-2 2 -1 3zM396 -36l6 5l2 -1q0 -1 -3 -7q-2 -2 -5 0h-2q-2 1 2 3zM350 -84l3 2q3 2 6 1q1 -1 -2 -3l-2 -2q-3 -2 -4 -1
q-2 2 -1 3zM456 -31l1 1q6 -6 3 -8l-1 -1v0q-7 5 -3 8zM439 -58l3 2q3 1 8 0q5 -2 2 -9q-2 -1 -7 -1l-3 1q-6 4 -3 7z" />
    <glyph glyph-name="grave" unicode="`" horiz-adv-x="632" 
d="M178 1212h1l1 -1q0 -1 -2 -1l-1 -1v1q-1 2 1 2zM173 1197l1 -1q-2 -7 -7 -8l-2 2v1q3 5 8 6zM212 1185l1 -1q-5 -3 -7 -4l-1 2q1 1 7 3zM305 1167l2 1q4 -1 6 -3v0q0 -1 -2 -2h-1q-1 0 -4 2zM190 1136q17 4 28 -14l5 1l3 1q17 3 20 -13l-1 -1q1 -2 9 -2q10 -5 10 -18
q0 -2 -1 -11q31 0 30 -15q27 5 27 -13h2h1q2 1 3 0l-2 -3q15 3 24 -16v-1l4 1l2 1l9 -3q5 -4 9 -12l-1 -3l1 -1q5 -2 12 -15h1l-3 -7q10 -10 17 -9q5 -10 11 -31q19 -3 19 -12q0 -1 -10 -11l1 -1q14 -22 21 -21q10 -3 10 -9q-3 -12 -3 -14q5 -21 15 -28q7 -4 7 -10l-3 -14
q1 -2 6 -13v-1q-1 -3 -4 -16q1 -4 10 -4q21 -5 21 -19q-1 -3 -4 -14l2 -10l-1 -1q-9 -1 -16 7l1 2q-2 5 -13 14v3q1 4 1 13l-3 5q-15 -1 -15 7q-12 -2 -21 12h-1v0q5 5 6 7v5q-3 3 -8 2q-6 -1 -10 -12h-1q-8 3 -8 14q1 2 1 3l-1 1v1q3 1 6 11q-23 0 -23 10v1l1 7q-3 3 -19 8
q-8 4 -8 11q-23 -1 -22 13v0q-1 3 1 6q-24 4 -24 17q0 2 -8 7q-6 5 -13 22q-22 2 -22 14q-19 0 -20 12q0 5 -7 6q-10 -2 -21 11q-3 3 -4 10q-2 7 -13 10q-18 0 -19 7q-1 5 -4 5l-2 -1q-23 -4 -23 12l2 13q-11 22 -16 52q0 13 14 22q11 2 19 10zM313 1157q1 0 3 -2
q0 -1 -2 -2q-2 0 -4 1q0 1 3 3zM286 1146q4 -1 4 -2v-3l-2 -1l-3 -1q-1 0 -4 1v3q1 2 5 3zM294 1128v0q2 0 1 -1v-1q1 -1 -1 -2h-1q-1 0 -1 1v1q0 2 2 2zM297 1123h1q1 0 3 -2v0q0 -2 -1 -2q-4 0 -6 2zM323 1106h3q8 -4 8 -7q-2 -2 -2 -7q-1 -1 0 1l-1 1l1 4q-3 -2 -4 -2
q-7 1 -7 5l1 2q-1 1 1 3zM285 1092h2q1 0 2 -1v-1q0 -2 -3 -3h-1q-2 0 -2 2zM330 1083h1q2 1 3 -1q-4 -4 -6 -4l-1 1l-1 1q0 1 4 3zM352 1044h2q6 -5 7 -12h-1q-10 6 -11 10v0q1 1 3 2zM301 1028v-2q3 -3 9 -2l3 4v1q-3 3 -8 3l-2 -1q-1 0 -2 -3zM197 1011h1q7 1 8 -2v0
q0 -2 -3 -2q-8 -1 -8 0l1 1q0 1 1 3zM216 1008q1 1 0 -1q1 -1 -1 -2h-3q0 2 4 3zM203 990l2 1q2 0 3 -3q-1 -3 -6 -4q-1 0 -4 2q0 1 5 4zM305 969v0q0 -4 4 -4q5 1 5 6q-1 3 -5 2q-3 -2 -4 -4zM282 942h2q1 0 1 -1q1 -1 -1 -1h-1q-2 -1 -2 0q0 2 1 2zM302 932l5 1l-1 -1
l-3 -3q-2 0 -2 1v1q0 1 1 1zM269 919h1q2 1 2 -1q-1 -1 -2 -1h-2h-1q1 2 2 2zM320 918l1 1q-2 -5 -3 -5l-1 -1v0q1 5 3 5zM303 909h1q2 0 2 -2q1 -3 -4 -5q-1 0 -1 1l-1 1q1 4 3 5z" />
    <glyph glyph-name="a" unicode="a" horiz-adv-x="648" 
d="M389 782q26 -11 39 -54q-2 -11 -12 -11l-1 -9l22 -17l-6 -32q47 -13 33 -144h8q28 21 49 21q24 0 37 -37l-20 -65q-6 -51 -15 -99l-4 -23q-9 -49 20 -67q38 4 112 111q156 176 98 91q-145 -283 -222 -292q-86 33 -82 57q1 6 -6 42l6 4l19 -4l1 7q-22 23 -22 54l6 17
q2 51 4 64h-11q-8 -37 -156 -142q-9 -21 -61 -51q-22 -32 -46 -32q-5 -25 -47 -45q-4 -18 -106 -77l-35 -13q-17 5 -30 5l-26 -9h-11q-31 24 -26 54l8 40q9 51 86 160q4 23 49 78q5 32 62 89q62 103 77 112q20 19 58 82q20 32 26 32q19 -12 22 -12l19 4l2 8l-24 26
q55 77 106 77zM95 332l-3 -13q-4 -24 -42 -65q-37 -74 -66 -119v-3h15q28 0 161 113q134 111 157 135l-1 21q6 34 31 69q2 12 -1 33q21 39 35 99q-12 0 -20 69h-10q-6 -1 -55 -74q-42 -62 -83 -106q-19 -30 -87 -123q-16 -36 -31 -36z" />
    <glyph glyph-name="b" unicode="b" horiz-adv-x="633" 
d="M1080 2569h3q-3 -10 14 -27q11 0 16 18h3q7 0 10 -27q-22 -58 -47 -149l-5 -31q-13 -19 -14 -28l-3 -22q-15 -29 -15 -32q-1 -31 -8 -54q-8 -28 -35 -90l-7 -23q0 -4 4 -4q-7 -9 -8 -14q-15 -54 -42 -130l1 -9l-27 -59l-1 -23q-21 -32 -33 -76h3q-55 -102 -126 -302
q-7 -26 -69 -127l-2 -18l-157 -297q-15 0 -52 -100l-63 -90l-8 -27q-12 -46 -78 -144q-71 -128 -114 -190q-6 -24 -84 -153l-2 -5h5q81 100 189 181q15 24 88 63q130 90 163 90q10 -7 9 -13l-10 -36q13 -9 16 -9l-4 -14q-4 -18 5 -59q-92 -197 -174 -261q-16 -5 -58 -68
q-148 -122 -229 -153q-69 3 -58 45q14 29 16 36q-1 19 2 27h-5q-21 -17 -77 -90q-44 -35 -91 -104q-29 -14 -33 -31v-9q-66 -64 -81 -109q-7 0 -69 -94l-35 -54q-57 -101 -103 -149q-5 -16 -71 -95q-44 -69 -131 -153q-24 -50 -59 -50q-7 0 -30 45q18 23 34 77
q102 144 257 325l134 180q71 111 104 153q96 163 144 221q8 30 122 199l74 135l70 99q12 45 62 117l3 19q26 36 67 121q14 14 65 122q52 79 56 90q24 71 63 118q7 22 32 63v18q28 30 113 216l3 27l75 163q1 3 4 27q32 66 80 189l-9 9l-84 -144q-9 -32 -40 -81
q-29 -73 -45 -86l-5 4h-4q-7 0 -16 -22h7l14 9q-2 -5 1 -5q-31 -38 -44 -85q-8 -6 -59 -100q-41 -83 -99 -171q-18 -42 -60 -95q-14 -52 -77 -126l-1 -4q-2 -5 2 -5q-57 -65 -73 -126q-140 -213 -244 -347q-11 0 -29 -55q-19 -15 -101 -135q-5 0 -19 -18l-2 -4q-1 -5 4 -5
q-63 -78 -92 -131q-32 -28 -40 -58q-5 -17 -8 -41q-14 -53 -93 -72q-15 -6 -17 -9l-60 9l1 4q9 11 10 18l14 -4q47 16 50 27q0 19 -11 27h-7l-12 -9h-4q6 20 -37 32l1 4q5 20 87 50q24 32 76 85q37 44 79 109q30 23 64 94q14 0 58 82q16 15 138 184l53 82q8 31 85 121l5 27
q4 15 83 127q43 85 138 234q5 21 54 86q26 67 92 171q35 79 119 230q18 60 89 149q4 25 7 36q35 72 61 113q24 -4 27 -4l1 4q2 5 0 14l18 27q-30 5 -28 13q36 57 137 298q22 81 54 81zM557 1220l-4 -13h4q6 0 9 9l-5 4h-4zM172 170h3q75 51 127 94q116 101 121 122
q40 58 44 72q-3 0 -2 5q-85 -32 -96 -72q-15 -14 -55 -36q-6 -18 -61 -55q-71 -108 -81 -130zM-158 395l-7 -22q-10 -37 15 -37h7q3 10 20 23q1 4 -23 41q-9 -5 -12 -5z" />
    <glyph glyph-name="c" unicode="c" horiz-adv-x="616" 
d="M453 840q29 -15 31 -15l-2 -9q-1 -5 -5 -5q15 -33 11 -57h4q2 0 24 29q2 -11 -1 -43q-30 0 -45 -29l-1 -10h37l-3 -14l-10 -14l-1 -5l-3 -34q-26 0 -32 -33l-2 -24q-43 -29 -62 -29q-37 0 -31 72q5 28 23 53l2 9h-4q-26 -52 -60 -52q-13 0 -101 -72q-87 -74 -134 -201
q-3 -18 -36 -78q-8 -85 0 -85h28q40 -15 43 -15q17 0 19 10q31 0 76 -39q30 21 139 58q8 14 75 39q2 12 50 50q116 120 203 209q-20 -57 -23 -57q-37 -70 -86 -134q-14 -22 -104 -119l-58 -25l-54 -59h-7q3 14 -4 14h-4q-3 -19 -10 -19l-8 10h-7q-3 -17 -42 -48l-15 10
q-48 -24 -62 -24q-5 0 -39 5l-19 -10q-20 15 -25 15l-13 -5q-5 0 -14 19l-21 -5l-16 5l-24 -5q-89 66 -84 91q-7 36 -6 43q3 14 28 77q-5 11 -2 47q51 107 214 317q20 44 126 138h6l-2 -14l-14 -19l-1 -5h4q16 10 48 43l10 -14q52 38 64 38q-1 -5 3 -5q7 18 29 29zM179 131
l-1 -5h13l3 15h-7q-7 -1 -8 -10z" />
    <glyph glyph-name="d" unicode="d" horiz-adv-x="661" 
d="M847 1654h27q38 0 39 -92l-8 -19q-4 -20 -3 -34q-10 -33 -15 -57l-10 -50q-1 -7 -15 -38q5 -12 4 -19q-26 -68 -43 -99q0 -21 -2 -31l-23 -38l-3 -15q-1 -4 3 -4l-122 -210q-6 0 -51 -99l1 -19q-28 -82 -49 -107q-19 -98 -47 -122q-2 -28 -2 -31l-46 -134q-2 -8 1 -15
q-15 -53 -31 -76l6 -27q-11 -15 -13 -27q-5 -68 9 -68h27q113 49 128 49q35 24 85 38q3 14 67 31q0 3 13 11q33 -22 42 -22l11 15l-3 7q10 50 67 50l2 -8l-8 -22q2 -8 2 -12h23q-33 -61 -74 -61q-4 0 -82 -46q-16 0 -58 -27q-37 -11 -44 -11v4q5 7 6 15q-11 0 -8 15h-11
q-26 -30 -37 -30q-8 12 -7 19q-21 -13 -22 -15l-18 7l-17 -7h-19q-5 -7 -7 -16l-1 -3q23 -27 33 -27l-1 -4q0 -2 -52 -34h-42q-23 0 -17 26q-39 -3 -59 -3q-24 51 -19 76l18 88v23q20 37 22 49l3 15q2 8 -10 8l-35 -4q-16 6 -28 16h-7q-3 -18 -158 -195q-9 0 -47 -65
q-78 -86 -164 -210q-28 -15 -73 -19q-24 0 -42 73q9 46 82 160q30 34 66 118q28 29 74 126q50 89 90 126q2 11 100 153q6 30 88 42q51 0 86 -46l7 -4q30 26 76 130q71 90 80 133q43 161 74 161h8q1 6 -19 19q16 26 19 42q4 19 -3 19q12 26 76 191l-1 15q16 27 19 38
q1 5 4 38l16 23q-5 16 -3 27q16 19 18 31q5 22 -3 22q5 26 60 73zM798 1448l-4 -8l-1 -4q-5 -25 49 -38h4l3 12q-12 0 -21 34q-3 0 -30 4zM308 658q-1 -6 -77 -119q-31 -50 -57 -76q-26 -35 -90 -164q-29 -24 -58 -95v-4q16 0 35 42l96 95q3 14 29 50q35 41 73 99
q26 0 66 80q2 11 15 42q10 50 -28 50h-4zM-27 204l-1 -8q11 -24 19 -61q6 -4 10 -4l5 8l1 3l-22 58v4h-12zM573 207q46 -2 44 -11q-25 -15 -46 -19q-7 0 -14 23v4z" />
    <glyph glyph-name="e" unicode="e" horiz-adv-x="488" 
d="M380 820l57 -15l-3 -25q-1 -5 2 -5l-4 -9l-1 -6l2 -10q13 10 22 10q2 -5 -3 -80q-26 -91 -132 -247q-59 -41 -87 -70q-86 -51 -106 -51l-40 6q-29 -15 -54 -89q-3 -50 40 -57q27 -9 82 -4q125 80 166 142l124 115l109 78q182 146 -101 -175l-14 6q-7 0 -43 -76l-44 -40
q-31 -35 -81 -76q-14 -12 -67 -65q-17 5 -33 5q-26 -20 -83 -20h-3q-11 0 -72 15h-44q-5 0 -9 15l1 4l37 57l-27 -26l-11 -11h-14l-16 35q1 6 21 66l1 11q3 31 29 70l16 36q11 49 29 63q58 78 134 207q80 110 137 166q8 17 40 30q18 13 8 -56l13 40l15 32zM160 449l-2 -11
q0 -9 6 -9h10q52 21 93 66q41 48 54 75q22 42 52 100l4 40h-9q-47 -26 -112 -126q-79 -90 -96 -135z" />
    <glyph glyph-name="f" unicode="f" horiz-adv-x="600" 
d="M2470 2915q11 0 18 -7q5 0 9 3q21 -3 34 -3h22q2 0 2 3q53 -14 47 -49q8 0 6 -73l-5 -7l-5 -30q-2 -12 -2 -29l-12 -27q0 -18 -3 -30q-23 -63 -73 -166l-29 -69q-12 -24 -22 -60q-45 -77 -48 -93q-4 -25 -46 -83q-1 -7 -44 -69q-1 -9 -67 -113q-2 -9 -36 -36
q-2 -14 -28 -43q-29 -53 -91 -133q-28 -47 -57 -76q-109 -126 -116 -126q-40 -37 -64 -37l-3 -6l-1 -4l2 -6q-14 -7 -15 -10q-7 7 -17 7q-30 -14 -33 -14l1 4l111 92q2 16 56 100q17 6 58 79q2 0 26 40q9 0 82 103q5 22 60 93q3 14 72 119q7 21 94 182q2 8 45 90q3 17 45 96
q41 101 52 123l5 46q9 22 10 30l1 6l3 60q5 6 13 40h-13q-2 0 -2 -3l-5 3h-14q-48 -10 -66 -20q-12 3 -20 3q-3 -16 -47 -20q-1 -6 -17 -10q-8 7 -13 7q-5 -16 -7 -16h-12q-1 -6 -22 -17q-2 0 -14 3q-14 -13 -69 -43q-10 -12 -73 -43q-1 -4 -93 -66q-56 -43 -84 -53
q-7 -16 -57 -53l-84 -67q-23 -24 -90 -79q-83 -78 -198 -216q-16 -6 -50 -59q-19 -8 -63 -90q-20 -15 -56 -76l-4 -3h-5l-7 6h-2q-5 -1 -6 -6q5 -7 8 -7v-7q-2 -5 -38 -33h-3l-5 7q-3 0 -9 -10l-6 -33q-3 -14 -46 -63q-14 -30 -51 -93l-11 3q-13 0 -25 -19q2 0 1 -4
q9 7 15 7q2 -7 1 -10q-1 -5 -25 -30l-10 3q-4 0 -13 -13l-2 -10q8 0 7 -6l-1 -4q-1 -8 -58 -86q-36 -62 -133 -205q-12 -37 -27 -50q-5 3 -6 3q-5 0 -18 -16l-12 3l-3 -7q1 -6 0 -13h-12l-5 -30l2 -10v-3q-1 -7 -6 -7q1 4 -2 4l-7 -10l7 -17q-6 -3 -25 -46q-4 0 -59 -77
q-7 0 -8 -6l-1 -20q-43 -47 -47 -73q-15 -14 -43 -66q-11 -7 -14 -14l-4 -19h3q20 0 39 3l21 -3q6 0 33 6q8 -3 17 -3h3q3 0 4 3l3 -3h17q3 0 4 3l3 -3h14q12 0 24 -3q20 6 42 6h12q2 0 2 4q18 -10 20 -10q13 3 15 3l14 -3q15 10 59 10h21q7 0 30 13q40 -7 49 -7q20 3 31 3
q8 0 15 -26l-12 -53l-1 -23l-12 -7l-11 10h-8q-4 -20 -9 -20q-38 13 -53 13l-1 -3q-24 7 -20 27h-3q-6 0 -30 -10h-14q-14 0 -34 3q-15 -7 -16 -10l-27 10q-22 -6 -55 -10l-21 10q-13 0 -14 -7q-2 0 -6 4q-21 -4 -35 -4h-1q-3 0 -4 -3l-4 3h-22q-4 0 -22 7q-10 -7 -21 -7
l-27 4l-36 -10l-14 3h-3q-26 0 -77 -103l-21 -20v7q9 5 10 10q2 13 -16 13h-7l-5 -16l-6 -27l13 -13l-1 -3h-21q-1 -6 -21 -47q1 -6 1 -10q-57 -72 -111 -166q-14 -11 -59 -89q-58 -80 -61 -80l-61 -76q-29 -65 -130 -169q-4 -23 -26 -30q-1 -5 -12 -10l-12 4
q-15 -14 -35 -14h-7q-25 0 -23 30h-3l-26 -10q-35 30 -27 77q-12 0 -7 109q3 40 -2 40l3 6l3 17q3 17 -4 20q9 33 12 50l2 9q22 23 26 44l-7 16l7 37q8 46 70 132q3 20 33 40q10 30 15 30h7q4 -1 4 -7q-1 -3 -3 -3q-1 -6 9 -17q4 4 7 4l5 26q-2 0 -7 3v-3q-4 3 -7 3l2 10
q3 0 32 20q46 -26 58 -43l11 -66q-2 -17 -8 -17l2 -20q-5 -28 -35 -33h-8q-13 0 -35 23q-14 0 -31 -53q-59 -71 -60 -79q-18 -38 -40 -119q-6 -84 -1 -110q-1 -5 31 -53l-1 -7h6q57 33 95 83q4 0 75 106h4q-1 -2 -23 -63h2q24 25 27 44l-2 33q3 0 56 83q8 0 37 46q4 0 20 20
h2q-2 -10 4 -10l2 10l-5 13q13 14 49 76l5 4q5 -14 12 -30q5 3 7 3l2 7q1 7 -16 33q49 66 91 136q15 0 65 96q20 0 24 26l2 10l-27 4q-2 -7 -67 -10l-13 3q-13 -10 -24 -10q-16 0 -31 3l-46 -13q-38 11 -36 23h-2q-22 -10 -55 -13l-1 7q-33 -4 -49 -4h-7q-3 0 -4 -3
q-22 0 -21 37v3q31 16 41 26h5q-4 -16 4 -16q7 11 8 16h7l-1 -3l-3 -7q1 -5 -1 -13q-1 -3 -2 -3q1 -23 5 -23h7q4 0 10 10l-6 13v3q2 7 7 7h31q41 10 71 10q13 -4 19 -4q1 7 6 7q16 -7 18 -7q69 12 72 27q2 11 28 13l63 -6l13 3l12 -3q8 6 13 6q3 0 27 -3q7 3 8 3v4
q1 3 -10 16v3q51 71 102 156q2 0 27 30q2 0 4 -30h5q20 16 24 37l1 10q1 6 -19 10v3l37 63q50 52 55 79h10q-2 -16 2 -16q11 5 12 10v6q1 4 -1 4q4 10 16 23l-2 30q42 65 44 76l16 10v-3q5 3 8 3q-3 11 -2 17q21 45 60 96q36 66 56 76q4 17 70 103q15 18 42 66q30 23 73 99
q15 0 42 50q12 0 20 33q4 0 34 53q66 75 67 86l47 57q4 -4 7 -4q29 33 34 57q75 92 95 103q2 10 100 109q22 30 103 109q38 29 114 96q6 0 45 40q12 0 43 43q41 35 94 67q27 29 60 29q3 -3 8 -3q8 0 24 27q43 25 66 33q4 -4 9 -4q4 20 53 40q15 16 57 27q5 10 49 20
q6 5 64 23q1 5 47 20zM2117 2726l-6 -10v-3q12 0 8 -20q13 0 16 10q-2 23 -18 23zM2026 2679l-1 -3h7l2 10h-3q-4 -1 -5 -7zM1809 2481l-1 -4h2q5 0 7 7v3h-3q-4 -1 -5 -6zM1393 2013l-3 -13h8q4 0 5 7l1 3q1 5 -6 10q-4 -1 -5 -7zM1033 1483h5q10 5 13 23l2 13h-2
q-14 -11 -18 -36zM1005 1450l-1 -4h3q20 2 20 10l1 4q3 17 -3 20q-16 -12 -20 -30zM237 764l-2 -7h5l2 7h-5zM536 727l-2 -13h5q5 0 6 6l1 7h-10zM357 525q9 0 5 -27h10q3 0 8 10l2 10q-7 0 -6 7l8 13l-8 10h-3q-2 0 -16 -23zM-114 -161h10l-2 -10h-10z" />
    <glyph glyph-name="g" unicode="g" horiz-adv-x="684" 
d="M452 856q63 -18 75 -35q33 -38 24 -83l-4 -20q-3 -16 -9 -36l-5 -34q-12 -64 -44 -116q-3 -16 -8 -16q-17 -18 -38 -44q-14 -14 -58 -51q-63 -69 -82 -76q-22 -23 -65 -49q-16 -9 -91 -53q-26 -19 -68 -43q-29 -24 -36 -32v-3q-2 -10 5 -14q30 6 56 21q15 16 44 28
q8 8 53 35q51 27 96 60q63 43 76 56q22 26 66 67q3 6 35 30q10 11 42 40q29 26 64 77q23 30 26 53q27 69 60 94q7 5 13 5q16 0 67 -26l-24 -34q-43 -34 -52 -72q-30 -89 -49 -126q-11 -21 -27 -70l-32 -72l-1 -5q0 -3 2 -6h4q1 0 95 88q21 16 82 90q52 68 160 205
q59 65 74 65q36 42 64 68q37 76 69 115q69 103 75 103v-5q-15 -24 -57 -123q-43 -57 -81 -126q-23 -41 -78 -121q-70 -61 -191 -231q-38 -43 -171 -190q-18 -14 -36 -35q-21 -5 -23 -14q-7 -20 -23 -36q-28 -22 -87 -79l-1 -10v-1q-10 -26 -61 -118q-17 -29 -29 -35
q-4 0 -19 -35l-1 -2q-1 -7 -1 -15q-12 -30 -26 -30q-7 3 -15 3h-1q-3 0 -6 -7l-1 -6q-2 -5 11 -17v-11v-2q-2 -5 -57 -116q-6 -14 -43 -73q-8 -20 -126 -198q-107 -155 -115 -155q-28 -32 -51 -47q-31 -18 -37 -18h-2q-4 0 -9 1q-8 -2 -12 -2q-32 7 -20 67q3 18 3 21
q22 79 35 106q31 63 33 70v2l1 14q2 18 20 22q12 15 23 36q23 37 145 217q26 43 45 66q32 51 51 72q38 56 55 56q7 0 11 23q8 13 23 29q6 15 11 15h1q2 0 1 -3q-3 -10 -4 -12v-3l-2 -9h4q12 12 15 27q-1 9 1 18q2 16 35 48q35 34 38 49l1 4q0 11 1 14q7 19 11 19q5 0 1 -17
v-3h2q13 0 33 27l25 20q8 14 19 44l31 62q28 58 31 73l1 12q0 5 -3 5q-1 0 -40 -35q-35 -36 -80 -77q-41 -49 -126 -106q-5 -11 -35 -25q-11 -11 -70 -44q-26 -20 -34 -20h-12q-2 0 -37 -29q-20 -17 -24 -17q-9 0 -6 18l-1 7h-1q-9 0 -18 -18q0 -2 -1 -6q-18 -23 -35 -23h-1
q-15 2 -18 2q-8 -2 -11 -2h-17q-11 0 -11 18l-2 4h-4q-9 -4 -13 -4q-19 14 -23 39q0 11 -7 17h-2l32 134q6 6 24 53q12 43 50 106q21 46 81 143q4 16 72 108q15 23 111 121q16 14 46 44q44 42 68 46q13 12 62 21q18 4 20 4zM19 295q-2 -10 4 -13q44 20 63 37q3 5 28 19
q5 6 45 27q3 6 34 19q49 44 64 44q32 23 61 36l111 106q12 6 15 19v1q2 8 -7 38v22q3 8 4 14q1 24 -11 24q-24 10 -32 10t-27 -1q-7 1 -11 1q-23 -8 -47 -16q-30 -18 -56 -47q-1 -3 -60 -63q-58 -65 -80 -98q-4 -5 -38 -64l-29 -45l-13 -31q-18 -37 -18 -39zM499 216
q5 -11 11 -12l2 4q-3 17 -8 17q-3 -1 -5 -9zM-56 154l-1 -3q-2 -11 3 -11q3 0 6 7l1 4q2 8 -1 11h-2q-3 0 -6 -8zM464 140l-1 -3q0 -2 2 -3h1q1 0 5 6q0 5 -1 5h-2q-1 0 -4 -5zM375 54q0 -13 3 -13q5 0 19 11q7 39 2 39q-9 0 -24 -35v-2zM-197 -149q-14 -25 -10 -33l4 -1
q10 -5 49 42q14 27 2 45q-8 3 -45 -53zM-89 -640q-2 -11 5 -19l36 20q24 23 103 140l103 162l42 78q1 6 53 107q14 33 24 40q2 2 13 16q1 4 2 7q1 7 0 10h-1q-5 -8 -16 -8q-3 0 -13 -27q-19 -22 -30 -30q-3 -3 -13 -25q-38 -51 -51 -64q-27 -44 -48 -65q-10 -15 -98 -156
q-2 0 -47 -67q-29 -42 -47 -79q-15 -28 -17 -40zM180 -169q-1 -7 3 -9q17 4 19 15l1 6q0 8 -4 8q-16 -2 -19 -20zM196 -467q2 -7 1 -13l-2 -8q-8 -25 -16 -25q-5 4 -4 13v2q12 31 21 31z" />
    <glyph glyph-name="h" unicode="h" horiz-adv-x="488" 
d="M924 2446q16 -12 11 -34q-4 -13 -4 -19q0 -1 -2 -6q-4 -20 -5 -23q-6 -18 -8 -30q-3 -15 -3 -16l-3 -13q-2 -6 -12 -29q-3 -11 -19 -60q-14 -47 -44 -127q-14 -37 -37 -88q-18 -54 -62 -159q-24 -49 -30 -74q-43 -107 -73 -171q-18 -36 -40 -89q-36 -62 -40 -82l-6 -7h-1
l-11 15q-4 1 -13 -25q-1 -21 -1 -24l-3 -8q-2 -14 -35 -80q-14 -31 -27 -39q-4 0 -6 -7q-1 -18 -3 -24q-26 -74 -38 -73q-4 4 -8 4q-7 1 -14 -19q-1 -28 -2 -34q-6 -15 -29 -48q-11 -20 -17 -40q-1 -7 -23 -14l-7 -15h-1l-6 5q-4 0 -7 -8l-1 -2q-2 -15 2 -15q3 2 15 18
q6 0 1 -23q-4 -15 -17 -33q-9 -18 -19 -26q-5 -14 -25 -32v-5q3 -2 2 -7l-1 -6q-8 -10 -12 -27q-26 -48 -41 -82q-8 -8 -25 -50q-10 -15 -13 -15q-4 1 -9 20q-2 4 -8 4h-3l-2 -12q0 -7 13 -20q3 -20 1 -33v-1q-5 -13 -20 -59q-1 -10 1 -11h1q18 10 37 27q7 -1 23 6
q4 0 37 20q67 47 89 47q11 -3 25 -4q7 -2 17 -65q5 -73 -44 -177q-22 -36 -26 -54q-25 -61 -37 -139q20 -42 36 -43h3v-2l2 2h4q29 0 143 103l21 5q75 76 83 76q9 -11 3 -33q-2 -14 -2 -17q-36 -86 -112 -164q-11 -20 -96 -56q-7 -5 -11 -4q-60 -20 -85 -2q-52 29 -63 97
q-2 12 -1 51q-3 22 7 64q5 48 27 100q70 126 -14 127q-9 -21 -58 -26q-36 -40 -45 -54q-38 -41 -72 -105q-18 -29 -18 -34q-1 -4 -24 -47q-8 -24 -36 -73q-19 -38 -77 -157q-6 -17 -23 -37l-4 -1q-11 0 -10 40l3 8q2 9 43 102q10 20 21 66q3 14 40 82q20 30 42 92l3 8
q0 3 -1 5q-3 0 -55 -72q-6 -6 -8 -4q-3 6 -5 6h-1q-6 -5 -7 -8l-1 -5l-2 -16l-1 -7q-16 -36 -64 -85q-12 -8 -99 -52l94 106q63 91 75 122q37 66 65 99q48 72 59 103q10 17 31 49q19 39 35 64q24 33 34 73l28 68q16 48 30 47l4 -6l3 1q2 -8 4 -8t4 3q-2 0 -2 3l6 24
q1 7 -3 10q-3 -3 -6 -3h-2q-1 0 0 9q5 22 27 57v4q2 16 4 21q4 20 24 45q7 14 21 54q7 15 16 27l1 1v11q6 16 30 48l2 8l3 10q0 2 1 6q21 54 31 54l5 -1q1 0 3 8q-1 15 -1 20q5 15 22 41q5 12 6 15q1 9 3 14q11 20 25 45q57 113 62 133q13 23 58 114q1 5 16 35q6 23 32 71
q22 50 28 71q1 7 1 8q10 23 22 41q17 40 60 128q22 60 40 97q19 52 35 90q4 14 22 52q11 31 40 78q9 31 16 42q5 15 39 56q18 18 29 19zM397 1189v-4v0l1 4h-1zM317 1109l-1 -2q1 -10 0 -22q1 -4 3 -4q5 3 7 6q11 -1 12 -11h2q4 -2 8 7l1 2q2 14 -5 15q-1 0 -6 -3
q-4 1 -5 22q-1 0 -1 3q-12 1 -15 -13zM297 1123q-4 -9 -6 -12q-1 -12 4 -12q3 3 7 11q0 13 -5 13zM285 1064l-1 -4h1q1 0 2 4h-2zM276 1007q-1 -3 2 -4q4 2 4 4l1 5l-2 1q-3 -2 -5 -6zM244 925l1 -1q17 13 19 23q1 7 0 7h-3q-9 0 -17 -29zM206 853l-1 -6q-4 -17 -2 -17h1
q2 1 4 9v1q2 8 1 15q-1 0 -3 -2zM164 820l-1 -5q0 -10 4 -10q10 7 12 19q1 13 -3 13h-1q-6 0 -11 -17zM135 720l-2 -2v-3l3 -1h1v1q0 4 -2 5z" />
    <glyph glyph-name="i" unicode="i" horiz-adv-x="312" 
d="M447 1115l1 -2q7 -9 17 -12q14 -32 10 -69q2 -58 -45 -157l-18 -16q-3 -3 -5 -11q-11 -9 -19 -17l-30 -37q-40 -42 -65 -10q-30 39 5 139q6 60 23 80q27 81 32 87l15 18l10 12q-3 4 0 9q5 -8 36 15q7 -8 10 -16q7 -9 12 -3l4 5l-3 15h1l4 -6q-2 -16 5 -24zM282 698
q3 -4 -13 -37q-28 -46 -28 -55q-22 -46 -32 -77q-30 -58 -27 -63q-15 -26 -16 -37l-22 -59q-21 -27 -48 -72l-36 -31q-23 -28 -28 -45l-1 2q-10 -10 -13 -25q-28 -38 -46 -72q-14 -8 -16 -10l-8 -8l3 -4l-8 -9l-1 -4q-1 2 -4 1l-2 9l-7 -7l-16 -12l3 -12q-27 -21 -29 -18
q-21 -22 -25 -28l-2 -1q-38 -24 -41 -19q-19 12 -24 7q-30 8 -33 5q-10 10 -23 13l-46 43v1q-5 8 -3 14q-11 29 -2 52l-2 -3q-10 17 12 52q3 2 5 2l2 -2l-2 -14l3 -5q7 -3 12 -10v-9l16 -27l3 4l3 -5v-6l6 -10q13 -11 22 -15q35 2 40 -7q1 -2 20 4q30 16 37 16l38 38
q71 95 66 102q25 30 20 38q2 3 4 1l31 49q1 0 11 1l2 2l-6 6q-1 1 7 19q33 50 34 57q44 76 51 110q41 88 49 97h1q9 2 10 0l4 10v1q2 -1 5 -3q-2 -1 -1 -3l3 -5l14 3q-11 13 -15 13q1 6 -1 10q-1 0 33 45l2 1q12 11 39 26l1 -2q-1 -14 1 -16q2 -4 15 2q3 -6 -1 -9zM96 360
l2 -4l2 3q-2 3 -4 1zM91 355q-3 -4 -5 -7t-4 1l-4 -4l-2 -4q2 -4 11 -5q4 4 7 16q-2 1 -3 3zM-196 42l-4 -2q1 -1 1 -6q1 -1 13 -3q4 4 5 7q-5 8 -15 4zM-307 163l-1 1l-2 -2q-3 -3 -2 -6l1 -1l2 1q2 2 2 7zM-298 91v0q-2 3 -5 1q-2 -4 -1 -6l1 -1q2 -3 5 -1q3 3 0 7z" />
    <glyph glyph-name="j" unicode="j" horiz-adv-x="600" 
d="M592 1045h3q4 0 34 -30q25 0 35 -32q3 -31 1 -40q-20 -59 -44 -59q-28 -13 -43 -39q-22 0 -37 -26q-13 -13 -66 -40q-28 -34 -36 -34h-7q-12 0 -7 29l1 9q2 7 34 73q10 48 21 48q18 0 71 113q12 13 40 28zM492 748h1q2 0 4 -6v-2q-1 -3 -6 -6q-1 0 -3 6l1 4q0 4 3 4z
M468 671q1 0 3 -6l-1 -2q0 -4 -3 -4q-2 0 -4 6v3q1 3 5 3zM404 663q27 -14 18 -55q15 -13 6 -58l-1 -5q11 -17 11 -19l-1 -3q-1 -6 -4 -17q4 -20 3 -23q-6 -12 -7 -17l-1 -3q-2 -11 10 -47q3 -21 1 -42q5 -1 5 -4q11 0 37 29q3 0 41 25q1 9 31 18q27 36 61 36q4 0 41 25
q21 0 46 25q17 0 31 9q26 0 35 13l12 5q33 -8 46 -27q18 -29 19 -69q-21 -51 -53 -77q-39 -25 -86 -52q-37 -30 -49 -30q-3 -15 -59 -30q-27 -27 -34 -27h-3q-3 0 -5 1q-68 -29 -73 -51l2 -19l-1 -3q0 -2 -6 -6q-6 9 -11 9h-1q-16 0 -55 -45q-6 0 -13 -9l-1 -2q0 -4 15 -13
l-1 -3q-2 -11 -14 -11q-10 0 -19 -44q0 -10 -1 -15q-4 0 -18 -39v-1q-2 -19 -2 -21q-7 -27 -9 -33l-3 -19q-11 -20 -18 -46q-6 0 -19 -51q-9 -9 -25 -62q-18 -26 -24 -56q-2 -10 -2 -18l-19 -33q-3 -17 -21 -50q-11 -25 -11 -29q-1 -3 1 -7q-1 -5 -18 -22q-10 -12 -18 -53
q-6 0 -20 -42q-16 -21 -35 -52q-17 -14 -29 -47q-17 -16 -33 -49q-35 -31 -39 -49q-24 -26 -29 -50q-2 -10 -47 -46q-15 -35 -36 -44q-34 -51 -60 -73q-4 -3 -15 -29q-16 -6 -36 -40q-35 -22 -52 -40q-35 -42 -52 -42q-30 -32 -57 -45q-7 -15 -36 -32q-1 -8 -33 -20
q-17 -16 -68 -34q-7 0 -29 -14q-18 0 -21 -13q-14 -16 -45 -22q-9 -11 -20 -11q-12 7 -18 7q-5 0 -22 -13h-10q-32 23 -31 44q-2 0 -1 31q22 44 26 63q26 22 35 65q21 43 38 53q7 11 15 40q6 0 33 55q17 18 44 68q6 5 38 59q7 3 25 37q12 12 32 49q1 0 24 37q30 24 37 56
q16 16 27 43q11 10 35 49q18 11 36 49l26 42q14 8 24 33q5 12 31 25q17 40 28 40q21 18 40 64q15 14 33 42q13 12 45 60q12 11 39 52q14 8 36 41q8 0 25 43q3 12 28 26q5 0 13 22l1 19v4l9 -2h3q3 2 24 33q18 9 34 41q20 21 24 39q8 28 20 28q11 0 24 35q35 4 40 31q1 0 3 7
l1 12q2 9 22 16q8 8 13 28q17 6 20 19l3 16q2 8 -9 22q12 16 13 22v1q2 11 1 39q7 25 11 30q4 21 -14 36l1 7q2 6 5 9q5 66 -14 73q-9 0 -44 -33q-18 -8 -62 -49q-6 -20 -54 -49q-4 -13 -33 -27q-24 -18 -36 -31q-12 -3 -32 -23q-9 -6 -39 -36q-12 -10 -41 -26
q-4 -9 -33 -23q-18 -31 -46 -46l-37 -17q-12 -13 -35 -28q-14 -26 -33 -26q-18 -17 -35 -17q-40 -36 -45 -36q-3 0 -27 -27q-31 0 -35 -17q-40 -27 -46 -27q-5 -1 -27 -19q-5 0 -48 -33q-19 0 -35 -17l-26 -8q-31 -41 -58 -41q-28 -30 -75 -30q-1 -3 -26 -6q-8 5 -48 6
l-5 -1q-6 3 -6 5l2 6q1 5 31 13q12 14 24 14h23q8 0 34 17q12 0 87 36q16 0 76 43q27 0 44 24q17 11 34 18q5 4 19 28q6 6 22 9q8 10 31 24q10 11 34 25q7 15 51 38q38 38 54 42q15 0 36 37q1 6 27 13q31 41 48 50q10 36 33 36q10 6 28 34q35 35 76 63q35 32 51 36
q2 12 27 26l46 44q9 0 31 27q8 3 32 30q11 1 33 25q12 0 32 25q30 6 61 17zM271 265v-4l-3 -1l-2 3zM275 12q2 -3 4 -3h2q10 0 12 12l-4 3h-1q-10 0 -13 -12zM-583 -1166l-2 -10q-2 -9 3 -17q-2 -12 -5 -12q-2 -11 10 -13h4q3 0 6 6l2 7q0 1 -6 10q0 3 5 3l6 -6h8
q28 43 40 43h6q5 0 13 -1q4 0 27 23q17 12 69 41q30 44 51 44q12 -9 15 -9h4q2 0 8 7l4 27q6 1 33 37q30 15 42 42q3 0 32 34q6 0 26 29q5 3 27 34q1 0 57 71q36 30 59 78q35 32 40 60q18 11 40 59q17 27 51 63l2 8l1 22q26 37 31 63q4 9 6 18q-15 11 -12 25q0 3 7 8
q7 0 14 -20h2q9 0 29 72q10 17 11 23l2 10l1 10q2 4 7 17q1 5 -9 20l1 4q0 3 21 6q18 28 23 49l2 10q0 4 -3 23l23 24l23 67q1 4 -4 23q3 11 5 18q-5 5 -12 5h-1q-31 -12 -59 -51q-43 -65 -50 -66q-10 0 -28 -43q-14 -11 -50 -67q-32 -17 -37 -42q-2 -5 -30 -30
q-27 -50 -52 -73q-22 -28 -40 -63q-1 -4 -47 -49q-10 -22 -44 -53q-2 -10 -26 -31q-2 -8 -33 -39q-12 -33 -28 -33q-13 -10 -24 -33q-6 0 -12 -25q-25 -13 -30 -40q-25 -37 -41 -54q-6 -5 -24 -45q-45 -60 -45 -62q-9 -4 -46 -79q-29 -36 -34 -61q-3 -15 -23 -34
q-4 -18 -32 -61q-10 -19 -10 -21zM-29 -42h1q4 -2 3 -5q0 -3 -6 -5h-2q-3 0 -2 4q1 2 6 6zM201 -142q6 -3 5 -6l-1 -6q0 -2 -7 -6q-5 4 -5 6l1 6q1 3 7 6zM-76 -164h1q4 0 3 -3v-3q-1 -3 -5 -3h-3q-3 0 -2 3q1 4 6 6zM94 -283q2 0 2 -3q-1 -4 -3 -4q-4 0 -3 4q0 3 4 3z
M-473 -847v-4q-1 -2 3 -6h2q3 0 7 6v4q1 3 -3 6h-2q-3 0 -7 -6zM-501 -1189q0 -9 4 -10h6q5 1 7 11t-8 10h-1q-4 0 -8 -11z" />
    <glyph glyph-name="k" unicode="k" horiz-adv-x="558" 
d="M994 2191l15 -1q10 0 24 -10l-11 -14q-1 -6 4 -8l-6 -4l-1 -4q-6 -10 8 -34l1 -6l-10 -14q-3 -6 -4 -22l-13 -21q-8 -19 -23 -60q-28 -48 -49 -71l-18 -39q6 -17 -1 -34l-5 -9q-36 -59 -45 -59l-9 -57l-26 -33q-5 -17 -10 -27l-25 -39q3 -10 -1 -18q-23 -39 -35 -45l-7 4
h-3l-3 -6q-6 -15 11 -16l-13 -30q-8 -13 -43 -29l-2 -3q11 -15 5 -37l-12 -18l-10 -21q-3 -6 -10 -6q-21 10 -20 14q-31 -6 -33 -11l-4 -16l-8 -2l2 3l-23 -8h-3q26 48 38 57q2 15 8 26q8 17 34 41l7 22l13 20q-3 10 1 19q2 4 19 26q2 3 5 18l11 16l3 14q13 11 20 27v6l6 6
q4 10 6 22q38 72 56 95q-3 10 1 18q14 22 15 24l-1 6q13 12 18 21q9 43 9 46l12 17q6 9 2 9l34 59l1 16q12 10 15 18v3l-8 1q-4 -6 -124 -124l-66 -78v-2q-2 -4 1 -4q-89 -111 -113 -126l-8 -19q-4 -7 -33 -38q-2 -3 2 -3l-143 -184q-3 -3 1 -3q-18 -31 -42 -53l-3 -13
q-15 -17 -36 -31l-12 -28q-14 -29 -121 -163l-2 -12q-39 -44 -64 -84q-10 -8 -12 -8q-1 -19 -4 -24q-15 -24 -41 -53q-8 -14 -13 -34q-5 -10 -39 -11q-4 4 -8 4q-8 -3 -12 -3l-10 -20l-35 -36l-10 1q3 22 7 30q35 46 96 136q15 -1 17 5l16 -3l9 3q4 -3 13 -3l7 6l-4 8l1 4
q4 6 15 4v4q3 6 -8 6l3 6q6 11 26 24q-4 15 -46 17l1 3q99 154 120 154l19 42q14 31 35 29q2 0 17 12q-5 12 5 43q30 25 65 85q20 11 23 18l11 29q6 14 51 57h4q7 0 3 -9h11q7 0 11 8l-1 6q7 6 8 10l-6 2l-22 1q8 15 112 137q17 37 130 163q4 8 67 64q4 9 41 48l50 47
q5 11 88 82q32 27 43 29zM880 2049v-4h7v4h-7zM454 1575l-4 -6h8l3 6h-7zM618 1371l7 -6q15 6 21 6q0 -6 -1 -9q-21 -38 -21 -39q1 -11 -7 -28q-7 -17 -23 -29q-9 -26 -11 -30q-11 -15 -12 -18q-2 -3 -1 -8q-32 -61 -39 -61l-6 -20l-4 -10q-8 -16 -23 -26l-13 -27
q-1 -4 -5 -2q-2 -4 1 -4l-17 -30l-12 -27q-11 0 -14 -6l-3 -6q14 0 4 -24q-25 -23 -30 -26l-3 -3q15 -1 9 -13q-2 -5 -35 -59h4q-7 -6 -23 -33l-10 -30q-5 -11 -29 -30q1 -12 -2 -21q-23 -29 -92 -140l-5 -12q-1 -3 3 -3q-44 -71 -64 -90q0 -1 -16 -38q-27 -38 -40 -66
l-11 -21q15 1 113 108l14 30q3 9 71 62q71 64 78 80l274 252q11 0 46 45q45 32 93 60q11 24 48 25q24 0 10 -40q17 -3 12 -12q-36 -47 -64 -67q-70 -80 -111 -106q-7 -10 -54 -47q-82 -78 -117 -97q-55 -31 -59 -40q-4 -8 -46 -38q-17 -36 -76 -74q-40 -41 -44 -50
q-3 -8 -8 -24l-12 -18q-15 -60 -10 -60q-25 -90 -14 -92q12 -12 6 -54q19 -56 20 -99q-13 -10 -15 -15q3 0 3 -2q14 5 24 5t14 -40q14 -1 52 -51q26 -22 60 -69q9 -1 58 -54l124 -99q12 0 31 -25q33 -14 30 -20q-5 -4 -9 -12q-7 0 -27 11l-7 -6l-2 -6q6 0 28 -17q3 0 32 15
h7q37 -23 54 -23q51 -28 50 -33q-1 -2 -5 -2q28 -50 22 -59q8 -10 14 -10l20 2l2 6q-14 0 -6 16q6 6 7 9h11q12 -2 29 -5q9 3 13 3q19 -9 28 -11q4 0 12 3q68 -13 63 -27q-3 -6 15 -6q7 12 13 12q89 -3 104 29q43 55 68 53h14q11 -6 10 -19l-11 -14q-1 -28 1 -28
q-27 -33 -47 -31l-4 -10q-13 -28 -78 -34q0 -2 -29 -8q-16 13 -30 13q-21 -17 -26 -17q-41 1 -118 23q-60 1 -192 86q-31 9 -66 26q-35 33 -68 41q-14 32 -24 32q-79 45 -87 70q-9 1 -23 19q-37 1 -34 35q-19 0 -29 31q-32 18 -40 29q-50 40 -49 65q31 4 40 23q3 6 -5 8h-14
q-18 -9 -25 -9q0 6 1 10h-4q-8 0 -15 -3q-12 0 -37 62q-17 51 -25 53q3 9 -3 70l-7 62q2 48 10 68h-4q-35 -30 -69 -73q-27 -10 -129 -141q-16 -4 -18 -9q-1 -9 2 -9q-61 -78 -92 -137q-27 -18 -49 -26l-17 1q-17 0 -8 52q39 44 95 149q14 6 20 21q5 7 8 24q29 45 51 68
q4 27 10 39q38 63 61 92l12 24q9 21 3 22q19 34 43 53q2 12 6 21q29 24 35 36q2 5 13 36l15 15q2 23 5 26q21 22 32 39l3 15l79 128l8 18h7q4 0 3 -3q7 2 11 2l5 10q-21 0 -1 46q16 18 27 25l11 40q12 17 16 24l1 12q18 15 22 23q6 16 -1 16l44 53q7 0 10 6q-18 0 -10 16
q16 18 16 20l7 21q0 2 12 18l3 16q22 21 30 38q1 19 3 24q41 75 71 74h3l-2 -6h7q3 6 6 6q2 6 -13 18q-4 -6 -23 -11q0 3 -3 3q6 6 23 32l22 -6q23 21 28 19zM79 1093q27 -4 24 -11q-7 -15 -41 -20q6 14 4 19q9 12 13 12zM33 892q-4 -6 0 -6q-12 -14 -18 -14l-11 1l4 6
q7 14 25 13zM313 852l-1 -2l6 -1q17 3 27 26q-24 -4 -32 -23zM-69 854q13 -4 21 -10l27 -1l-3 -9q-5 -9 -36 -30v-2h-8l-8 6l-6 1l-4 -6q-4 -9 28 -17q8 2 12 2q3 -10 -4 -24q-17 -36 -48 -35q-3 0 -28 5q-2 -6 -17 -14l-2 -6q5 -20 16 -20q27 15 36 15l-2 -4l-14 -20l1 -6
q-40 -56 -52 -66l-7 -15q-1 -3 2 -3q-10 -8 -100 -158l-3 -9q-3 -7 -3 -13q-4 -8 -53 -43l-3 -6l23 2q6 -3 10 -3l-4 -6l-11 -9l5 -12l-4 -9q-3 -6 -30 -11l-13 3q-28 -5 -32 -14q0 -18 12 -36l3 -2l19 10q25 -1 16 -35q-17 -27 -41 -25q-35 -21 -39 -33q-28 5 -21 19h-7
q-7 0 -12 -8h-7q-20 1 -22 22l12 15l20 47q49 56 100 134v6v4q6 13 18 29l4 16q21 37 45 65q7 22 7 24l24 27h-4q14 29 64 83q3 5 6 28l53 67q7 12 16 12q3 6 3 12q26 49 45 66zM-261 513l-8 -15h8q7 0 9 6l2 2q3 6 -3 7h-8zM81 373l-5 -12h11l6 15q-8 -3 -12 -3zM-348 266
l-3 -6h3l4 6h-4zM-393 262l-4 -10h4q7 0 9 7l1 2z" />
    <glyph glyph-name="l" unicode="l" horiz-adv-x="397" 
d="M1524 2495q-12 -76 -27 -138q-78 -142 -82 -164q-52 -73 -55 -103l-210 -382q-121 -212 -129 -221q-23 -51 -60 -119q-43 -63 -42 -75q-46 -71 -74 -125l-14 -12q-8 -26 -9 -28l-10 -9l-33 -19q-3 -3 -8 -12q-17 -14 -20 -17l8 -15q4 6 10 8l20 25q4 5 11 6v-7l-24 -21
q-3 -21 -46 -89l-2 3l-40 -68q-6 -3 -14 -11l-12 -13q-12 -14 -41 -74q-1 3 -4 0l-23 -24q-3 -16 -55 -90q-79 -100 -106 -150q-99 -125 -118 -157l-12 -9q-32 -48 -138 -187q-18 -8 -21 -15q-9 -10 -11 -24q2 -33 -119 -136q-6 6 -37 -26l-93 -79l-6 -9l-79 -62l-7 -16
l-6 -6q-5 -6 -8 -1l-3 5q-3 5 6 15l-3 6q-10 5 -39 -10q-4 -5 -8 -18l-4 -3q-17 -8 -19 -4l-12 -17q-8 11 -20 8q-30 -25 -34 -16l7 30l12 13q62 27 90 57q6 6 85 64l46 51l31 30q-1 3 10 17q6 6 24 17q2 3 18 24q6 7 30 22q6 8 21 37q2 -3 7 2l8 9q21 24 41 76q1 -1 4 2
l9 11l-3 5l95 221l16 14q-3 7 0 9q-1 4 26 58q47 67 56 103q4 19 99 203q55 80 50 91q64 115 97 187q46 58 65 104q100 170 150 272q52 76 50 88q41 74 205 310l15 11q5 7 144 226q2 3 19 17q10 19 16 26q44 80 52 89l24 25q26 28 43 37l-3 -14q3 -5 10 1l6 7q-1 3 -1 11
q-3 -3 -4 0l-5 4q51 64 82 109l20 16l7 8l13 18q1 -1 28 11q21 26 62 1l8 -14q3 -4 -3 -11zM1324 2233v8l-3 6l-9 -9q-10 -11 -21 -41l-24 -21q-21 -30 -59 -75q-5 -3 -22 -20q-100 -161 -108 -171q-98 -127 -148 -223q-10 -10 -25 -19q1 -2 -6 -13q11 -20 -64 -120
q-33 -67 -85 -139q-32 -65 -95 -157q-45 -101 -130 -231q-50 -120 -68 -140q-43 -99 -152 -279q-15 -59 -31 -76q-36 -89 -65 -129l3 -6l7 -1q51 67 62 88q23 17 30 23q6 22 35 60q2 -3 6 2l205 293q92 127 206 314q45 63 42 71q53 81 77 133l7 4q16 56 51 92q31 72 45 86
q88 160 99 172q20 51 35 68q19 46 125 219l95 187q15 15 39 85q-3 6 -54 -41zM1290 2313q-3 6 -9 -2l-4 -3q-7 -7 -4 -12l2 -2l16 16zM1120 1770l-6 -6l5 -9l6 7zM860 1243l-13 -13l5 -9l9 10q-1 4 -1 12zM758 1043q-4 6 -9 -2l-13 -13l-5 -10q10 -2 13 3l15 19zM-186 -103
l-6 3q-5 -7 -2 -13l2 -5l9 10z" />
    <glyph glyph-name="m" unicode="m" horiz-adv-x="856" 
d="M573 1165l2 -7l-4 -6q3 0 2 -3l8 3h15l8 -7h4q3 11 45 13q1 7 16 7q23 -41 21 -53q-8 -13 -13 -13h-4l-11 13h-7q-2 -7 -6 -7q-1 -9 19 -19q-34 -56 -64 -69l-52 -63q-11 -38 -120 -174l-3 -16h18q22 0 37 -27l-1 -6q-5 -22 -5 -43q-12 -23 -15 -39v-14q-14 -21 -17 -36
l-7 -36q-45 -114 -48 -128l7 -3q36 89 147 223q61 82 117 82q29 0 32 -49q-10 -15 -14 -33q4 0 9 -13q-8 -17 -8 -20q-8 -58 -10 -69q-11 -21 -13 -29l-3 -14q8 -12 5 -29l-2 -10q-5 -24 -16 -30q-7 -48 -1 -72q-16 -24 -17 -30l7 -22l-11 -17q-3 -33 -7 -53
q-13 -31 -14 -35q4 -12 3 -20l-6 -27l3 -6q-22 0 -24 -10l-1 -4q1 -6 7 -6l16 10q-7 -38 52 -63h14q42 9 69 45q16 19 74 104q-6 -61 -10 -83q-23 -62 -41 -62q-6 3 -10 3l-4 -7l-1 -19q-33 -47 -66 -47q0 -3 -12 -6l-13 6q-10 -3 -43 -3q1 5 -40 13q-54 50 -45 95
q0 43 -4 70l8 17v19q9 11 10 16q1 7 1 40l19 26l-3 33l6 17q3 15 8 76q15 21 16 25l1 73l2 9q2 12 16 47l-1 16q-6 0 -46 -56q-9 -1 -85 -141q-20 -54 -128 -227q-28 -69 -61 -112q-7 -34 -39 -56h-7q-25 6 -40 33q-7 0 -12 10q16 28 22 56l3 33q10 49 41 98q9 47 43 125
l91 260v3q2 7 -5 7q-28 0 -120 -98q-12 -7 -78 -89q-30 -10 -59 -69q-19 0 -60 -69q-23 -5 -54 -56q-33 -16 -79 -93q-32 -25 -51 -25q-26 0 -24 42q42 76 51 76q28 -24 42 -24q1 4 4 4q-3 16 -15 16l3 17q1 4 -8 9l-16 -9h-4l2 7q33 35 74 105l81 85q9 0 47 43q24 6 53 49
q53 42 213 270q43 34 72 96q33 32 78 140q9 0 21 36q2 23 5 37q11 23 18 23zM453 902l-2 -10q7 0 16 -10h4q18 8 21 20l-12 9h-14q-5 0 -13 -9zM372 386l-2 -10h7l2 10h-7z" />
    <glyph glyph-name="n" unicode="n" horiz-adv-x="559" 
d="M406 919l7 -21q13 -3 14 -51q-8 -43 -29 -61h-3q-7 0 -31 -26.5t-56 -69.5q0 -2 -6 -13h4q12 0 59 29q10 0 10 3q53 -7 46 -41q2 -25 5 -25l-4 -7l-2 -6q-6 -32 -14 -50q0 -21 -4 -41l-8 -22q5 -10 4 -16q-11 -20 -20 -47q-1 -6 2 -25q0 -3 -8 -51l-16 -49l1 -16l-1 -6
q-1 -5 -25 -19q-5 -25 15 -32l-9 -22l-5 -25q-3 -14 2 -25q-8 -27 -12 -44l-4 -22q-1 -7 0 -13q-4 -5 -6 -15q-14 -148 14 -148l16 -3h10q8 0 31 6q28 0 37 -38q-4 -19 -62 -37h-3q1 4 -8 9h-17l-22 -9q-76 21 -69 59q-10 50 -11 95q11 20 13 28l-7 35l2 9q8 8 8 9l1 4v50
l7 19l1 3q1 7 -1 12q4 6 6 13l3 16q0 3 -3 3q10 13 11 19t-2 22l15 41q0 21 3 34q11 20 12 25q-7 16 -5 25v4q2 7 13 28q-1 12 -5 12q5 6 5 10q2 7 0 12q6 17 9 29q3 15 3 31q5 12 8 25q1 4 -1 10l6 18l9 41h-6q-125 -127 -149 -172q-18 0 -63 -79q-13 0 -46 -60
q-4 0 -50 -69q-103 -147 -104 -154q-25 -6 -26 -9q-12 3 -11 12h-7l-11 -6h-3q-15 9 -12 25q16 38 55 91q41 66 53 98q13 0 58 72q6 28 39 28l2 10l-12 3v3q12 13 32 60q10 0 49 75q49 61 88 138q30 33 76 173q20 84 115 69zM306 260l-4 -7q2 -6 8 -4l13 3v9z" />
    <glyph glyph-name="o" unicode="o" horiz-adv-x="494" 
d="M357 914q31 -24 77 -24h30q30 -27 41 -72q-7 -18 -14 -18l-11 24q-9 -6 -14 -6l-1 -8q7 -19 20 -19q9 4 13 4l7 -13l-4 -44q-4 -10 -63 -33l-1 -4q0 -10 5 -34l-6 -24q3 -14 8 -14l-7 -10q-1 -21 14 -37q-4 -45 -212 -358l-54 -66q-2 -16 -104 -105h-5q-8 0 -6 21
q-28 -39 -54 -39q-53 18 -76 71l2 15q0 4 12 37q2 9 -9 33q11 22 13 44q0 3 -2 28l8 29l-2 18q0 20 40 110q6 49 128 213q2 17 47 81q7 63 56 81q29 48 78 48q7 71 46 71zM388 847l3 -8q9 4 14 4l1 18h-4q-7 0 -14 -14zM327 667q-29 5 -47 5h-4q-27 -26 -123 -156
q-11 -37 -43 -83l-54 -123l-5 -42q-2 -28 -12 -77q6 -24 5 -33h9q11 1 141 162q13 6 42 76q149 207 156 281h-30q-19 0 -35 -10z" />
    <glyph glyph-name="p" unicode="p" horiz-adv-x="509" 
d="M580 880q0 -6 5 -6l-4 -5l-1 -9q31 -5 28 -25l-3 -23q-3 -32 -40 -102q-11 -42 -61 -136q-28 -83 -46 -83q-4 -34 -35 -34v-2h7l-1 -9l-48 -109q-22 -15 -43 -64l-7 -5l-8 3h-3l-16 -3l-1 -5q11 -26 13 -26q-31 -89 -93 -130q-8 -19 -34 -36q1 4 -18 22h-30l-1 -8
q-1 -9 -12 -19h7q3 0 37 5q6 -1 5 -5l-11 -12v-3h7l-1 -6q-14 -19 -42 -19l2 -13q-87 -52 -154 -59q-2 -7 -98 -28q-29 7 -54 28h-7q-2 -12 -42 -72q-2 -34 -52 -81q3 -14 3 -16q-79 -134 -124 -203q-42 -76 -54 -76l6 -11q-41 -79 -86 -141q-4 -42 -37 -59l2 -2
q-2 -7 1 -11q-1 -8 -60 -93q-16 -49 -42 -49l-7 2q-6 -2 -14 -2q-26 0 -26 36l5 19q-2 14 0 28l8 19l-2 6l38 72q2 29 38 81q2 24 47 97q1 12 25 48q1 10 66 116q32 35 53 95q22 13 45 64q17 12 35 55q6 0 68 95q44 63 62 80q8 0 19 36q163 204 179 284q31 47 43 88
q10 0 11 12l-6 11q35 68 66 180l1 4q-9 19 -7 36q9 18 10 25l-6 7l1 21q1 5 15 5l-2 14v8q1 7 42 9q0 -3 3 -3l-4 -6q0 -6 6 -6h6q2 15 23 15q17 0 19 17h4q10 0 21 -59q-33 -61 -44 -95q-27 -17 -27 -24l6 -12q-21 -62 -45 -114l-1 -11h10q37 50 68 76q72 80 134 133
q33 39 98 89q20 9 58 38q53 42 104 51zM95 374q-9 9 -8 16h-10q-8 0 -13 -19q13 -5 19 -17l-47 -66q-12 0 -36 -48q-10 -3 -40 -60q-14 -8 -32 -53q-27 -31 -45 -73q18 -24 16 -39l-2 -19q97 12 97 19l101 42q112 125 134 144l8 -14q0 -2 -15 -16v-6h21q13 4 16 25
q-15 17 -33 17l1 3q41 95 60 95q3 32 130 241q6 0 6 6v17q31 49 50 108q10 0 29 72q3 0 11 11l2 14h-11q-73 -40 -138 -120q-70 -68 -92 -83q-5 0 -27 -38q-48 -33 -72 -74q-11 0 -43 -49q-13 -5 -34 -36h-3zM135 630l-11 -12v-5q-1 -6 5 -6q15 7 18 14zM439 548v-11
q3 -4 8 -3l7 1l3 10l-11 5zM39 485l-1 -5h4l1 5h-4zM-513 -418l-1 -9q0 -6 6 -6h7q9 0 16 23l-3 5q-22 -13 -25 -13z" />
    <glyph glyph-name="q" unicode="q" horiz-adv-x="611" 
d="M-313 -1318v23l-3 19l-2 1q-12 2 17 110q10 16 13 24q3 25 1 26l9 19q5 11 9 34l13 28q10 29 5 30l31 76q2 30 8 47l1 4q4 11 29 52q-1 28 26 85q5 2 25 1l24 4q-45 2 -47 11l6 8l7 20q3 9 3 17q9 13 12 20q2 6 7 37q6 17 36 104q6 34 4 34q5 0 44 106q1 8 1 12q6 7 9 16
q5 23 6 25l24 48q7 21 3 22q21 48 43 110q19 38 30 50v9q15 43 51 90q2 10 12 47q33 66 77 142l11 24l8 29q1 5 62 105q6 24 10 34l20 40q2 8 -2 9q-48 -39 -169 -95q-6 1 -89 -35q-3 4 -9 5h-2q-15 -9 -21 -8l-14 6q-29 -33 -59 -27q-6 10 -17 12q-3 -8 -24 -13
q-11 5 -4 22h-24l-1 44l5 8q7 29 9 33q7 23 56 72q44 86 107 128q42 37 91 58q42 40 131 53q41 1 47 4q3 -4 8 -5h19q23 -4 9 -80q-1 -12 1 -13q-46 -65 -50 -78q3 0 1 -4q76 45 97 108q23 26 35 24l7 -2q27 -5 14 -45q-55 -106 -97 -174q-4 -34 -5 -38q-3 0 -3 -4l3 -5
q11 13 41 84q29 30 46 78q8 7 33 43l6 19q2 5 -1 5q60 120 85 163q11 -1 14 10l6 -1q6 -1 1 -35q3 -9 7 -10l-2 -4l-8 -11l-5 -13l4 -1q13 7 14 11l9 -15q8 21 27 17l-2 -4q-32 -36 -69 -95q-37 -42 -72 -118q-8 -7 -78 -134q-2 -8 -76 -124l-2 -5q-1 -4 2 -4
q-53 -82 -108 -216q-33 -53 -89 -174q-5 1 -12 -20l-10 -28q-2 -5 0 -5l-4 -8l-6 -17q-7 -20 -40 -84q0 -4 -1 -12q-33 -96 -63 -129q0 -3 1 -4l-8 -16q-9 -36 -13 -45q-28 -61 -38 -75q-2 -6 -10 -47l-6 -16q-3 -10 -24 -48q-35 -78 -39 -115q-19 -53 -23 -65
q-25 -116 -28 -126q-20 -26 -22 -31q-10 -42 -24 -82q-18 -38 -26 -61l-3 -8q-3 -9 -3 -16q-36 -81 -76 -111zM-9 -479l7 20h-2q-12 -5 -14 -10l-3 -8q-2 -8 1 -9l3 -1q5 0 8 8zM39 -260l7 20q1 8 -3 9h-3l-6 -19q-3 -9 2 -10h3zM333 275l1 4q4 10 -7 15l-7 -16zM142 446
l9 -2q36 34 73 40q46 42 78 112l1 4q-8 2 -14 -2q-8 7 -16 8q-43 8 -120 -57q-81 -40 -127 -110l-5 -16l33 -6q37 2 88 29zM641 741q4 10 -15 25q6 13 8 12l5 21l17 49v8q19 10 29 8q25 -13 12 -50q-27 -25 -33 -41q-1 -19 -3 -26q-13 -7 -20 -6zM606 801l-5 1q3 8 7 7z" />
    <glyph glyph-name="r" unicode="r" horiz-adv-x="456" 
d="M569 848q13 1 28 -17q10 -16 9 -30v-4q-6 -37 -11 -49q23 -81 -82 -77l-9 66q-3 1 -5 2q-3 -2 -3 -4q5 -8 -9 -40q-3 -1 -15 3q-9 -1 -10 -2h-6q-14 -4 -43 -29q-6 -7 -15 -9q-7 -4 -14 -15q-35 -30 -41 -33l-3 -3q-3 -1 -4 -1q-4 -1 -5 -5l1 -3q-18 -15 -35 -32
q-21 -29 -32 -30q-11 -16 -13 -16q-4 -2 -11 -15q-48 -55 -54 -70q-11 -15 -11 -27q-2 -6 -14 -15l-20 -32q-7 -11 -11 -11q-2 -1 -10 0q-5 -4 -6 -9l1 -2l2 -13q0 -1 -9 -10q-6 -11 -14 -30q-2 0 -8 -14q-7 -12 -9 -12q-4 0 -13 11q-3 3 -6 3l-1 -1q-4 0 -8 -6q5 -2 5 -7
q0 -2 -3 -5q10 -10 10 -11l-1 -4l-2 -5l-1 -3q6 -6 6 -9l-1 -1q-14 -36 -31 -62q-10 -21 -13 -21q1 -1 -6 -3q-2 1 -5 1h-1q-6 -1 -7 -5q2 -5 6 -5q6 4 8 4l2 -5q-2 -8 -30 -62q-18 -25 -33 -52q-36 -57 -43 -69l-39 -59q-21 -25 -39 -34q-8 -3 -12 -4q-17 1 -14 12
q-1 5 19 36q15 25 34 56q5 3 8 16q8 12 20 29q27 58 40 83q9 15 27 55q8 16 15 36q18 34 46 103q17 26 21 43q0 4 20 28q0 8 19 45q14 25 14 31q0 13 12 23q15 31 14 40q3 9 16 21q-1 6 10 11l2 4q-5 6 -5 12v1q1 2 11 35q6 15 11 31q3 1 4 4v0q-2 0 -3 1q-2 0 -18 -18
q-16 -11 -22 -16q-16 -8 -17 -13q-1 0 -1 -1l9 -8v-4q-1 -1 -11 -6q-1 -2 -4 -3q-9 6 -13 6q-7 -4 -9 -5q-1 0 -8 4l-1 -2l1 -3q-1 -1 -1 -6q0 -6 -14 -17q-19 -16 -36 -31q-5 -2 -10 -10q-8 -3 -17 -10q-7 0 -18 -12q-2 0 -11 -11q-6 -4 -24 -13q-6 -5 -21 -15
q-24 -26 -38 -30q-20 -14 -31 -15q-4 -1 -17 -1q-5 0 -11 -2q-20 -1 -21 12q-4 13 -3 17q3 24 17 25h3q3 1 3 -1l-1 -3q1 -1 0 -1q1 -8 6 -8q3 0 5 5v1q1 10 -8 10l-2 4q2 6 3 8l-3 5q1 15 29 30q5 2 7 2h16h2q17 2 37 18q3 2 4 2t8 -4q8 1 11 11q2 1 6 1l1 1l3 -9
q3 -1 12 0h3q5 1 9 8q-1 8 -16 13l-1 4l1 2q1 6 28 25q7 5 15 11q10 8 13 8l5 1q1 0 1 -1q5 0 10 13q34 26 35 29q0 2 2 3q5 -4 7 -4v0q3 1 8 17q6 7 13 10q4 5 24 18q18 13 25 20q14 20 25 25q4 6 38 36q17 10 35 24q7 3 12 4q13 1 18 -18q1 -10 0 -14q-1 -15 -20 -76
q-3 -5 -7 -21q-3 -1 -5 -5l-1 -1q0 -1 4 -2q-5 -9 -10 -25q-1 -4 2 -6q4 1 18 17q13 4 14 7q4 8 13 9l13 24q1 0 3 5h3h1q3 2 5 8q2 3 6 5q3 -1 5 -1h1q4 1 9 16q11 6 15 15q4 4 7 4h1q2 1 8 -1q3 4 7 15q3 3 29 21q23 24 37 31q22 17 27 23q11 11 39 28l14 9q7 1 19 13
q18 13 39 15q1 1 10 1zM-157 405v-1q-1 -2 5 -2q4 1 7 6q-2 5 -6 4h-2q-3 -3 -4 -7zM-197 380v-2q-1 -1 1 -2h2q2 0 2 4q0 1 -2 2h-1q-1 0 -2 -2zM255 445v-1q0 -11 10 -12h1q14 7 21 7h6q7 4 7 10q-5 15 -13 14q0 1 -2 1q-31 -12 -30 -19zM162 406q6 1 6 -5q-1 -5 -7 -6h-1
q-6 1 -6 5q3 6 8 6zM81 231h1q5 0 5 -2v-2q1 0 -1 -1q-5 2 -6 4zM-139 -76q2 -6 5 -6q5 1 10 12v0q-1 5 -4 5l-2 -1q-5 0 -9 -10z" />
    <glyph glyph-name="s" unicode="s" horiz-adv-x="621" 
d="M528 991q84 14 93 -22q12 0 46 -52q0 -13 1 -22l3 -12q1 -2 -3 -3l5 -4q1 -5 -3 -35q17 -28 21 -33q-3 -18 0 -27q9 -29 9 -32l-28 -93h-3q-1 3 -25 9l-3 -1l-6 -4l6 -10l4 -20l-19 -4q-3 -5 -2 -10v-6q16 4 24 -4l1 -7l-56 -96q0 -3 -26 -29q-31 -8 -53 17q-4 -1 -4 2
l-1 4q14 3 26 42q23 27 43 32q-4 15 6 17l-2 7q-13 -3 -13 2q3 12 10 14l3 1q2 -12 10 -10q5 2 9 10l-2 7q-10 -3 -11 3l-1 1q-4 19 33 79q3 47 -2 69q-11 37 -15 38l2 38q-20 0 -51 41q-14 0 -33 21l-21 -3q-99 -30 -95 -47q-56 -32 -84 -83q-29 -69 -54 -108
q-20 -5 -24 -51q-34 -84 -38 -114q-6 -5 -12 -26q7 -15 9 -25q1 -10 -21 -37q9 -7 11 -13l1 -12q1 -5 -11 -7l1 -5q1 -8 13 -15q-5 -9 -3 -15l1 -5l8 -5l3 -15q2 -8 -4 -25l10 -16q-3 -19 -2 -23q11 -37 12 -44l2 -22q5 -9 8 -16q-1 -55 -23 -105l-15 -48l-9 -3l-16 4l-6 -2
q5 -28 -24 -35q-14 2 -29 -3q-5 -6 -64 -23q-90 2 -125 40q-14 -4 -29 33v14q-10 -2 -27 29q4 26 15 29h4q2 -6 28 -15l3 1q8 2 9 22l-17 10q13 11 11 18l10 3q58 -5 63 -28q-4 -12 -3 -25q2 -7 12 -17q-5 -13 -3 -23q10 -43 80 -26q68 31 58 72q7 2 4 13l-4 22q-8 34 -9 72
q-6 15 -16 27q1 28 -1 39l-7 8q5 13 3 23q0 3 -6 6q-4 75 4 76q-4 5 -4 7q-4 22 27 102q20 50 18 76q29 66 46 116q10 4 29 69q19 24 47 49q10 32 89 95l42 37l5 2l11 -3l11 3q-4 14 47 29q4 -4 4 -7l4 1q7 2 4 14q23 6 46 16zM643 834l1 -4q1 -4 12 -6l9 3l-1 3q-7 7 -21 4
zM205 625v-12l7 -1l7 2l-3 14zM107 386h7l2 5l-1 3l-3 -1q-7 -3 -5 -7z" />
    <glyph glyph-name="t" unicode="t" horiz-adv-x="371" 
d="M1705 1783l-2 -4q-2 -8 -8 -7l1 4q4 7 9 7zM672 1515l-3 -6l14 -6h6q-1 7 -1 10zM833 1110q-5 4 -11 5q-1 -1 -8 -14q1 -18 -2 -28q6 -1 24 23q7 -1 25 14v4q3 8 -3 8l-9 1zM603 967l-4 -11h9q13 3 21 22q-17 1 -26 -11zM82 503l-2 -6l3 -2q6 0 8 7zM-15 242q6 -2 0 -15
q6 -1 39 2q-3 -6 -1 -17h-3l-2 -82q-5 -78 20 -118l-1 -3q-5 -6 -7 -10q28 -12 46 -62q13 -1 8 -26q3 0 2 -3l7 2q23 -24 72 -36q0 -4 11 -6h3q9 -1 11 2l13 -4l26 -4q26 -10 30 -10l7 2q5 -3 9 -3l18 8l27 -2q11 -3 66 35h9q15 -3 17 -21l-3 -6q-1 -3 -21 -16
q-4 -19 -9 -32q-5 -16 -131 -46q-119 20 -114 34l-15 1l-18 -1q-65 48 -80 77q-32 33 -43 66l1 4l10 9l-35 39l-1 8l4 7h3l24 -25l8 -1l4 10q-8 1 -8 16q5 0 16 12q-13 19 -23 20q-2 -6 -9 -5l-9 1l2 3l9 17h-3q-6 -3 -13 -2q-1 15 -4 15q10 11 14 20l1 3q-31 33 -18 70
q-3 0 -2 18q24 52 36 55zM8 45l-3 -7q6 -1 8 6zM61 332q-4 -9 -17 -40l1 -14q-16 -38 -23 -38l-15 3q-38 31 -29 56q7 17 17 52q11 23 19 45q-6 5 -1 22l2 3l15 24q10 36 12 41q10 24 50 34l2 7q-10 35 -22 41q3 32 6 42q11 13 15 24l4 20q25 58 49 100q8 17 2 17
q31 59 50 88l3 10q4 8 4 15q36 55 37 59l-5 5l-9 1q-24 -17 -86 -26v5q-36 -7 -52 -6q-23 2 -87 24l-16 -2q-45 19 -54 52q4 13 -16 17q82 1 197 -11q26 -3 50 5l16 -6q92 33 111 30l9 25q81 127 204 318q82 137 123 199q22 27 58 98q4 -1 35 53q61 98 69 117q60 133 80 99
q61 -5 93 -19q-123 -182 -176 -263l-2 -4q0 -4 3 -4q-30 -47 -57 -77q-16 -50 -18 -55q-36 -67 -72 -111l-6 -24q-56 -85 -136 -225q-5 0 -12 -17v-7q-10 -12 -16 -27l-5 -14q40 -4 90 26q10 -1 142 67q59 20 177 88q155 91 246 153q1 6 45 31q3 8 63 46q7 20 209 141
q-142 -73 204 155q2 5 24 19h3q-9 -28 2 -48l15 6q3 -3 10 -5q-8 -22 -53 -62q-729 -517 -990 -639l-252 -101l-99 -154q-74 -117 -81 -116q-9 8 -19 9l-11 -34q-2 -4 1 -5q-18 -22 -25 -36h-2l1 -2q-3 -4 -4 -8l-6 -18q-8 -24 -3 -25q-24 -27 -26 -36q-2 -23 -6 -32l-3 -8
l-2 -3q-18 -11 -20 -15l-7 -20q2 0 5 -2l-5 -7l-28 -124z" />
    <glyph glyph-name="u" unicode="u" horiz-adv-x="632" 
d="M568 473l-1 -1l-5 -13q-7 -28 -3 -29q-93 -168 -106 -168q-4 -8 -58 -68q-40 -44 -86 -83q-18 -25 -60 -67q-23 -39 -56 -60q-6 7 -17 7l-4 -5l-32 26q-3 -9 -12 -10q-39 -2 -58 41q-8 0 -2 33q6 9 8 13q-14 -1 -8 51q7 9 -2 24q2 2 6 57q2 2 22 23q-21 41 2 121
q21 111 23 128q-4 0 -2 3q12 15 15 22q6 17 -9 45q8 62 19 94h3l-1 32l4 39l-7 -18l-60 -19l-63 -15l-56 -7l-24 -9l-32 14l-37 22l-25 71l28 -23l45 -41l60 -5l72 35l63 51l38 54l13 -27l15 53l71 35l34 2q13 15 17 15q-2 -6 28 -18l-32 -144q-14 -15 -16 -25l-8 -21
l-8 -24q-5 -8 -8 -14q-2 -16 2 -15l-17 -26q-13 -45 -11 -61l-14 -30l4 -24l-4 -8q-14 -15 -20 -30l-2 -4l-2 -45l-12 -23q-23 -119 -26 -125q2 -35 -1 -42q-16 -59 3 -87q16 -15 25 -15l-5 -13q-8 -21 2 -28l16 1q13 33 42 35q115 98 192 193q62 93 70 112q5 16 11 38
q14 25 26 25l14 50q6 8 10 11l2 1q18 0 21 -18l2 6l14 -68l33 -50l56 -1l-68 -20l-37 31z" />
    <glyph glyph-name="v" unicode="v" horiz-adv-x="574" 
d="M1717 1356h19v-2q-7 -10 -16 -10l-4 7zM1759 1356q68 -28 111 -37q46 -23 77 -56q17 0 47 -64q7 -10 16 -40q9 -3 5 -22l-1 -5l-6 -7q15 0 10 -27l-1 -3l-4 -5l3 -49q-11 -26 -26 -44q-3 -19 -42 -74q-2 -9 -23 -27q-2 -12 -73 -62q-17 0 -63 -27q-30 0 -53 -22
q-10 2 -8 10h-3q-11 -17 -42 -17q-5 2 -7 2l1 3l9 12q1 7 -18 12q-2 -11 -17 -17q1 3 -7 7q-15 -1 -16 -7l-1 -3q13 0 18 -12q-53 -15 -67 -15h-17l-4 3l-1 -3q-7 5 -11 5l-11 -5q-4 3 -9 3l-27 -10q-9 5 -14 5l-35 -3l-16 3q-28 -3 -28 -5l-5 2q-14 0 -18 -2l-45 5l5 17
l3 15q7 0 8 5l1 15q4 -3 6 -3q13 0 14 5q22 -2 36 -7l12 2q-1 -7 1 -7l18 2l-2 -12q4 -11 14 -15q9 5 16 5q-2 -10 3 -10h2q11 0 52 27q9 0 26 20q17 -5 24 -5q20 4 21 7l4 -2h5q44 15 48 15l14 -3q9 0 53 18q-1 -5 4 -5q22 0 27 22q33 0 51 37q32 17 84 74q17 34 24 59
q5 0 7 10v12l6 17l-2 17l7 18q-8 32 -24 59q3 11 -12 22q5 27 -12 27q2 7 -34 15q-1 8 -50 42h-8q-10 0 -28 -3q-23 13 -34 13h-2q-3 -15 -23 -15q-6 0 -16 7q-8 0 -12 -2l-15 2q-12 0 -13 -5q-4 3 -7 3l-27 -15q-10 4 -9 7q9 5 13 5l1 3l-5 10q2 4 3 9h-2q-5 0 -7 -12h-3
q-17 0 -13 22q68 27 82 27l1 -17q9 0 35 25q5 0 5 -3q-1 -5 4 -5h2q4 0 8 8l5 -3h5q17 22 22 22zM1540 1285l2 -5q-13 -7 -16 -7q-5 2 -8 2l1 3q3 7 21 7zM1579 1278h4q-3 -15 10 -15l1 -5l-1 -3q-3 -13 -55 -19l-2 5l1 5q10 0 27 24zM1500 1268l8 -8l-3 -5l-2 -9l4 -8l17 3
h5v-3q-8 -7 -67 -39q-1 -4 -12 -10h-5q3 15 -10 15l1 5l6 7q1 5 -4 5h-7q-2 0 -2 -3l-5 3h-3v-3q-2 -7 6 -19l-2 -8h-12q-5 -13 -6 -14q2 -5 2 -8q-17 -6 -42 -24q-20 0 -50 -23q-13 0 -44 -29q-15 -11 -23 -12l-10 7q-6 -1 -6 -5v-12l-23 -15h-7q-5 0 -3 10q-23 -3 -25 -10
v-17q-2 -10 -54 -47q-21 -25 -50 -40q-13 3 -19 3l-4 -5q0 -14 -1 -20q-25 -15 -51 -37l-1 -5q35 -6 59 -22q14 3 15 3q8 -13 105 -27q-1 -5 12 -5q5 0 10 2l33 -10l12 3q16 -8 19 -8q18 3 20 3q64 -11 61 -27q-12 -22 -31 -37h-5l-7 5h-2q-6 0 -11 -3l-60 10q-5 10 -8 10
q-1 -5 -5 -5h-8l-6 5l-22 -2q-36 12 -70 12l-6 -3q-15 14 -44 15q1 5 -46 15q-7 4 -65 20h-7q-17 0 -67 -50q-64 -58 -84 -66q-3 -14 -21 -22q-68 -65 -96 -84q-35 -46 -84 -84q-12 0 -11 5q-12 -5 -14 -10q2 -15 6 -15l12 8h3l-1 -3q-31 -32 -33 -32q-5 0 -2 15h-3
q-14 -9 -29 -32l2 -5q-1 -5 -39 -37q-8 -13 -38 -39q-4 2 -6 2q-16 -5 -17 -10q4 0 8 -9l-1 -3q-13 0 -25 -27q-20 -27 -74 -74q-31 -43 -56 -69q-3 -17 -51 -81q-5 0 -21 -35q-25 -45 -31 -46q-5 0 -4 7l-25 -2h-3q-6 31 -3 46q7 14 27 87q2 0 4 9q-1 16 0 20q4 20 19 59
q1 3 -2 3l4 5l1 5q5 28 4 39l40 158h-3q7 9 8 17q2 7 -1 20l4 4q5 37 0 37q6 9 9 20q7 104 -19 104q2 10 -36 12q-2 -7 -47 -10l-52 -37q-20 0 -31 17h-4l-1 -2l3 -30l-1 -5q-17 -4 -39 -27l-21 3l-4 -5v-12q-51 -51 -68 -89q-31 -27 -71 -57h-8q2 12 24 67l26 58
q8 13 59 92q47 74 74 74q15 0 19 17q18 0 119 30q10 0 47 14l12 -2h12q8 0 12 2q42 0 65 -37q30 0 36 -88q3 0 3 -20q-11 -20 -11 -22q2 -16 1 -22l-1 -3q-3 -17 -18 -29v-3q9 -12 5 -32q-1 -6 -6 -19l-1 -28q0 -1 -13 -19q2 -16 0 -25q-10 -26 -12 -34v-3q-4 -17 1 -17
l-23 -52l-3 -15h3q27 29 52 40q19 18 42 52q7 0 46 44q8 0 31 29q24 16 90 79q12 0 22 25q25 12 61 52q21 22 73 66q2 10 47 40q10 17 74 76q8 0 6 -12h4q14 20 15 24l-5 3l30 32v2q2 8 -70 35q-113 58 -112 66l1 5h12l2 7h-3q-26 -2 -30 -2q1 3 -26 27q1 5 -2 17l25 15
q-1 5 0 8l5 2h4q18 0 65 -47q61 -37 113 -56q4 -11 55 -28l-1 -4h12q53 13 54 17q21 18 71 54q6 9 37 22q100 97 164 118q13 15 25 15q1 4 12 10h7l-1 -5h3q20 25 27 25q13 0 28 19q63 23 108 57q39 20 51 20zM1434 1186h2v-2q-1 -4 -9 -7l1 5q2 4 6 4zM1952 980l-1 -5h5
l1 5h-5zM1855 938l-1 -5h5l1 5h-5zM1498 815q16 -6 15 -10l-1 -3q0 -4 -17 -10q-12 3 -21 3h-5l2 10q1 6 27 10zM1291 805l-3 -5l-1 -3q0 -5 4 -5q6 3 8 3l1 7z" />
    <glyph glyph-name="w" unicode="w" horiz-adv-x="814" 
d="M822 925q64 -94 53 -148q6 0 2 -17q-4 -7 -5 -11q4 -51 2 -63l-5 -21q-16 -82 -83 -158q-149 -147 -175 -147q-103 -105 -104 -112q-2 -8 -59 -74q-76 -137 -107 -137q-10 0 -29 -10q-23 0 -19 56q-7 0 -5 28q2 12 24 42q16 46 89 172q86 158 121 249l1 3h-5
q-53 -35 -82 -63l-80 -63q-94 -72 -95 -77q-7 0 -69 -56q-10 0 -27 -25h-3l4 18q1 7 -7 7q-27 -2 -29 -11q4 0 7 -17l-3 -18l-146 -140q-2 -11 -113 -137q-57 -90 -115 -143l-12 -4q-29 0 -26 49q10 53 96 140q3 18 134 200q40 49 43 67q79 117 109 172q18 8 56 94
q14 11 50 85q50 73 57 108q3 0 12 14l-1 67l2 7q6 32 41 70h3q-4 -58 -6 -70h6q16 28 18 38l13 -3q7 17 22 17h3q13 -7 7 -35l-1 -3q-29 -112 -40 -119q-75 -111 -76 -120q-34 -35 -74 -122q-11 0 -45 -77l-33 -56q-16 -23 -18 -32q32 10 72 60q104 84 116 84q4 19 86 77
q96 81 105 81q82 66 114 66q14 0 18 -17l-4 -21q-18 0 -26 -21l5 -4h8q2 0 20 21q6 -1 5 -7l-6 -28q-26 -55 -47 -126q-47 -86 -98 -193l4 -4q3 14 56 60q6 19 74 70q41 21 130 116l9 -11h5l7 4l1 24l1 4q35 22 48 91l1 4q5 26 9 84q0 2 7 21q1 6 -26 35q-11 39 -8 56l2 7
q30 51 34 53zM317 833q-3 -15 -17 -31q-2 -8 12 -11q10 7 17 7l-2 -10h8l3 14q4 21 -7 21h-8q-2 7 -1 10h-5zM817 735v-3q-1 -7 4 -7t7 7q-2 6 -1 10h-2q-6 -1 -8 -7zM171 553q-1 -7 4 -7l1 7h-5z" />
    <glyph glyph-name="x" unicode="x" horiz-adv-x="799" 
d="M422 960q1 -13 31 -24l-8 -85q-1 -4 -22 -28l-2 -12q12 -2 10 -12q-11 -26 -37 -104v-17l-37 -88q-3 -50 -9 -84l-12 -57q0 -8 5 -8q6 0 26 69q74 60 79 76l15 -4q23 39 57 68q23 26 156 141q1 7 77 88q43 57 63 57h10l-12 -37q20 -16 19 -20q12 8 21 8l-1 -4l-7 -20
q22 0 16 -28q-1 -9 -39 -36l-121 -80q-10 32 -15 32h-3l-29 -16q-5 -44 -2 -44q-66 -85 -77 -85q-36 -32 -42 -32q-2 16 -7 16q-13 -6 -14 -12v-16q-9 -7 -43 -56q-78 -58 -124 -113q-33 -22 -35 -32q10 -20 9 -64q16 0 2 -68l-1 -5q22 -68 40 -72q62 -40 151 -40l-8 -20
l-11 -52q-1 -8 -7 -8l-11 12q-47 -18 -48 -20q-12 11 -69 20q1 5 -22 12v4l16 20l4 16q1 8 -5 8h-3q-5 -27 -23 -36q-30 0 -69 100h-9q-27 -27 -63 -44q-14 -19 -89 -68q-84 -72 -148 -117q-82 -82 -131 -100q-25 -44 -31 -44q-11 0 -62 -57q-31 -22 -96 -84q-2 -10 -43 -40
q-25 -39 -144 -137q-2 -11 -129 -132q-49 -81 -102 -117q-5 -24 -71 -84q-4 -23 -153 -165q-14 0 -30 -8q-73 17 -64 64q29 38 105 129q4 20 56 56q18 45 137 177q3 10 151 149q6 30 69 76q75 92 101 96q8 23 157 165q9 0 140 129q8 0 86 80q54 49 82 64q72 83 140 133
q13 17 42 36q17 25 92 76q19 28 21 28q-5 20 5 69q3 16 12 44q3 36 3 44l34 96q1 4 2 25q22 33 40 120q6 0 7 8l1 4l1 20q-35 0 -132 -76q-18 0 -144 -137q-15 -8 -21 -8q1 6 -8 12h-3l-1 -20v-4l-24 -8q-28 0 -26 89q30 72 67 72q8 11 108 60q5 11 166 105zM733 803l-1 -4
q0 -8 6 -8l4 8l-6 4h-3zM735 779l-1 -4h6l1 4h-6zM87 743h6l2 8q-7 -1 -8 -8zM74 691l-6 -29q22 0 32 20l1 5q4 20 -4 24q-22 -15 -23 -20zM-58 32h3l75 56q26 0 57 52q60 14 65 36q9 23 63 48l37 41q2 6 1 36h-6q-155 -137 -191 -157q-11 -26 -98 -96q-4 -7 -6 -16zM55 216
l-3 -12q0 -8 5 -8h4q6 0 7 8q1 6 -7 12h-6zM-123 -21l-1 -4q46 29 61 49l1 4h-3q-32 -13 -58 -49zM-167 -53l-9 -12h6q6 0 8 8zM-898 -740l-4 -8l-1 -4q3 -16 16 -16l4 8l1 4q-3 16 -16 16zM-930 -888l-3 -12q6 0 6 -4q5 4 16 4l2 8q1 5 -7 12h-7q-6 -2 -7 -8z" />
    <glyph glyph-name="y" unicode="y" horiz-adv-x="504" 
d="M1386 724q5 -5 4 -8l-2 -13q-34 -57 -57 -59q-12 -1 -10 23q7 34 65 57zM384 501h6q3 0 2 -5q-1 -3 -15 -18q-4 -1 -3 5q7 17 10 18zM-1036 -951l-2 -11q7 -34 39 -31q24 7 41 8q14 2 37 2q5 0 71 27q4 1 28 -25q6 0 21 47q33 27 56 33l17 -1q22 2 72 51q19 7 67 57l16 3
l46 51q48 23 147 120q49 28 87 64q22 3 46 54q25 14 77 80q28 34 51 41q32 52 137 188q71 89 75 108q-8 16 -9 16l-10 -1q-34 -16 -72 -23q-22 -24 -87 -29l-89 -33q-41 -35 -101 -40q-105 -61 -127 -62q-60 -43 -127 -68q-22 -27 -109 -91q-32 -41 -85 -81
q-57 -70 -135 -143q-79 -100 -116 -174q-29 -33 -62 -137zM-525 -757l-2 -9q0 -5 2 -5l4 1q4 0 8 10l1 2q0 3 -4 8h-5q-3 -1 -4 -7zM-339 493q-11 16 25 66l1 7q1 8 23 49l1 2q16 11 18 18q5 28 301 174q3 18 113 55q49 21 99 51q63 -15 60 -29q27 -27 19 -77
q-13 -67 -106 -246q-94 -184 -101 -224q0 -12 9 -11h2q27 30 70 98q93 100 143 162q19 2 104 111q5 0 67 59q4 1 18 8q30 3 14 -82l-8 -33q-2 -5 -2 -9q-19 -112 -88 -216q-52 -142 -72 -171l-25 -59v-3q-4 -17 -1 -34q39 32 86 36q40 32 117 56q61 21 95 53q10 7 20 7
q34 1 39 0q38 37 111 68h1q2 -28 8 -28l11 1q7 -1 18 42q41 30 48 32q14 -2 24 0q76 56 111 59q32 40 96 69q31 2 114 72q22 19 32 20h4q16 1 11 -23v-2q-78 -83 -100 -86q-19 0 -55 -47q-11 -4 -15 -4l-13 2l-17 -16q-5 15 -14 14h-3q-7 -1 -18 -42q-11 -2 -55 -34l-45 -17
q-20 -31 -92 -59q-10 -13 -40 -27l-12 3l-14 -1q-52 -31 -55 -31q-23 -3 -90 -60l-111 -46q-39 -37 -84 -42l-44 -15q-62 -44 -109 -57q-71 -39 -78 -78q-59 -100 -63 -101q-39 -83 -101 -154q-53 -58 -59 -82q-38 -48 -104 -143q-6 0 -78 -99q-4 -2 -61 -68q-10 -1 -68 -61
q-29 -2 -78 -68q-16 -10 -19 -10q3 16 -4 22l-3 -1q-5 0 -11 -12l-2 -12q-1 -8 5 -8v-2q-14 -17 -80 -70q-7 -10 -28 -19q-9 -1 -15 27l-5 -1l-5 -9l-1 -5q5 -17 4 -23q-13 -29 -26 -30h-2q-1 21 -15 20q-4 -1 -4 -4l-3 -13l3 -9q-2 -4 -24 -13q-3 -19 -90 -73q-11 2 -18 1
q-65 -49 -101 -56q-21 -19 -39 -20l-16 -2q-6 -1 -36 7q-10 0 -46 -8l-61 -1q-39 -8 -54 -9q-20 -2 -66 67q-13 -1 5 157l3 21q9 44 59 124q21 20 71 98l50 60q14 8 50 49q7 2 46 59q19 11 68 68q50 18 53 30q44 49 137 120q40 8 103 69q1 10 113 64q37 44 104 50
q51 13 89 45q82 31 90 32q34 22 75 25q15 16 76 31q54 32 175 78q41 40 88 128q5 2 36 93q19 32 74 147q11 12 31 90q0 14 -10 13h-4q-34 -35 -86 -99q-47 -30 -77 -85q-156 -213 -173 -214q-31 -37 -57 -39q-34 -4 -28 89q20 93 60 169q17 12 51 110q14 25 35 77
q24 26 45 110q40 52 42 65q-1 17 -10 17q-25 8 -80 -20q-10 -1 -117 -62q-20 -1 -86 -31l-73 -30l-110 -58z" />
    <glyph glyph-name="z" unicode="z" horiz-adv-x="799" 
d="M718 792q28 -27 -17 -90q-60 -68 -120 -119q-11 -16 -130 -126q-31 -41 -68 -66q-34 -43 -85 -75q-125 -113 -136 -130l-3 -4l2 -1q14 -12 70 -10q38 -1 82 6q20 -17 231 -13q1 -2 24 -10q-5 -8 -1 -10q56 8 119 3l-80 -59l-129 -30q-5 -8 -50 -5l-3 4q-2 1 1 6
q-155 -19 -228 0q-14 12 -99 -25q-3 3 -32 -9q-24 13 -38 -7l-16 20q-35 -34 -74 -52l-10 8l-5 -8q-34 31 9 91q4 6 80 60q54 56 73 60l59 52q17 22 152 143l106 104v-7l4 -4q17 20 19 22q-1 19 3 24l22 33l22 26q-1 3 2 6q-6 6 -112 -58q-4 4 -71 -30q-15 14 -69 -23
q-45 -15 -86 -16q0 6 -4 10q-4 2 -10 -5l-2 -4l6 -4q-8 -10 -18 -5l3 5l-69 -19q-32 -2 -71 -22q-31 -18 -46 -6l-3 11q-17 7 -19 8q-21 19 11 64q-3 3 20 41q3 -4 9 5q7 19 28 55q25 36 50 14q22 -39 32 -47q9 13 48 -11q9 7 69 19q7 10 52 -2q53 19 92 36q5 -4 76 40
q59 19 127 63q62 21 116 68q11 4 15 1q0 -13 3 -16q25 10 47 4q16 19 20 16zM-7 509l-6 -8q-5 -7 -5 -23l1 -2l18 25q6 8 2 11l-2 1q-4 3 -8 -4zM524 129q-6 -7 -19 -19l1 -13l14 12l9 14z" />
    <glyph glyph-name="braceleft" unicode="{" horiz-adv-x="1156" 
d="M1383 2008q18 0 5 -38l-5 -9q-28 -51 -97 -109q-34 -29 -76 -39q-93 -57 -110 -57q-70 -29 -98 -51q-39 -30 -96 -60q-37 -25 -71 -57q-31 -30 -36 -39q-10 -18 13 -38q15 -24 20 -52l38 -38q18 0 18 -65q0 -21 -63 -139q1 0 -1 -3q-11 -17 -36 -57l-82 -102
q-22 -27 -47 -48q-15 -23 -32 -38q-18 -18 -30 -18q-4 0 -10 -4l-5 -11q-21 -28 -80 -79h-2q-12 0 -17 9q-4 0 -19 -27q-1 -2 -2 -11q-4 -7 -18 -19q-5 -8 -31 -24q-16 -14 -43 -29q-36 -31 -66 -45l-7 -10q-5 -10 23 -32q2 -12 -10 -33q2 -4 4 -4l16 6q14 -8 25 -53l8 -25
q6 -23 -10 -51q-8 -18 -9 -21q-33 -56 -95 -122q-83 -83 -113 -138l-16 -30q-11 -19 -27 -85q1 -23 -2 -62q3 -1 1 -62q-1 -36 12 -52q6 -30 30 -30q10 -9 18 -9q50 12 60 12l4 -2q10 3 29 3h14q11 0 72 20l4 -2q5 0 43 24q36 14 65 30q4 0 0 -13q-43 -66 -140 -129
q-36 -28 -87 -47q-61 -34 -90 -34q-12 -5 -52 -12q-14 3 -24 3q-4 0 -17 -2q-7 3 -14 3q-17 -3 -22 -3h-3q-5 0 -21 12q-12 0 -49 26q-5 4 -9 31q-12 5 -15 66q-10 20 0 59q4 9 14 72q10 48 29 82q9 16 14 25l18 34q54 87 63 98q3 4 78 85q45 50 48 57q18 33 -9 57
q-8 35 -21 35q-26 12 -28 28q-1 0 -1 2q-8 -2 -12 -2l-26 33q-17 19 -22 38q-3 15 -4 15h-2q-12 -5 -15 -5l-5 21q-7 4 -7 5l-3 -2h-13q-15 0 -1 39l5 11q29 52 106 114q35 23 46 24q3 0 14 -14l28 15q7 0 34 17l6 -2q12 3 34 14q8 3 14 3h4q21 12 22 12q13 -9 18 -9l29 15
q2 0 18 9q10 0 80 49q29 27 41 32l23 19q8 16 46 48q30 34 48 50q19 24 49 67q13 27 24 45l2 5q13 24 -1 46q-14 0 -3 20q-16 4 -18 13q4 8 -21 17q-16 10 -16 43q-30 42 -34 63q1 22 12 43l3 6q13 23 44 57q24 45 86 111q43 38 74 72q99 84 133 103q103 70 178 117
q15 9 50 24q28 18 55 18q13 7 69 41q56 30 86 30zM357 837q-3 -6 2 -6q1 0 3 3l3 6h-5q-2 0 -3 -3z" />
    <glyph glyph-name="bar" unicode="|" 
d="M815 2331q53 0 56 -107q2 -28 16 -97q-9 -45 -9 -144q-3 -51 -10 -109q1 -23 -5 -53q1 -17 -8 -54q6 0 -14 -88q-5 -58 -22 -130q-8 -75 -34 -170q-7 -51 -15 -81q-1 -17 -3 -24v-2q-18 -35 -22 -43q1 -51 -10 -81q-11 -28 -25 -94q-12 -30 -16 -87q-20 -51 -47 -172
l-24 -87q-18 -42 -20 -49q-12 -36 -16 -45q-5 -10 -5 -11q-10 -32 -15 -45q-12 -29 -16 -39q-12 -42 -13 -43q-9 -24 -11 -25q-23 -62 -43 -138l-21 -67q-9 -19 -42 -101q5 0 -102 -290l-3 -11h-1q-1 -2 1 -2l-5 -10l-40 -105q-9 -24 -29 -88l-16 -33l-4 -10q-9 -39 -26 -89
q-1 -21 -25 -109q-2 -14 -10 -37l-11 -20q-7 -30 0 -44q-3 -18 -19 -76l-3 -31q-7 -12 -15 -16h-1q-15 0 -1 60q-2 15 6 51q3 23 3 33q-1 3 1 8l4 8q6 17 10 58l9 23q9 22 20 98q11 30 9 44q-3 14 28 107q3 11 9 39q-1 21 2 30l2 3q13 51 34 123q15 54 21 84q16 64 52 189
q2 22 26 99q2 20 23 99q-2 14 28 97q26 96 49 168q-3 0 38 121q7 32 21 87q-1 25 47 199q20 103 30 128q9 23 30 140q3 29 25 117q8 49 15 93q8 35 8 53q10 41 12 72q12 51 11 130q7 32 7 82q2 25 4 78q6 36 -6 90l-5 89q-6 33 -31 33q-16 0 -15 39q0 4 5 20q22 59 108 136
q41 29 64 29zM630 1142q-8 -33 7 -33l8 2q2 5 2 19q8 25 -2 25q-11 0 -15 -13z" />
    <glyph glyph-name="braceright" unicode="}" horiz-adv-x="1251" 
d="M1220 1988h13q5 0 12 -1q4 1 6 1q18 0 38 -23q14 0 27 -49q5 -17 19 -35q-1 -102 -8 -116q-4 -18 -22 -61q-4 -21 -10 -33l-6 -11q-4 -7 -15 -25l-22 -44q-5 -10 -46 -80l-6 -11q-16 -30 -89 -122q-8 -17 -82 -96q-21 -30 -119 -137q-97 -95 -100 -97l-4 -6
q-12 -22 9 -22q7 -3 21 -16q13 2 22 2q6 -1 6 -3l13 4q10 0 14 -15q2 -8 14 -11q14 4 21 4l18 -4q1 0 9 1q3 0 18 -4q27 3 34 3h6l47 -8q28 0 25 -21q-1 -13 -7 -25l-5 -9q-28 -54 -108 -121q-42 -30 -65 -30q-17 -5 -45 -28q-12 -5 -34 -11q-42 -15 -54 -27
q-37 -16 -41 -25l-3 -4q-2 -8 1 -8l12 1q3 0 -1 -28q13 -15 7 -60l10 -25q1 -4 -12 -45q-4 -52 -13 -71q-27 -63 -33 -74q-27 -52 -67 -98q-68 -88 -75 -88q-5 -5 -9 -5v0q-3 0 -9 17q-6 0 -17 -20q-10 -27 -3 -27l-1 -8l-1 -1q-22 -34 -25 -36q-26 -30 -53 -51
q-19 -14 -21 -17q-21 -26 -57 -44q-11 -2 -18 -14l-3 -9q-8 -15 -40 -38l-34 -31q-10 -3 -11 -3q-9 3 -4 12l6 11q1 3 2 5q9 11 12 17q4 7 -6 16q-4 -3 -7 -7l-3 -6q0 -13 -1 -15l-2 -5q-17 -16 -25 -30q-3 -9 -3 -22l-2 -5q-28 -27 -71 -51q-8 0 -50 -37q-35 -17 -101 -67
q-41 -27 -57 -27q-20 0 -11 33q2 6 7 17l2 4q27 51 106 120q33 21 34 21q46 42 69 47q13 5 60 42q13 14 42 24q1 2 24 11q8 -10 1 -22l3 -2q2 0 17 13l7 3h2q8 -8 11 -8q0 -1 5 -1l9 9l2 2q-3 17 -2 18q4 19 -4 19h-3q-3 0 -14 -19q-6 -6 -8 -6l-3 2q-4 -3 -6 -3q-3 6 2 15
q10 20 36 27l3 3l5 11q8 13 36 35q12 0 43 40q2 3 25 29q38 47 70 84q11 19 17 30l7 14q29 55 16 109q0 4 5 34q0 12 -15 16q-8 15 -11 42q-1 0 -16 39q-8 8 -4 32q6 24 18 48q42 66 50 74q27 20 47 43q12 10 27 18q28 22 36 32q5 12 -1 12q-10 -1 -15 -1q-2 5 -4 14h-7
q-10 0 -20 12q-16 0 -31 29q-4 0 -7 44q1 20 15 48q32 59 112 145q139 130 167 163q42 44 88 105q69 86 84 113l6 12q10 18 23 46q6 10 11 20l30 79q8 36 11 89q11 47 11 68l-6 56l-17 28q-20 18 -64 18q-7 7 1 22q59 62 104 81q16 8 46 8zM210 1331h2q1 -6 -3 -14
q-3 -6 -11 -11q-6 4 0 15q7 10 12 10zM812 694q3 -9 -2 -30q7 -5 6 -8l-2 -3q-8 -10 -10 -10v0q-6 7 -21 11q-7 0 -32 -25h-3q-1 0 1 3l8 14q3 9 4 10q4 9 22 14q5 9 29 24zM537 226q-1 -5 -4 -9l-5 -8q1 -2 2 -2q4 0 21 19l3 8q2 6 -2 6q-11 -5 -15 -14zM336 -9q-3 -7 1 -7
l2 3l1 2q2 3 0 3zM83 -185q-3 -10 0 -10q2 0 8 2q2 -2 3 -2q17 3 21 10l2 5q8 26 3 26q-13 -3 -28 -22q-4 -3 -9 -9z" />
    <glyph glyph-name="asciitilde" unicode="~" horiz-adv-x="1003" 
d="M488 752q17 0 43 -38q7 -11 7 -35q6 -36 15 -47q10 -23 23 -28q20 -32 30 -32q9 0 22 -4q6 0 19 11h2q4 0 17 -3q3 0 24 21q26 11 37 11q0 2 6 2h10q5 0 13 14q12 9 16 9q2 0 10 -4q7 0 21 29q22 26 37 30q14 4 46 35q26 18 31 18q6 -3 6 -6l-1 -3q-2 -10 -18 -16
q-24 -21 -50 -49q-20 -14 -59 -52q-1 0 -30 -25q-4 0 -17 -12q-2 -1 -4 -1q-11 1 -9 12q2 4 2 8v1h-11q-3 0 -10 -18q-2 0 -4 -5q9 -6 7 -15q-12 -20 -25 -20q-16 -8 -18 -20q-2 -9 -33 -12q-16 -18 -28 -23q-27 0 -50 17q-4 1 -7 1h-7q-4 0 -9 -1q-9 0 -22 30q-18 5 -23 26
q-21 31 -20 35q1 35 -7 35q-15 33 -19 33l-3 1q-30 -6 -59 -16q-16 0 -38 -18q-11 -3 -41 -23q-51 -14 -70 -29q-35 -32 -50 -34q-5 0 -28 -27l-26 -16q-4 -5 -30 -16q-16 -16 -32 -39q-8 -10 -29 -20q-3 -2 -16 -20q-2 -8 -45 -19h-2q-16 0 -14 28q1 6 21 30q3 7 4 10l2 10
q2 10 20 21q25 29 43 40q39 41 50 41q3 0 34 29q33 20 42 33q16 20 20 20q2 0 5 1q4 -1 6 -1q12 0 33 22q31 9 50 23q22 5 55 22q1 5 46 12q13 4 36 16q20 8 27 9q10 -1 18 -1q6 2 8 2z" />
    <glyph glyph-name="exclamdown" unicode="&#xa1;" horiz-adv-x="672" 
d="M702 1737q12 0 26 -30q2 -7 0 -34q13 -28 5 -66q2 0 1 -10q-23 -52 -24 -57l-3 -14q-3 -16 -30 -27q-23 -20 -45 -20q-7 0 -29 -2h-1q-16 0 -29 36q-8 9 -9 49v1l6 24q-3 20 -2 22l1 5q2 11 32 24q6 0 16 18q-1 7 0 12l29 46q8 11 43 19q1 2 13 4zM685 1695q-1 -10 8 -10
q6 5 6 8q2 6 -4 10h-3q-4 -3 -7 -8zM696 1609l-1 -4q0 -4 6 -4l4 4v1q1 7 -2 8h-1q-2 0 -6 -5zM459 1238q18 -1 15 -19l-12 -35l-1 -5q-1 -4 -1 -11q-18 -32 -19 -35v-19q-2 -7 -25 -29q-3 -4 -4 -7l-4 -23q-3 -16 -33 -53q-3 -5 -5 -14l-9 -47q-2 -9 -18 -23
q-15 -20 -16 -29q-1 -1 0 -4l-17 -54q-1 -12 -3 -18q-1 -6 -18 -32l-21 -49q-15 -13 -16 -17q4 -17 7 -54q-2 -10 -38 -42q-6 -15 -10 -34l-4 -20l-12 -25l4 -21q-3 -11 -19 -15l-29 -9v-1q11 -11 9 -23q-1 -6 -17 -22q-5 -7 -6 -13q-1 -7 -4 -24t-26 -51q-16 -39 -38 -83
q-7 -13 -20 -49q-31 -43 -40 -89q-1 -14 -2 -18q-2 -10 -10 -28l-1 -6l-2 -11q-1 -4 -13 -29q0 -7 -1 -11l-1 -4q-1 -8 -26 -33l-5 -8q-1 -6 -2 -23q-8 -39 -56 -39q-53 6 -48 29v2q3 14 44 91q8 22 10 36q1 3 0 23q14 25 15 32l1 2q1 4 0 11q13 22 25 55q11 14 32 67
q22 26 24 40q3 15 20 40l1 1q1 18 2 22q16 31 31 65q10 11 12 19v1q1 6 3 28q0 3 25 24q5 4 8 11l-3 24q2 5 21 22q8 11 8 13q0 10 3 21q1 9 26 34q5 21 26 50q1 4 3 4l-1 3v3q1 2 16 5l1 2q-2 8 0 14q11 24 13 32q-1 14 -1 16l1 3q19 30 34 70q22 23 23 27q31 51 37 81
q25 28 28 43q9 44 50 83q30 51 31 55q3 18 5 18q0 1 -1 1q2 9 26 40l2 5q1 2 0 23q4 9 16 17zM206 706l-3 -3l-1 -7q3 -8 10 -8h1q2 0 5 4l1 3q-8 11 -13 11z" />
    <glyph glyph-name="cent" unicode="&#xa2;" horiz-adv-x="605" 
d="M435 990q10 0 6 -29q2 -12 0 -17q0 -1 -8 -14l-2 -5q-2 -15 -2 -16q-12 -17 -13 -21q-1 -2 3 -23l-4 -10q-4 -12 -21 -34q-9 -27 -11 -41q-1 -2 -8 -14q-1 -3 -1 -23l-2 -3q-5 -15 -33 -35q-12 -14 -17 -28q-2 -5 -6 -19l-14 -22q-1 -1 0 -1q-4 -12 -23 -31q-2 -2 -3 -4
q1 -14 10 -14q5 0 28 6q4 0 9 -1q13 1 21 1q7 0 12 -2l33 8q17 -3 37 -6q5 -6 5 -12l-9 -19q-1 -4 -2 -7q-5 -13 -44 -26q-1 0 -3 1q-9 0 -39 -10h-7q-17 5 -24 5q-4 0 -30 -14h-3q-2 0 -17 2q-19 0 -31 -25q-19 -24 -30 -51q-1 -3 -25 -23q-4 -9 -9 -17q-2 -4 -5 -19
q-8 -10 -20 -36q-14 -14 -24 -43q-27 -21 -32 -36q-11 -13 -14 -18q-1 -6 -3 -10l-3 -7q-27 -48 -33 -48h-3q-7 1 -5 6q14 22 18 31q4 10 0 29q0 6 2 8q8 13 12 23l4 12l1 4q2 7 5 16q17 27 23 40q1 8 2 14l4 8q2 6 33 30l-2 17q-4 12 -12 12l-1 2q1 2 15 17q6 17 19 25
q7 3 11 11q3 5 4 9q6 20 -6 20h-2q-16 -4 -20 -4h-2q-6 0 -22 5h-2q-3 0 -15 -4h-2q-9 0 -28 23q-1 0 -7 4l-8 -2q-10 5 -23 30l1 5q0 2 1 2q3 7 9 27q3 5 4 5l1 4v3q12 18 23 25q46 27 88 65q23 22 54 31q3 0 32 19q10 4 40 13q9 7 28 13q13 5 20 21q1 0 9 18q1 21 3 24
q2 6 6 11q0 12 2 19l2 4q16 13 26 37q2 6 2 17l9 16q1 7 5 15q21 31 44 31h9zM311 854q1 0 1 -3q-2 -3 -4 -3h-2v3q2 2 5 3zM114 601l-2 -4q1 -9 20 -9q20 -6 26 -6q26 0 39 11q14 15 14 17l2 3q0 2 -1 4q2 1 27 40q11 29 18 35l1 1q0 2 -2 2h-2q-16 -14 -29 -14
q-14 -5 -43 -30q-1 0 -7 -6q-23 -11 -29 -16q-28 -18 -32 -28zM201 323q1 0 1 -3l-3 -2q-2 0 -2 2l1 1q1 2 3 2z" />
    <glyph glyph-name="sterling" unicode="&#xa3;" 
d="M803 1296q19 -8 26 -8l12 6h14q6 -6 13 -6h2l15 8h6q11 0 35 -16q15 -21 28 -27q-1 -5 13 -25l9 -33q-10 -19 -11 -21q-2 -8 8 -30q-1 -2 -7 -17v-6l-5 -10q0 -16 -1 -19q-3 -11 -65 -49q-2 0 -6 -2q-33 14 -37 14q-20 -4 -22 -4q-12 5 -12 14q0 2 7 17q3 11 -5 27l1 4
q14 9 15 12q1 5 -17 14q-1 21 -20 21q-13 0 -34 4q-33 -5 -33 -8q-11 -12 -39 -19q-27 -14 -39 -53q-19 -4 -29 -37q-8 -26 -30 -43l-5 -13l-2 -6q-3 -8 5 -21l-3 -10q-17 -16 -20 -29q0 -12 -5 -43q-9 -10 -11 -14q0 -3 1 -7l-5 -8q-20 -95 -4 -95l44 11l15 -2q19 0 66 31
h4q14 -11 20 -11h6q22 19 31 19q3 -2 5 -2q28 4 53 12h3q5 0 17 -4q17 8 23 8q52 -20 46 -37q-2 -6 -5 -45q-2 -7 -35 -23q-7 -7 -16 -10q-15 4 -18 4q-17 -6 -20 -6q-17 10 -22 10h-4q-12 -10 -50 -16q-4 2 -6 2q-7 0 -54 -15q-4 0 -34 -12q-14 0 -25 -2l-1 -2l3 -6l-1 -2
q-1 -3 -8 -7h-2q-5 0 -3 5l1 4l9 8h-10q-15 0 -40 -23l-8 9h-4q-11 0 -17 -9q-2 -7 4 -20l-1 -4q-17 -23 -18 -25q-2 -7 2 -19l-1 -6q-2 -4 -18 -25q0 -14 -3 -24l-1 -2q-15 -23 -15 -25l-6 -19q-19 -47 -30 -47q-19 -16 -22 -25q1 -15 0 -18q-26 -35 -35 -35q-15 0 -20 -6
q-2 -8 7 -17l-1 -4q-13 -9 -19 -16l-2 -11v-4q-3 -9 -35 -33l-2 -6l21 2q9 -8 16 -8h9q7 0 18 2q16 -17 37 -17q11 4 17 4q14 -7 38 -10q7 -25 9 -25h17q13 0 14 -22l4 -2q7 0 16 6h2q3 -4 35 -21q-4 -12 0 -12h4l17 8l9 -2h2q15 0 37 19h6q21 -6 23 -6q39 20 44 20l10 2
q6 -4 12 -4q38 27 43 27q6 0 8 -27l7 -2q10 2 13 12q0 3 -10 19l2 2q1 5 34 10q8 8 22 8h2q35 -5 24 -45q-2 -9 6 -27q1 -4 1 -6q-23 -17 -26 -29q-1 -3 -21 -14h-4q-6 14 -18 14q-15 -2 -17 -8l-2 -6q6 0 9 -8q-4 -11 -55 -44q-1 -3 -26 -6q-4 2 -6 2q-18 -8 -65 -12
q-4 2 -6 2l-15 -2q-30 4 -36 4q-12 -6 -18 -6h-17q-2 0 -22 10q-4 0 -8 -2l-12 2h-2q-5 0 -9 -2q-6 0 -29 27h-4q-2 -4 -6 -4h-6q-8 6 -39 14q2 4 -29 6q-24 27 -28 27q-5 0 -33 -2q-22 6 -28 6q-17 -4 -18 -4q-10 2 -20 2q0 -3 -19 -14h-16l-23 -6l-10 6q-39 -26 -58 -29
h-2q-4 0 -8 2l-41 -21q-18 -26 -55 -26q-14 -8 -29 -29l-39 -19q-12 -12 -24 -12h-2q-18 0 -47 37l10 33q8 27 64 56q10 0 40 31q17 0 37 18q55 14 59 29q1 0 10 2h16q15 41 31 41t41 37q33 22 54 54l2 14q25 20 26 25q5 14 32 51q3 10 22 19q14 -2 23 -2l2 8l-13 14
q9 8 11 13q-12 3 -11 6l2 4l13 10l-5 11l31 22l3 11q3 8 4 26q2 8 21 23q2 6 -6 33l6 23l-9 2q-2 0 -7 -2q-12 2 -11 4q-20 -10 -43 -13q-1 -2 -13 -8l-14 2q-2 0 -23 -4h-17q-11 0 -28 2q-38 -8 -58 -16q-18 2 -23 2q-13 -6 -18 -6l-12 8h-4l-23 -6h-14q-11 0 -25 12
l-11 -2q-8 3 -10 10q2 4 27 13q0 2 2 2h2q15 -4 17 -4q10 0 31 10q25 -12 58 -12q14 0 47 33q19 0 36 10q10 -2 18 -2q35 16 62 22q16 17 27 19l17 -2q10 0 25 27q12 0 27 28q-11 5 -10 9l1 2q2 4 13 8q6 21 1 47q21 26 21 29q-9 26 -7 31q25 27 28 37q-5 18 -4 23l3 8
q3 8 12 27q-2 15 1 25q11 12 24 24v15q3 7 26 37l-1 4q24 32 33 53q32 33 37 48q26 20 35 20l7 -2q6 18 26 25q51 47 74 47q7 0 20 13q11 -2 16 -2q6 7 16 10zM386 734l2 -4l-5 -2l-1 4zM247 688h2q3 0 5 -6q-2 -4 -6 -4h-4q-4 0 -3 4l1 2q2 4 5 4zM219 594l1 -4l-5 -2l-1 4
zM572 577h2q4 0 3 -4t-5 -4h-2q-5 0 -3 4t5 4zM349 569l2 -4l-6 -2v4zM163 501h4q4 -1 2 -4q-1 -3 -7 -6h-2q-5 0 -3 4v2q2 4 6 4zM347 470l-3 -6h3q4 0 5 4l1 2h-6zM251 268q-1 -20 14 -20h5q4 0 9 10q4 13 -13 21q-9 -2 -15 -11zM184 180l-3 -8h10l3 8h-10zM144 174l-1 -7
h8q4 0 5 5v2q2 4 -2 4h-4q-5 -1 -6 -4zM56 145l-3 -6h6l3 6h-6zM475 104l-1 -7q-2 -6 15 -10q4 0 6 4l1 6q1 7 -15 7h-6zM561 93q0 -2 -4 -6q0 -8 4 -8h4q1 0 8 6q-1 8 -4 8h-8zM647 79l-2 -6q3 0 6 -2q9 3 10 6l2 6q-2 0 -5 2q-10 -3 -11 -6zM-7 73q1 -10 5 -11h4q4 0 5 4
l3 9q1 3 -4 6h-4q-4 0 -9 -8z" />
    <glyph glyph-name="currency" unicode="&#xa4;" 
 />
    <glyph glyph-name="yen" unicode="&#xa5;" horiz-adv-x="1047" 
d="M1000 1204q58 0 48 -23q22 -5 19 -13l-1 -2q-41 -77 -56 -77h-23q-40 -26 -43 -33q-11 -27 -53 -52q-2 -3 -35 -24q-15 -20 -17 -20l-3 -12l-1 -2q-4 -10 -27 -22q-18 -28 -64 -56q-3 -7 -30 -29q-3 -6 -32 -27q-2 -7 -46 -45q-4 -11 -43 -29q-6 -14 -33 -36
q-3 -7 -53 -36l-4 -5q-2 -5 9 -15q38 0 56 15q5 3 10 3h18q31 -12 41 -29q3 -3 8 -3h4q9 0 29 14h4q9 -16 12 -16l20 2q6 -4 12 -4t20 4q19 -7 13 -22l-34 -27q-6 0 -3 9q-11 -7 -16 -7l-20 3l-11 -3l-10 5q-2 0 -41 -18q-10 9 -16 9q-55 -36 -87 -36q-12 7 -18 7h-2
q-16 -9 -22 -9q-20 9 -29 9q-17 0 -29 -25l-17 -20q0 -4 -2 -9q0 -1 -5 -9q4 -10 -17 -76q5 -5 11 -5l26 7h5q9 -13 34 -18q14 2 22 2q2 -4 44 -6l14 6h5q14 -4 16 -4l25 7q14 -9 18 -9h20q8 0 24 9q7 0 16 -7q19 2 32 2h13l-2 -4q-2 -5 -49 -21q-9 9 -16 9q-13 0 -58 -22
q-13 9 -17 9q-40 -16 -58 -27q-22 -4 -31 -4h-18q-5 0 -10 -3q-31 12 -36 12q-30 -14 -37 -14l-5 7q-15 0 -29 -18q-4 -16 -5 -18t-5 -7l-4 -13q-3 -9 -19 -20l-9 -21l-2 -13q-9 -9 -15 -25q7 -6 4 -15q-52 -90 -69 -90q-29 -20 -31 -20h-6q-10 0 -15 13h-3l-16 -2
q-17 5 -20 18l6 11q16 14 17 16l6 34q15 15 18 22l2 22l10 23q0 2 12 18q1 4 0 11q1 3 27 22l3 7q-9 34 -20 34h-9q-9 -5 -15 -5q-12 9 -16 9q-7 0 -20 -4l-8 2l-24 -2q4 6 -14 9q-9 0 -46 -14q-3 0 -17 18q-30 0 -21 40q-5 3 -1 14q20 38 40 38q13 0 33 13h5l13 -2q4 2 9 2
q20 -11 29 -11q22 11 29 11h9l7 -6q4 0 15 4l10 -7q17 3 26 3q13 -5 19 -5q18 0 32 36q-9 9 -4 22l6 14q1 2 15 25q-7 4 -14 4q-6 0 -33 -13q-27 0 -30 13h-6q-4 0 -29 -9q-15 5 -20 5q-4 0 -34 -12q-9 9 -16 9h-32q-4 0 -17 7q-15 -7 -34 -11q-26 0 -25 47l4 9q7 17 54 56
q13 0 29 9h2q6 0 34 -9q6 0 17 7h14l14 2l18 -9q2 0 15 2q12 -2 11 -4q39 15 43 15q16 -4 20 -4h2q4 0 10 7q8 53 -16 53q-3 6 4 32q-12 6 -15 42q-18 22 -12 43q-14 7 -18 20l-10 -4l-1 4q6 0 10 9q0 60 -19 60q-4 27 -10 30q-18 0 -5 31q-28 0 -31 54q-23 9 -14 31
q4 9 -17 18q5 16 -17 61q-1 18 1 22l5 2q24 -7 37 -38q21 0 21 -27q14 0 21 -36q36 0 27 -20q4 -10 21 -20q-8 -19 22 -38q7 -12 12 -45q29 -6 18 -31q29 -13 26 -34q18 0 25 -22q16 2 25 2q4 0 8 -43q21 -16 12 -40q-2 -4 13 -27l14 2q6 -4 12 -4q18 0 32 34q9 4 12 4l9 20
q3 5 6 5h3l4 -5h7q3 0 30 27q9 0 61 49q18 6 21 14q1 2 5 18q53 39 55 45q22 24 51 35q40 68 67 68q10 8 22 20l2 11q4 10 42 36q12 1 44 27q6 0 24 24q43 32 50 32zM718 791q4 0 5 -9q0 -3 -9 -6h-4q-3 0 -4 6q1 4 12 9zM313 771l-4 -9q-6 -16 7 -18q13 5 18 18q6 13 -3 18
h-5q-3 0 -13 -9zM723 733h11q4 -1 4 -4l-2 -3q-35 -20 -40 -20q-7 4 -6 7l1 2q28 14 32 18zM212 679h12q3 0 5 -9q-2 -3 -10 -6h-11q-3 0 -4 6l2 5q3 4 6 4zM639 666q4 -1 2 -5l-4 -2h-5l1 2q2 5 6 5zM478 511q18 -3 11 -20q-2 -4 -6 -4h-7q-12 8 -7 20zM99 419l-4 -6
q-1 -5 3 -5h4q2 0 11 7q0 9 -3 9h-5q-5 -1 -6 -5zM453 361q-1 -7 5 -9q9 5 13 5l2 6q2 3 -5 9q-12 -3 -15 -11zM227 180l-5 -11h9l5 11h-9z" />
    <glyph glyph-name="brokenbar" unicode="&#xa6;" horiz-adv-x="669" 
d="M668 1543h3l-3 -7h-3zM714 1500q34 -4 21 -38q-5 -11 -13 -44l-22 -26q-38 -92 -45 -134q-14 -21 -18 -30q-8 -44 -35 -124q7 -14 1 -31q-16 -22 -18 -30l-17 -38q-1 -38 -3 -42q-11 -6 -16 -5l-14 -34q-28 -33 -52 -84q-3 -21 -6 -27q-31 -71 -40 -71q-29 3 -31 21
q-4 0 -25 -19q-20 2 -50 -2q-24 17 9 98q2 48 10 69q5 12 22 65q23 28 26 37l12 27q11 27 27 71q12 17 16 27q9 28 9 34l11 21l6 13q6 33 9 42l23 54q3 8 8 13q0 6 4 14v4q15 33 32 81q23 29 29 43l3 7l6 21q18 23 31 22l31 -7q10 -1 59 2zM505 1480h6q4 0 4 -11l-2 -3
q-2 -6 -16 -13q-9 6 -7 11l3 7q2 5 12 9zM625 1300q-1 -16 4 -18l5 6q6 21 0 22q-5 0 -9 -10zM615 1251l-2 -6l3 -1l2 7h-3zM544 1233l-1 -3q-2 -7 3 -7l2 -1q6 0 8 7l2 3q3 7 -3 7l-3 1q-5 -1 -8 -7zM438 940l-2 -4q-1 -6 3 -7l6 7l1 3zM418 906l-2 -6q-2 -7 3 -8h8
q1 3 7 10l-6 7q-7 -3 -10 -3zM336 889h6l-3 -7l-5 1zM221 403q18 -8 32 -10q29 1 33 1l1 -7l-21 -48q-6 -14 -8 -45q-23 -35 -31 -54q-25 -81 -29 -89l-11 -20q-5 -14 -8 -27q-16 -32 -28 -61l-25 -61q-10 -21 18 -30l-2 -3q-2 -6 -34 -22q-4 -10 -30 -64q-2 -4 5 -29l-2 -3
l-26 -23q-11 -34 -18 -51q-7 -3 -41 -77l-56 -55l-23 6h-39q-33 3 -10 89l14 34q11 27 25 65q11 13 20 37q19 44 40 109q6 12 16 30q20 56 43 109l11 27q13 31 16 59q30 62 47 105l14 34q30 71 54 69z" />
    <glyph glyph-name="section" unicode="&#xa7;" horiz-adv-x="809" 
d="M753 1459h17q26 0 61 -8q16 0 52 -17q-2 -11 23 -26q-2 -16 5 -63q-3 -18 -6 -27q-9 -13 -11 -18l-7 -22q-39 -57 -40 -59q-38 -18 -83 -18q-15 0 -12 30q-7 3 -8 10l6 16q0 2 2 2q16 43 -11 61q-9 -4 -17 -4q-11 4 -16 4h-1q-33 0 -61 -42q-11 -23 -36 -55
q-11 -17 -17 -31l-11 -30q-1 -4 3 -29q-2 -4 0 -44q-6 -15 5 -25q6 -39 4 -46l12 8q6 -3 5 -6l-1 -4q-3 -6 -12 -6q-2 -7 16 -11q-2 -34 8 -34q3 -24 1 -49q15 0 -1 -83q6 -28 -4 -55l-4 -12q-4 -51 -6 -57q-4 -12 -10 -23q-7 -25 -16 -48l-5 -15q-4 -37 -9 -50
q-14 -14 -16 -21l-8 -20q-7 -21 -58 -75q-10 -28 -51 -61l-8 -21q-40 -22 -49 -40q-3 -8 13 -25q-6 -16 14 -44q-11 -27 11 -53h7q11 26 17 26q14 0 9 -16l-3 -8q-12 -12 -19 -12l-4 -12q4 -15 0 -25q-7 -6 -7 -10l2 -2q2 2 3 2q-1 -15 1 -41q-4 -11 -7 -30l-13 -39l-11 -36
q-13 -38 -42 -78q-5 -15 -36 -36q-14 -37 -31 -37q-14 -10 -46 -28q-21 -27 -56 -27q-25 -14 -44 -22l-8 2l-61 2q-15 -6 -20 -6q-2 0 -20 14h-9q-4 0 -7 -2q-35 14 -41 31h-3l-12 -2q-9 2 -14 34q-23 37 -20 88q-6 0 5 48q-2 0 -2 2q31 59 46 59q3 0 33 23l14 4q8 0 28 -35
q10 -29 17 -38q1 -4 -1 -9l-7 -20q-20 -52 5 -71q2 0 19 2q15 -20 18 -20q19 2 30 2h12q17 -4 20 -4q50 11 77 34q5 9 39 37q4 0 26 57q2 8 4 14q14 18 16 26l1 2q0 86 9 112q0 6 -20 8q-3 34 -15 61q8 23 -10 33q1 3 -24 32q3 11 -17 39q6 51 -11 51q-8 0 -24 36
q2 24 -12 37q4 11 -12 32q-7 61 2 88q2 30 6 40q4 12 4 37l4 10q4 11 24 43l2 4q3 9 3 28l7 15l4 12q2 4 2 8q20 21 29 47q36 30 49 63q7 2 54 46q8 4 13 4h2q4 -16 12 -16h2q11 0 15 12q4 10 -17 13l1 4q5 11 33 30q1 3 7 8l3 8l5 41q-7 6 -3 45q7 14 9 22l3 8q13 51 15 57
l7 14q5 18 8 27q8 7 28 53q41 41 44 52q7 18 51 53q25 21 51 55q28 18 67 18q14 13 22 13zM852 1357l-2 -2q-3 -11 3 -14h4q3 0 8 6l1 4q4 12 -7 12q-2 0 -7 -6zM606 1184l1 -4l-4 -2l-1 4zM645 1154q2 0 3 -6q-1 -4 -5 -4h-2q-4 0 -2 4v2q3 4 6 4zM378 1117h4l-2 -6h-4z
M687 1115h6l-1 -4q-2 -4 -5 -4h-4q-4 0 -2 4zM681 1046h2q3 -1 2 -4l-7 -4q-4 0 -2 4t5 4zM397 1020h2q4 -1 3 -4q-5 -6 -14 -6q-2 0 -2 6q6 4 11 4zM334 776q0 -2 -9 -31q0 -3 -7 -12l-22 -71q-7 -9 -15 -26q-9 -58 -5 -70q0 -11 24 -52q-1 -4 22 -53q-8 -25 9 -25
q39 7 49 35q23 13 28 26q30 61 52 86q2 4 15 24q2 7 11 35q7 18 9 22l17 102q-2 12 4 55q-23 57 -26 85q-5 4 -10 4h-4q-50 -18 -78 -55q-2 -6 -37 -30q-6 -6 -27 -49zM755 894h6l-1 -2q-1 -4 -5 -4v4v2zM632 623v-4l-4 -2v4zM427 601h4q7 -5 2 -18q-6 -9 -13 -12h-2
q-2 0 -5 10l4 12q1 3 10 8zM386 544h2q2 0 3 -6v-2q-2 -4 -5 -4h-4q-3 0 -3 6q1 3 7 6zM623 432h6q2 0 3 -6l-3 -6h-5l-10 -2v4l2 4q0 3 7 6zM569 347h3q3 0 4 -8l-1 -4q-1 -4 -5 -4h-3q-3 0 -5 8l1 4q3 4 6 4zM465 341v-4q-2 -5 -20 -8v4q13 8 20 8zM398 219l-2 -4h6
q3 0 5 4q-4 0 -2 2q-5 -2 -7 -2zM340 215l-1 -4q-1 -4 2 -4q4 0 5 4l1 4h-7zM569 193h8q3 -1 2 -5l-2 -4q-6 -8 -13 -8q-7 3 -6 6l1 2q1 4 10 9zM383 152q-1 -4 2 -4l4 4v2q-4 -2 -6 -2zM358 48q-1 -3 4 -8h2l1 2q1 3 -3 6h-4zM258 -66l-1 -4h3l2 4h-4zM257 -141l-2 -4h4
l2 4h-4zM-44 -151l-2 -8h9l2 8q-4 0 -2 2q-5 -2 -7 -2z" />
    <glyph glyph-name="dieresis" unicode="&#xa8;" horiz-adv-x="436" 
d="M214 865q18 -3 13 -18q-2 -6 -30 -24q-3 -12 1 -17l-4 -8l-1 -3l-1 -9q-12 -24 -28 -38q-29 -17 -65 -11q47 -20 -35 -65q-29 12 -16 61q-2 0 -1 4q6 6 6 8q2 12 3 19q9 22 31 41q5 18 47 37q46 19 63 19q2 -1 6 -1zM383 819q-2 -11 1 -16l-5 -8v-3v-9q-55 -4 3 -22
q-39 -43 -92 -80q-11 0 -41 -13q-28 13 -15 62q-2 0 -1 4q5 6 7 8q1 12 2 18q10 23 31 41q4 19 47 38q47 19 63 19q2 -1 7 -1z" />
    <glyph glyph-name="copyright" unicode="&#xa9;" horiz-adv-x="966" 
d="M477 998q6 -1 9 -1h18l16 -2q6 -3 17 -11q2 0 23 -10q17 -6 29 -6q23 -7 23 -11l21 -13q31 -13 34 -13q19 -11 47 -23q1 -1 13 -7q30 -27 39 -36q0 -1 7 -8l14 -17q11 -15 24 -44q0 -2 7 -17q5 -13 7 -25q9 -23 11 -37q3 -6 5 -20q3 -7 2 -29q-1 -2 3 -16q1 -5 1 -13v0
v-3v-1q-3 -32 -3 -49v0q1 -6 1 -7v0q1 -2 0 -3h-1q1 -3 1 -4l-1 -1v-2t-1 -2v-3l-1 -1q1 -1 0 -2h-1v-7h-1v-3v-2v-2l-4 -10v-1l-20 -54q-7 -13 -8 -16h1q-2 -8 -10 -24q-2 -8 -11 -17q-25 -36 -43 -54q-12 -23 -26 -38q-2 -2 -2 -3t1 -2q-2 -6 -13 -11q-12 -9 -15 -15
q-40 -31 -65 -46q-20 -10 -60 -34q-29 -14 -39 -17q-23 -14 -29 -14q-16 -5 -38 -16q-40 -11 -57 -20q-10 -5 -47 -18q-29 -9 -52 -14h-1v1q0 -1 -1 -1h-1q-6 -2 -27 -5l-2 1l-27 -4v1q-4 -2 -26 -2v0h-2q-6 0 -25 -1q-4 1 -7 1h-9q-13 0 -51 13q-12 4 -24 12q-8 2 -20 12
q-4 1 -22 19l-25 28q-5 2 -15 16q0 1 -17 23q0 1 -9 14q-5 8 -8 34q-2 4 -4 22q-3 5 -4 37q-4 10 -2 48q-1 0 -2 13l1 1q1 1 0 2l1 3q1 1 0 1l1 2q1 3 1 17h1v2l2 5l-1 3l2 1q-1 1 -1 2v1h1q0 1 1 2v4l1 1q2 8 2 9q1 1 1 3v1t1 2v2v2l3 5q2 7 -1 13l1 4v2t1 2v0q-1 7 0 14
l3 8v1v1l1 2v0v1l1 4v2t1 2v1q5 16 13 29v1l-1 1q7 15 12 30q12 23 12 25v1l22 44q16 23 18 29l7 9q0 1 18 24q18 21 31 33q17 17 43 42l24 24q7 7 13 17q3 4 12 8q13 12 39 34q5 7 59 49q20 13 33 20q2 0 53 24q12 5 31 10q37 11 42 11zM165 687q-1 0 -6 1q-4 -1 -5 -3v-2
v0q1 -3 7 -9v-4l-7 -18v-1l-1 -2v-1q-2 -8 -14 -33q0 -2 -12 -32v-1q-6 -16 -8 -25v-2l-1 -1v-4h-1l1 -3l-1 -1l-1 -7v0v-1v-1l-1 -1v-1q-6 -24 -6 -35v-3l-1 -3q-3 -8 -1 -21l-1 -1v-2l-1 -2v-3v0q-1 -15 2 -41v-11v0q-1 -13 1 -25v0q1 -30 8 -52q3 -4 8 -19q9 -14 14 -31
q13 -24 21 -28q20 -17 34 -22q3 -3 21 -9q0 -2 30 -14q21 -5 50 -6q-1 -1 1 -1q19 1 21 2q7 -1 19 -1q6 0 33 10q4 0 33 11q10 0 82 24q14 5 42 17q35 15 54 24q10 2 26 14q23 12 46 25q8 4 18 14q21 13 27 22q3 0 16 38q2 2 18 43l-1 2l2 4v1q1 3 2 3l-1 1q2 3 4 7
q-1 1 -1 2t1 2v1q2 6 3 6l-1 1v2q1 1 2 1q-1 1 0 7h1q2 17 2 37h1q2 11 1 15h1q-1 6 -1 7h1q-2 3 -1 4h1q-1 7 -1 8h1v7v0q-1 2 -1 3h1l-1 23q2 7 0 32v0q1 4 -4 13l-1 3h1v1q0 2 4 6v2q1 3 -5 24q-1 11 -6 45q0 12 -13 38q-5 10 -12 13v4q1 1 1 2q-1 9 -9 22l-16 19
q-13 10 -24 16q0 1 -9 5q-4 5 -17 9q-13 9 -29 9q-11 6 -30 11q-20 7 -36 21q-16 6 -25 13q-12 6 -28 15q-18 5 -40 5h-9v0q-13 -2 -33 -8l-42 -17q-24 -11 -37 -21q-62 -50 -65 -57q-4 -2 -4 -6q-19 -16 -28 -29q-13 -16 -26 -34q-1 -5 -13 -22q-3 -2 -11 -18
q-7 -22 -14 -22zM462 743h2q1 -1 24 -5q10 -4 14 -13q16 -22 18 -30q10 -15 8 -24q1 0 1 -3h-1q2 -17 3 -39q-1 -3 0 -5v-1l-1 -2l-1 -6q-4 -16 -13 -31q-16 -20 -40 -28h-5h-1q-10 2 -6 16q0 8 -11 27q1 8 -9 24q0 2 -12 21q-4 14 -14 18h-1q-6 0 -13 -9q-17 -16 -34 -40
q-2 -6 -17 -19q-2 -3 -3 -3v-2q-1 -5 -16 -16q-10 -11 -24 -27q-12 -11 -15 -20q-16 -21 -19 -31q-8 -15 -9 -23q-1 -4 -1 -7v0q0 -15 6 -18l11 -10q2 0 18 -8h6q1 0 10 1l32 -2l1 1q23 -1 23 -2q30 4 40 8q20 8 36 17q10 0 11 8q1 4 23 20q21 15 32 15h1q2 -1 2 -4v-3
q-13 -17 -30 -36q-21 -22 -29 -28q-14 -12 -34 -20q-17 -10 -42 -19q-15 -5 -36 -8q-8 1 -12 1q-2 0 -17 -1q-11 1 -33 2q-4 -1 -12 -1q-30 4 -31 4q-28 14 -30 24q-8 10 -7 26v5q1 1 1 2v1q1 5 2 5l-1 1q4 13 20 43q1 0 8 13q12 10 13 18q4 5 21 28q1 0 7 8q4 0 17 19
q14 13 38 46q4 4 20 25q3 1 9 9q5 2 15 17q11 10 14 16q11 10 27 29q28 26 46 26zM90 643l1 -1l-5 -10v-1q-2 -6 -12 -25q-4 -8 -9 -20l1 -1q0 -1 -1 -1l-1 -4v-1l-8 -19v-1v-1l-1 -3v-1v-1l-1 -4v-2l-1 -1v-3v0l-2 -7v0v-8h-1v-3v0v-3l-1 -5h-1v-1v-1q0 -1 -1 -2q1 -1 0 -2
q0 -1 -1 -1q1 -2 1 -3h-1q1 -7 0 -13q-4 -8 -4 -11v-2h-1q-1 -6 0 -8l-1 -1q-1 -1 0 -1l-1 -4l-2 -9q0 -1 -1 -2q0 -1 -1 -1q-2 -26 -1 -30h-1q3 -13 2 -15v0v-7h-1v-4h-1q1 -14 4 -33v-1q1 0 2 -10q3 -14 4 -14t2 -1l2 2q0 2 -1 21h1q0 22 -3 46v0q-1 2 1 3v0q-1 2 -1 4h1
v3v0q-1 16 0 19v0v7l1 1q1 5 0 15v0v2q2 7 3 11v5h1q-1 2 0 7l1 1v2l2 6v1l1 1q1 6 0 7q1 1 1 2l1 2v1v7h1q0 5 1 7l2 4v0q2 6 2 8l1 2q0 2 -1 4q3 7 7 16v2l10 24q-1 1 -1 2q10 26 12 27q-1 1 -1 2l2 3v2t1 4v2q12 19 13 22v3v1q2 5 3 6v2q1 0 6 14q5 12 12 23q1 2 12 19
q0 2 -1 2h-3q-4 -1 -15 -21q-3 -4 -16 -25q0 -3 -13 -28zM252 428q1 -1 4 -1l1 1l-2 2q-3 -1 -3 -2zM364 121q3 0 5 -4l-1 -2q0 -2 -5 -3q-2 1 -3 3l1 2q0 1 3 4z" />
    <glyph glyph-name="ordfeminine" unicode="&#xaa;" horiz-adv-x="596" 
d="M330 1261q18 -12 19 -61q-4 -57 -20 -94h5q13 12 51 31q1 3 24 18q21 -16 1 -62q-21 -70 -4 -72q3 0 8 2l24 -13q61 15 261 69l-141 -84q-7 -16 -63 -30q2 4 35 20l1 4q-26 3 -30 3l-3 1l-12 -26q-11 -16 -25 -15l-18 3q-17 -15 -34 -13h-1q-13 1 -10 8q-9 -5 -17 -4
l-10 1q-30 3 -9 109q4 17 7 23q-9 1 -61 -52q-6 0 -47 -35q-31 -4 -109 -65q-22 -3 -24 -7q-51 15 -44 29q3 8 4 14q22 30 26 41l2 3q-7 29 4 54q8 4 41 60l94 84q8 13 75 56zM133 1014q-8 -21 35 -27q80 56 83 55l3 7q4 8 40 73q13 50 21 70l3 8h-2l-63 -50q-3 -8 -80 -79
q-4 -13 -40 -57zM120 1023q-1 -6 2 -6l7 9l3 6h-2q-2 1 -10 -9zM94 1010l8 -1l-3 -7l-11 -12q-1 -12 -5 -20l-8 -6q-4 1 12 40zM-62 870l1 1h1q1 -1 0 -2l-1 -1l-1 1q-1 0 0 1zM-54 860h1q4 -5 1 -8h-4v0q-1 5 2 8zM-7 875h2q-2 -4 -3 -5h-2q-2 1 3 5zM98 919l1 1q6 3 8 2v0
q1 -1 -1 -2v-1q-1 0 -6 -1zM14 839q13 11 39 9l2 2l3 2q14 12 31 6l-1 -2q2 0 11 4q14 3 25 -3q1 -1 8 -6q29 17 41 9q22 18 38 9l1 1l1 1q2 1 3 1v-3q12 10 37 6l1 -1l3 3l1 1l12 4q8 1 17 -1l3 -2h1q7 2 24 -1l1 1l4 -5q18 0 23 4q13 -2 37 -8q21 8 29 4q1 -1 -1 -11l2 -1
q32 -3 38 2q13 3 17 0q8 -7 9 -8q22 -8 38 -6q10 2 16 -1l9 -8q2 -1 15 -4l1 -1q2 -1 10 -10q4 -2 12 4q25 9 38 2q2 -2 7 -9l11 -4v-1q-9 -7 -21 -6l-2 2q-6 1 -24 0l-2 1q-3 2 -10 7l-7 1q-14 -9 -20 -4q-11 -9 -30 -6l-1 -1v1q0 4 -2 6l-4 2q-5 0 -8 -3q-5 -4 -1 -12h-1
q-9 -3 -19 2q0 2 -2 2l-1 1h-1q3 2 -4 9q-20 -13 -29 -8l-2 1q-5 3 -3 4q-8 -1 -27 -8q-11 -2 -17 2q-20 -13 -32 -6h-1q-2 1 -3 4q-26 -12 -38 -5q-1 1 -13 -1q-10 -1 -30 4q-24 -12 -34 -5q-18 -12 -29 -6q-4 3 -13 -1q-7 -6 -28 -6q-5 0 -12 3q-8 2 -22 -3
q-17 -10 -23 -6q-6 2 -8 0l-1 -1q-20 -16 -33 -8l-9 8q-29 5 -59 18q-11 6 -5 18q8 8 10 16zM115 918q0 1 3 1q1 0 0 -2l-4 -2q-1 1 1 3zM98 898q4 1 5 1l3 -1q0 -1 -1 -3l-3 -2q-1 -1 -4 -1l-2 1q-1 2 2 5zM120 892l1 1q1 1 2 0h1q1 -1 -1 -2v0q-1 -1 -3 -1l-1 1q-1 0 1 1z
M128 892l1 1h4h1q1 -1 -1 -2q-3 -2 -6 -2zM168 898l1 2q13 2 14 1q1 -2 5 -5q-1 -1 -3 0v0l-3 3q0 -2 -2 -3q-7 -4 -11 -2l-2 1q0 1 1 3zM143 870l1 1q2 1 2 0h1q1 -1 1 -3l-1 -1q-3 -1 -5 0zM192 890l1 1q2 1 6 1q-2 -4 -5 -6l-1 1h-1v3zM247 883l1 1q10 1 18 -2v0
q-16 -3 -20 -2v1q-1 0 1 2zM210 846l3 -1q5 0 10 4v4h-1q-5 1 -10 -2l-1 -2q-1 -1 -1 -3zM126 779l1 1q5 4 9 3v0q2 -1 -1 -3q-7 -4 -9 -4l1 1q-1 0 -1 2zM146 788q1 1 2 0q1 0 -1 -2l-2 -1q-2 1 1 3zM149 772l2 2q1 1 4 0q2 -2 -2 -5q-1 -2 -5 -2q-1 1 1 5zM265 819v0
q3 -2 6 0q5 3 1 6q-4 0 -7 -2q-1 -3 0 -4zM266 792l1 1q2 1 3 0q1 0 0 -1l-2 -1q-1 -1 -2 -1v2zM293 799l3 2h1q0 -1 -1 -4q-2 -1 -2 0h-1q-1 1 0 2zM272 773l1 1q1 1 3 0l-1 -1l-1 -1q-2 -1 -3 -1q1 1 1 2zM321 801l1 1q3 -4 2 -5h-1v0q-4 3 -2 4zM314 787l1 1q1 1 4 0
q2 -1 0 -5q-1 -1 -3 -1l-1 1q-4 2 -1 4z" />
    <glyph glyph-name="guillemotleft" unicode="&#xab;" horiz-adv-x="944" 
d="M722 1039q7 -1 -2 -46q-51 -63 -82 -87q-23 -32 -75 -89q-52 -67 -77 -86q-48 -73 -77 -95q-23 -18 -91 -119l-77 -77q-14 -101 -13 -133q21 -37 6 -78q-10 -18 4 -72q4 -5 -25 -75q8 -37 5 -43l-21 -35q-2 -32 -7 -40q-23 -37 -40 -37q-16 0 -11 43q-4 16 -33 26
q17 30 -10 37q8 15 -29 46q4 29 -29 49q12 23 -26 52q-3 31 -21 40q-3 73 -31 101q-7 0 7 52q2 4 37 32l11 20q12 17 17 17q4 -5 10 -5q16 15 38 31q11 13 78 67q8 13 66 54q37 49 50 49q58 53 83 87q11 6 37 34q62 45 87 81q28 21 41 35l3 17l4 9q3 5 10 5l7 -8h7
q7 2 52 49q28 25 66 43q35 49 45 49h6zM1181 1010q14 -14 -5 -49q-52 -77 -66 -101q-77 -80 -95 -112q-15 -9 -73 -84q-55 -36 -167 -187l-5 -9q-3 -6 -9 -57q-21 -39 2 -58q-29 -53 -12 -84q-19 -33 -8 -60q-23 -42 -27 -86q-8 -15 -19 -75q-14 -15 -19 -23l-3 -6
q3 -15 -3 -26q-3 -4 -12 -9q-1 16 -19 35q-6 26 -5 66q-25 26 -20 72q-10 24 1 52q-15 31 -9 78q-19 0 5 66q3 40 -17 84q14 26 1 60q3 19 7 26q44 52 107 98q13 21 57 49q86 76 101 78q8 0 45 37q19 0 71 61q27 9 73 63q20 7 75 67q39 34 48 34zM624 834h2q4 -1 2 -5l-2 -3
q-2 -4 -11 -9h-2q-5 0 -2 6l1 3q3 4 12 8zM331 826h2q4 0 3 -9l-4 -6q-3 -5 -7 -5t-2 11l1 3q3 6 7 6zM239 713h2q4 -1 1 -5l-2 -3q-3 -6 -7 -6h-2q-5 0 -2 6l2 3q4 5 8 5zM414 595q4 0 3 -11l-5 -9q-2 -5 -15 -12h-7q-3 0 -3 12q11 20 27 20zM340 442h5q17 -5 12 -14l-3 -6
q-3 -4 -12 -8q-18 8 -13 17l4 6q3 5 7 5zM676 396l-3 -5h5l3 5h-5zM661 310l-6 -12h4q5 0 8 6t-2 6h-4zM-136 287q3 -1 0 -6l-3 -6q-3 -6 -7 -6h-3q-4 0 -1 6l2 3q2 4 12 9zM46 255l3 -3l4 9q-4 -1 -7 -6zM663 85l-5 -6l3 -3h2q4 0 8 6zM668 68l-3 -6h4q5 0 8 6t-2 6
q-4 -1 -7 -6z" />
    <glyph glyph-name="logicalnot" unicode="&#xac;" 
 />
    <glyph glyph-name="registered" unicode="&#xae;" horiz-adv-x="1169" 
d="M558 982h15q9 0 11 -12h-1q2 -6 6 -9h10q1 0 7 -1h13q12 0 16 -3h12q19 -6 51 -11q16 -4 37 -15q5 0 32 -15q9 0 34 -17q6 -2 13 -7q10 0 36 -19q11 -2 27 -18q1 0 26 -21q17 -8 35 -25q1 0 12 -12q8 -4 26 -28q2 0 17 -29q4 -13 10 -32q7 -25 3 -39q1 0 0 -2h-1l1 -8v0
v-5v0q2 -10 -1 -35q3 -20 -2 -48q3 -18 0 -25h-1l1 -4l-1 -1q1 -3 0 -13h-1v-5h-1q1 -3 1 -5h-1l-1 -1v-4q-1 -3 0 -4l-2 -4l-2 -6v-1l-1 -1v-3h-1v-2v-1q0 -1 -1 -2q1 -1 0 -3q0 -1 -1 -1v-1l-1 -2q-1 -8 -12 -30v-1q-11 -33 -24 -49q-12 -14 -19 -26q-20 -25 -26 -38
q-12 -17 -61 -65q-15 -16 -69 -64q-21 -16 -60 -37q-2 0 -50 -29q-30 -13 -57 -22q-17 -11 -24 -11q-8 0 -33 -7q-30 -6 -37 -7v1q0 -1 -33 -2v0h-3q-32 -3 -41 -3l-19 2q-6 -1 -7 -1h-1h-5h-3q-3 0 -12 2l-8 -1l-11 1q-2 0 -8 -1q-7 1 -17 1h-2q-1 0 -1 1q-3 -1 -17 -2
q-10 1 -18 3q-3 0 -17 -2l-18 2q-6 -1 -10 -1h-2q-46 2 -46 6q-5 0 -22 9l-50 14q-13 0 -29 11q-26 11 -27 16q-7 5 -20 12q-14 9 -35 32q-12 9 -26 34q-15 29 -14 34l-4 41q2 20 3 37q1 1 2 1v14l2 1l-1 4q2 1 2 2t-1 2l10 21v2l5 14v1l2 5v8l2 2l1 4v0v2v2q1 1 2 1
q-1 1 1 10h1l-2 8h1v5h1q-1 2 0 5l2 7v3v1l1 3h1q-1 2 1 9v0v1l1 3h1l-1 2v2l2 2q0 1 -1 1l6 16l-1 1q2 1 8 17l-1 1q2 4 2 6l1 2v3l4 9v1q13 31 35 65q10 20 24 40q8 12 22 29q6 6 18 26q7 7 16 26q13 15 14 19q0 1 3 2q0 2 -1 3l2 2v3q15 6 17 9l27 32l1 3l-2 1h-3l-3 -1
v1q-4 -2 -12 -3q-12 3 -9 11q6 8 19 14q1 0 39 24q32 13 73 44q43 32 52 33q24 9 60 17q36 19 66 27q14 6 51 9zM459 889q-4 3 -6 3q-12 -2 -31 -6v1q-5 0 -63 -33q-29 -17 -74 -51q-32 -28 -45 -49q-27 -35 -28 -41q-7 -9 -24 -31q-14 -16 -21 -28l-3 -7q-3 -7 -5 -10v-4
q-1 -1 1 -1q4 1 15 17q1 0 18 19q1 0 24 23q17 20 66 60l5 6l1 4v9v1q4 4 8 4h3q3 0 14 -12h2q2 0 3 4q-2 5 0 9q2 7 46 35q15 8 27 16q6 3 23 7q10 7 55 23q20 10 67 26l16 5v2l2 4q-3 2 -6 2h-17h-12h-7h-10h-9h-2q-10 0 -24 -6q-5 -1 -9 -1zM536 830l-1 1q-14 -3 -38 -11
l-1 1q-38 -14 -59 -24q-24 -10 -31 -18l-6 -2q-3 1 -4 1q-17 -2 -56 -30q-22 -15 -44 -36q-32 -28 -40 -39q-12 -10 -22 -23q-23 -19 -39 -39q-17 -15 -37 -46q-5 -7 -21 -28q-10 -13 -15 -18q-4 -3 -5 -8v-1q-1 -9 -1 -11q-5 -10 -14 -29l1 -1q-2 -6 -3 -6q-2 -16 -1 -29
h-1q1 -3 1 -5h-1l4 -31l-1 -1h-1q1 -2 1 -4h-1q-2 -8 2 -26v-12q-1 0 -1 -1q7 -15 8 -29q22 -34 22 -35q23 -40 35 -41q14 -12 29 -17q8 -8 27 -13q9 -7 20 -11q1 -2 22 -8q-1 -4 40 -8q15 -3 13 -11l-1 -2l-2 -5q-2 -5 4 -5q9 1 20 10q12 4 22 4h3q7 -4 55 -4h10h9
q3 0 27 2v0q7 2 36 3l1 -1l3 1l34 -2q8 1 29 4v-1q41 5 69 11h4h1l37 9v-1q38 13 46 19q22 17 59 54q1 3 49 52q19 24 43 66q1 4 10 26q1 6 25 64l2 4v4h1l-1 4l1 1l1 7v1l1 3l1 3v3l1 2q2 7 1 9h1q1 9 1 13h1q-2 3 -1 5h1q-1 3 0 5h1v4v1v5h1q-1 8 0 9h1q-2 3 -2 4h1v4
q0 1 1 1q3 13 -1 32q2 7 -17 50q-17 28 -27 35q-1 0 -23 22q-3 0 -11 12q-12 15 -31 21q-4 5 -28 10q-12 9 -28 12q-7 4 -34 16q-17 11 -30 18q-1 4 -22 6q-24 15 -46 17q-14 5 -61 8q-25 -6 -29 -6zM145 784q5 -3 6 -8v-1q-2 -5 -8 -5q-4 6 -3 8v1q2 4 5 5zM646 732h1
q9 -3 11 -11q7 -14 10 -53h-1v-13h-1l1 -5h-1v-9l-1 -2v-2l-1 -4l-1 -1q0 -1 -1 -2v-4h-1q1 -1 0 -8l-2 -2q1 -1 1 -2t-2 -3l1 -2q0 -1 -14 -31q-3 -13 -40 -54q-22 -27 -73 -56q-26 -15 -33 -15q-12 -3 -14 -10q1 -8 8 -8q8 -6 31 -18q10 -7 21 -15q16 -9 34 -18
q8 -8 28 -20q4 -6 25 -14q14 -15 36 -19h2q3 0 25 8h9q10 -3 7 -15q-4 -11 -27 -34q-36 -30 -58 -30q-8 0 -46 14q-1 0 -25 16q-23 10 -22 17q-2 10 -6 10t-8 -1q-21 10 -71 43q-22 11 -43 27q-11 12 -23 22h-3q-8 0 -21 -14q-32 -29 -46 -41q-9 -6 -23 -16q-19 -10 -22 -10
q-5 0 -3 6q12 13 30 43q15 16 26 36q10 14 31 41q0 3 34 51q9 19 24 43q10 12 49 60q44 47 67 66q47 37 55 39q32 19 51 19q6 1 15 1zM430 496q2 -10 9 -10h7l4 -1q23 6 36 9l-1 -1q46 16 60 29q27 19 34 49l1 1l1 1v0q3 14 5 15q1 13 2 42q-1 33 -12 33h-1q-12 -2 -39 -32
q-28 -29 -36 -42q-22 -24 -34 -46q-34 -44 -36 -47zM207 130l-1 -2l-1 -1q0 -1 2 -2h1q0 1 1 2q1 3 -2 3z" />
    <glyph glyph-name="macron" unicode="&#xaf;" horiz-adv-x="670" 
 />
    <glyph glyph-name="degree" unicode="&#xb0;" horiz-adv-x="270" 
d="M236 1166h1q1 0 -1 -9l19 -5l8 1q1 0 3 -7q11 -2 6 -13q-1 -6 7 -19q3 -11 -2 -23q1 -15 0 -19l-1 -2l-8 -12l-1 -2q-1 -3 -8 -17q-1 -6 0 -6l-3 -5l-2 -3l-1 -5q-3 -5 -14 -13q-11 -17 -13 -17q-5 -5 -6 -8l-2 -3h1q4 2 6 2q7 -3 3 -10q-2 -4 -5 -4q-7 0 -5 11
q-3 0 -13 -20q-16 -22 -10 -22q-16 -8 -22 -17q-2 -7 -16 -13q-7 -9 -50 -20q-25 12 -42 31q-4 9 3 23q-4 7 -6 7h-1l-8 -3v0q0 9 -3 10q-8 0 -4 8l3 7q2 4 1 13q2 3 3 5l1 1q-2 5 -1 7l7 11q0 7 1 10l1 1l28 42q1 0 7 11q10 6 25 23q14 11 24 23q1 0 12 10q19 12 23 12h3
q1 0 4 -2q4 0 13 12q1 0 4 2q5 -1 9 -1h3q9 0 13 7v1l1 4q2 4 5 5zM124 1020q0 -6 -2 -18q-1 -1 -9 -19q-1 -15 3 -20q-1 -3 14.5 -25t65.5 70l3 4v2q4 11 4 12q5 6 5 8q1 7 3 9l2 4q0 4 2 7l7 12q1 2 -3 10h-2l-6 -2q-3 2 -1 6q4 4 5 7v1q-4 3 -7 3q-9 0 -22 -12
q-11 0 -25 -15q-14 -7 -18 -15q-10 -8 -19 -29zM62 1006q0 -6 4 -6q3 1 5 6v0q2 5 0 8h-3q-1 0 -6 -8z" />
    </font>
</defs>
</svg>
